<?xml version="1.0" standalone="no"?>
<!DOCTYPE svg PUBLIC "-//W3C//DTD SVG 1.1//EN" "http://www.w3.org/Graphics/SVG/1.1/DTD/svg11.dtd" >
<svg xmlns="http://www.w3.org/2000/svg">
<metadata>
This is a custom SVG webfont generated by Font Squirrel.
Designer    : Christian Robertson
Foundry URL : veercom
</metadata>
<defs>
<font id="PillGothic600mgLightObq" horiz-adv-x="1212" >
<font-face units-per-em="2048" ascent="1638" descent="-410" />
<missing-glyph horiz-adv-x="440" />
<glyph unicode=" "  horiz-adv-x="440" />
<glyph unicode="&#x09;" horiz-adv-x="440" />
<glyph unicode="&#xa0;" horiz-adv-x="440" />
<glyph unicode="!" horiz-adv-x="479" d="M106 0l31 197h176l-30 -197h-177zM213 483l137 910h121l-152 -910h-106z" />
<glyph unicode="&#x22;" horiz-adv-x="573" d="M203 944l65 453h103l-74 -453h-94zM434 944l68 453h100l-74 -453h-94z" />
<glyph unicode="#" horiz-adv-x="1378" d="M84 338l14 92h340q33 98 70 205.5t70 206.5h-359l14 90h375q29 92 61.5 187t61.5 188h94l-123 -375h269l125 375h92l-123 -375h289l-15 -90h-305q-33 -98 -69.5 -206t-67.5 -206h320l-15 -92h-336q-27 -84 -54.5 -169t-53.5 -169h-94l106 338h-266q-27 -84 -55.5 -169 t-55.5 -169h-94l109 338h-324zM532 430h269q33 98 69.5 205.5t69.5 206.5h-268q-33 -98 -70 -206t-70 -206z" />
<glyph unicode="$" horiz-adv-x="1032" d="M74 238l106 53q25 -92 99.5 -140.5t189.5 -48.5q57 0 112.5 13.5t99.5 43t75.5 79t44.5 120.5l20 134q-152 80 -310.5 162.5t-309.5 162.5l35 227q14 94 56 158t99.5 104t124 60t131.5 27l33 213h104l-32 -217q111 -8 183.5 -64.5t100.5 -153.5l-102 -59 q-55 172 -246 172q-41 0 -94 -7t-102.5 -31.5t-89.5 -73t-52 -130.5l-22 -151l622 -322l-32 -209q-12 -86 -51.5 -151.5t-94.5 -110.5t-121.5 -70.5t-138.5 -31.5l-41 -258h-102l41 256q-129 8 -219 70.5t-117 173.5z" />
<glyph unicode="%" horiz-adv-x="1415" d="M143 0l1071 1393h119l-1065 -1393h-125zM227 999l31 203q8 49 33.5 88t64.5 66.5t87.5 42t99.5 14.5q49 0 92 -16.5t73.5 -44t45 -66.5t6.5 -84l-31 -203q-16 -102 -97 -157.5t-186 -55.5q-51 0 -95 15.5t-73.5 44t-44 67.5t-6.5 86zM332 1004q-8 -55 30.5 -85t98.5 -30 q57 0 106 32.5t58 82.5l30 196q10 53 -28.5 82t-98.5 29q-59 0 -108 -33t-58 -80zM739 190l33 209q8 49 33.5 88t63.5 67t86.5 42t99.5 14q49 0 91 -15t71.5 -43t44 -67t8.5 -84l-33 -208q-8 -51 -32.5 -90.5t-62.5 -67t-85 -41.5t-101 -14q-49 0 -92 15t-72.5 44t-44 67.5 t-8.5 83.5zM846 197q-10 -53 28.5 -84t98.5 -31q57 0 106 34t58 81l30 196q8 53 -30.5 84t-98.5 31q-59 0 -107 -34t-54 -81z" />
<glyph unicode="&#x26;" horiz-adv-x="1345" d="M84 328q10 66 42 122t77 105t99 93t110 87q23 16 47 37t45 37q-33 47 -69 99.5t-70 99.5l28 172q8 55 35 98t67 73.5t89 47t104 16.5q125 0 188.5 -69.5t43.5 -194.5q-8 -55 -33 -104.5t-59.5 -92.5t-77.5 -81.5t-86 -73.5l143.5 -205t144.5 -205q57 53 116.5 112.5 t115.5 112.5l73 -71l-241 -234q47 -61 99 -129.5t97 -130.5l-98 -78l-186 250q-104 -104 -224 -172.5t-268 -68.5q-88 0 -158.5 21.5t-118.5 64.5t-68.5 108.5t-6.5 153.5zM202 241q7 -44 35.5 -78t80 -53.5t133.5 -19.5q57 0 112 18.5t107.5 49t101.5 69.5t92 80 q-72 104 -149.5 212t-151.5 212q-23 -18 -49.5 -39.5t-48.5 -38.5q-45 -35 -89 -71.5t-80 -74.5t-60.5 -81t-32.5 -90q-8 -51 -1 -95zM479 1044q29 -41 60.5 -88t60.5 -88q76 66 137.5 132.5t73.5 144.5q14 88 -20.5 127t-116.5 39q-43 0 -75 -15.5t-53.5 -38t-32.5 -46 t-13 -40.5z" />
<glyph unicode="'" horiz-adv-x="432" d="M248 969l65 465h115l-82 -465h-98z" />
<glyph unicode="(" horiz-adv-x="643" d="M141 190l113 719q35 223 139.5 391t253.5 250l37 -75q-115 -63 -205 -209t-123 -357l-112 -719q-35 -225 11 -360t140 -203l-61 -78q-123 82 -175.5 252t-17.5 389z" />
<glyph unicode=")" horiz-adv-x="651" d="M-6 -373q115 70 203 217.5t122 364.5l109 686q35 217 -8 363.5t-135 211.5l57 80q61 -41 105.5 -107.5t68 -152.5t27.5 -186t-13 -209l-108 -686q-35 -227 -139.5 -400.5t-253.5 -254.5z" />
<glyph unicode="*" horiz-adv-x="774" d="M219 1198l41 86l201 -67l35 219h94l-35 -219l221 67l15 -86l-222 -68q25 -43 52.5 -89t50.5 -89l-84 -53l-101 176q-41 -41 -83 -88t-78 -88l-66 53l160 178q-47 16 -100.5 34t-100.5 34z" />
<glyph unicode="+" horiz-adv-x="1124" d="M109 735l16 109h442l68 428h115l-68 -428h442l-16 -109h-442l-74 -467h-115l74 467h-442z" />
<glyph unicode="," horiz-adv-x="344" d="M-55 -205q41 51 65.5 102.5t40.5 143.5l17 115h110l-8 -54q-12 -78 -29.5 -132t-39 -94t-47 -68.5t-54.5 -57.5z" />
<glyph unicode="-" horiz-adv-x="645" d="M115 524l16 109h442l-16 -109h-442z" />
<glyph unicode="." horiz-adv-x="460" d="M72 0l28 195h181l-29 -195h-180z" />
<glyph unicode="/" horiz-adv-x="704" d="M-51 -174l758 1567h114l-762 -1567h-110z" />
<glyph unicode="0" horiz-adv-x="1277" d="M150 391l96 606q16 104 67.5 182t125 130.5t164.5 78t185 25.5q90 0 172 -27.5t141.5 -81t89.5 -130t13 -177.5l-96 -606q-16 -104 -67.5 -181t-125 -128t-163.5 -76.5t-187 -25.5q-90 0 -172 26.5t-141 78.5t-87.5 129t-14.5 177zM264 391q-12 -80 9.5 -137t65.5 -94 t107.5 -54.5t135.5 -17.5q68 0 135 18.5t125.5 56.5t98.5 95t52 133l97 606q12 80 -8.5 137.5t-65.5 95.5t-108.5 56.5t-135.5 18.5q-68 0 -136.5 -19.5t-125.5 -58.5t-97 -96.5t-53 -133.5z" />
<glyph unicode="1" horiz-adv-x="864" d="M268 1284l17 109h432l-217 -1393h-115l201 1284h-318z" />
<glyph unicode="2" horiz-adv-x="1042" d="M59 0l9 57q18 117 53 208t92 166t137 139.5t189 125.5q66 37 125 72t108 77t82 92t43 114q20 129 -45.5 183t-183.5 54q-47 0 -97.5 -13t-96.5 -37t-87 -52.5t-72 -59.5l-61 80q86 84 198.5 138.5t233.5 54.5q76 0 141.5 -20.5t111.5 -62.5t66.5 -106.5t6.5 -152.5 q-12 -80 -45 -139.5t-83 -108.5t-114.5 -92t-142.5 -86q-178 -98 -292 -225t-145 -297h709l-16 -109h-824z" />
<glyph unicode="3" horiz-adv-x="1132" d="M94 285l111 20q-4 -49 19.5 -89t64.5 -67.5t96 -43t115 -15.5q51 0 109.5 11.5t110.5 36t89 62.5t45 89l25 166q10 57 -14.5 98t-66.5 67.5t-95.5 40t-102.5 13.5h-154l17 106h151q51 0 106.5 13.5t103.5 40t82 66.5t42 91l17 99q10 59 -8.5 100t-56.5 66.5t-90 37 t-112 11.5q-51 0 -108.5 -15.5t-107.5 -44t-87 -69.5t-49 -93l-96 23q16 74 64 130t115 96t143.5 60.5t148.5 20.5q80 0 150.5 -20.5t120.5 -61.5t75 -101.5t12 -139.5l-16 -99q-8 -57 -36 -101t-65.5 -77t-80.5 -55.5t-86 -34.5q41 -14 80.5 -36.5t69.5 -54.5t44.5 -76 t3.5 -101l-24 -166q-12 -82 -60.5 -140.5t-116 -95.5t-147.5 -54t-158 -17q-82 0 -155.5 21.5t-127.5 60t-85 95t-25 126.5z" />
<glyph unicode="4" horiz-adv-x="1067" d="M39 428l16 96l701 869h186l-135 -856h235l-16 -109h-235l-66 -426h-115l66 426h-637zM184 537h508l121 753h-16q-147 -182 -306.5 -377.5t-306.5 -375.5z" />
<glyph unicode="5" horiz-adv-x="1107" d="M111 324l114 14q-6 -57 11.5 -103.5t55.5 -79t91 -50t117 -17.5q55 0 113.5 15.5t106.5 46t82 74.5t42 102l24 155q10 61 -6 106.5t-50 75t-84 44t-107 14.5h-394l172 672h645l-16 -109h-541q-29 -111 -59.5 -227.5t-58.5 -227.5h274q78 0 145.5 -23.5t114.5 -68.5 t68.5 -109.5t9.5 -146.5l-25 -155q-12 -88 -58 -152.5t-111.5 -107.5t-145.5 -64.5t-162 -21.5t-153.5 23.5t-122.5 67.5t-75.5 107.5t-16.5 145.5z" />
<glyph unicode="6" horiz-adv-x="1136" d="M139 324l121 766q12 78 55 138t106.5 101t142.5 62.5t163 21.5q100 0 183 -38t134 -101l-83 -86q-41 53 -107 85t-143 32q-61 0 -118.5 -15.5t-104 -43t-76 -67.5t-37.5 -89l-56 -351q74 70 163 107t180 37q78 0 146.5 -22.5t118.5 -65.5t73.5 -107.5t11.5 -148.5 l-35 -215q-14 -90 -59.5 -155t-111 -107t-144 -62t-158.5 -20q-78 0 -149.5 22.5t-124 65.5t-78 107.5t-13.5 148.5zM254 324q-10 -66 9.5 -111t57 -72.5t90 -40t109.5 -12.5q55 0 111.5 14.5t104.5 43t83 72.5t43 106l33 206q10 66 -9.5 111t-57 73.5t-91 42t-108.5 13.5 t-112.5 -17.5t-106 -50t-82 -76.5t-41.5 -100z" />
<glyph unicode="7" horiz-adv-x="901" d="M147 1284l17 109h831l-667 -1393h-129l618 1284h-670z" />
<glyph unicode="8" horiz-adv-x="1155" d="M137 307l23 150q8 45 33.5 87t61.5 76.5t79 62.5t86 46q-72 41 -117 113.5t-31 158.5l15 97q12 84 55 144.5t103.5 100t134 58t149.5 18.5q74 0 140.5 -20.5t115.5 -61.5t72.5 -101t11.5 -140l-14 -101q-8 -45 -31 -86t-54.5 -74.5t-69.5 -60t-79 -45.5q39 -18 74 -46 t59.5 -63.5t35.5 -76.5t5 -86l-22 -152q-14 -88 -59.5 -150.5t-110 -101.5t-142 -56t-157.5 -17q-78 0 -150.5 19t-125 60t-78 102.5t-13.5 145.5zM252 309q-10 -63 9.5 -106t58 -68.5t92 -36t108.5 -10.5q53 0 109.5 12.5t103.5 39t82 68.5t43 99l23 146q8 53 -10.5 94 t-54.5 68.5t-84 42t-99 14.5h-39q-55 0 -108.5 -15.5t-98.5 -44t-74.5 -68.5t-38.5 -91zM387 995q-8 -53 7.5 -92t47 -65.5t75.5 -41t93 -16.5h39q51 4 100.5 19.5t89.5 42t66.5 65.5t34.5 88l14 101q10 59 -7 100t-52 66.5t-83 37t-99 11.5t-103.5 -13.5t-95.5 -39 t-73.5 -66.5t-39.5 -96z" />
<glyph unicode="9" horiz-adv-x="1136" d="M131 117l84 88q23 -20 51.5 -41t63.5 -37t78 -27.5t94 -11.5q53 0 109.5 13.5t104.5 43t81.5 73.5t42.5 106l47 299q-70 -66 -157 -100t-173 -34q-80 0 -149.5 23t-120.5 67t-75 108.5t-11 148.5l39 245q12 82 57 145.5t110.5 106.5t144.5 65.5t159 22.5 q78 0 149.5 -24.5t122.5 -68.5t76.5 -106.5t13.5 -140.5l-119 -757q-14 -90 -59 -155t-109.5 -107t-142.5 -62t-158 -20q-45 0 -96 9t-99 25.5t-89 43t-70 59.5zM315 836q-10 -66 9.5 -112t57.5 -73.5t91 -40t111 -12.5q53 0 109.5 16.5t104.5 48t81.5 76.5t42.5 101l36 241 q10 57 -9 100.5t-57 73t-90 44t-108 14.5q-55 0 -112.5 -16.5t-104.5 -46t-81 -72.5t-42 -97z" />
<glyph unicode=":" horiz-adv-x="540" d="M127 0l33 219h168l-33 -219h-168zM250 788l33 216h168l-33 -216h-168z" />
<glyph unicode=";" horiz-adv-x="626" d="M92 -205q41 51 67.5 102.5t41.5 143.5l16 115h111l-9 -54q-12 -78 -29.5 -132t-39 -94t-48 -68.5t-55.5 -57.5zM295 719l35 221h141l-35 -221h-141z" />
<glyph unicode="&#x3c;" horiz-adv-x="1187" d="M109 492l983 544l34 -82l-821 -458q178 -106 361.5 -218t359.5 -219l-65 -86z" />
<glyph unicode="=" horiz-adv-x="1245" d="M104 459l15 100h1042l-14 -100h-1043zM172 903l16 101h1043l-17 -101h-1042z" />
<glyph unicode="&#x3e;" horiz-adv-x="1142" d="M45 57l815 441q-160 111 -322.5 225.5t-322.5 224.5l66 86l770 -534l-971 -531z" />
<glyph unicode="?" horiz-adv-x="774" d="M160 0l30 197h187l-31 -197h-186zM182 1264q70 66 153 107.5t173 41.5q141 0 218 -68.5t52 -220.5l-16 -114q-10 -70 -60.5 -119t-105.5 -92q-80 -59 -133 -114.5t-68 -143.5l-20 -129h-115l27 168q6 41 25.5 76.5t47 67.5t62.5 61.5t70 56.5q4 4 14 12t16 12 q41 35 79 70t48 86l15 98q14 92 -32 138.5t-138 46.5q-66 0 -135.5 -34t-120.5 -85z" />
<glyph unicode="@" horiz-adv-x="1597" d="M115 524q8 53 23.5 120t41.5 163q37 135 114 248.5t181.5 197.5t232.5 131.5t271 47.5q141 0 257 -42t193.5 -118t111.5 -179.5t15 -226.5q-41 -260 -133 -392t-268 -132q-63 0 -113.5 32t-66.5 87q-59 -66 -144.5 -107t-177.5 -41q-63 0 -106 16.5t-67.5 45t-33 66.5 t-2.5 81q4 18 13.5 52t22 74t26.5 82t26 77q25 66 70 122t101.5 98t122 66.5t130.5 24.5q115 0 176.5 -53t47.5 -145q-6 -35 -21.5 -81t-34.5 -94q-4 -12 -8 -25l-8 -26q-14 -37 -24.5 -70.5t-14.5 -58.5q-10 -59 18.5 -95t81.5 -36q104 0 178 101.5t111 332.5 q18 113 -10.5 200t-94 147.5t-164.5 92t-224 31.5q-121 0 -231.5 -43t-202 -116.5t-158 -172t-97.5 -206.5l-8 -33q-4 -16 -8 -31q-18 -68 -30.5 -119t-18.5 -90q-16 -106 15.5 -191t102 -143.5t176 -90t236.5 -31.5q78 0 170.5 21.5t171.5 62.5l35 -82 q-96 -51 -195.5 -72.5t-195.5 -21.5q-147 0 -269 40.5t-204 114.5t-119.5 173t-19.5 216zM555 547q-10 -76 23.5 -107.5t103.5 -31.5q53 0 101 19t88 52t70 73t44 83q4 6 5 13t5 16q23 53 45.5 120.5t32.5 120.5q10 66 -26.5 92.5t-112.5 26.5q-51 0 -99.5 -20.5t-89 -55.5 t-72.5 -80t-48 -94q-10 -27 -21.5 -62.5t-22 -68.5t-17.5 -59.5t-9 -36.5z" />
<glyph unicode="A" d="M-23 0l725 1411h121l275 -1411h-123l-90 459h-545q-59 -111 -119.5 -229.5t-118.5 -229.5h-125zM391 563h473q-33 172 -63.5 345t-63.5 345q-86 -172 -173 -345t-173 -345z" />
<glyph unicode="B" horiz-adv-x="1144" d="M109 0l217 1393h430q76 0 138 -23.5t105 -68t63 -108.5q12 -40 12 -85q0 -29 -5 -59l-10 -60q-14 -94 -77.5 -163.5t-143.5 -98.5q90 -37 144 -116q42 -61 42 -138q0 -24 -4 -49l-14 -86q-12 -86 -52.5 -149.5t-96.5 -105.5t-124.5 -62.5t-142.5 -20.5h-481zM240 109h350 q49 0 99 15t92 44t72 71t38 97l14 90q4 22 4 42q0 34 -11 62q-17 45 -54 75t-87 45.5t-110 15.5h-321zM342 770h305q47 0 97.5 15.5t91.5 43t70.5 68.5t37.5 92l10 60q4 28 5 53q0 32 -8 57q-13 45 -43.5 73t-78 40t-104.5 12h-301z" />
<glyph unicode="C" horiz-adv-x="1103" d="M113 403l92 584q16 102 66.5 181t123 133.5t163.5 83t190 28.5q129 0 230 -45t163 -131l-84 -84q-51 72 -135 112t-191 40q-72 0 -140.5 -22.5t-124.5 -63.5t-94 -100.5t-50 -131.5l-93 -584q-5 -34 -5 -64q0 -43 10 -78q17 -60 60.5 -98t107 -56.5t141.5 -18.5 q100 0 200.5 29.5t178.5 91.5l45 -88q-98 -78 -208 -109.5t-233 -31.5q-100 0 -183 28.5t-139.5 81.5t-80.5 133q-16 50 -16 109q1 34 6 71z" />
<glyph unicode="D" horiz-adv-x="1208" d="M109 0l217 1393h401q100 0 187 -29t148.5 -84t91.5 -135q19 -51 19 -112q0 -34 -6 -70l-84 -537q-18 -115 -71.5 -195.5t-131 -132t-174 -75t-200.5 -23.5h-397zM240 109h280q78 0 154 19t137 58t103 99.5t55 140.5l84 537q4 30 4 56q0 49 -15 88q-23 60 -70.5 99 t-115.5 58.5t-145 19.5h-287z" />
<glyph unicode="E" horiz-adv-x="1013" d="M109 0l217 1393h686l-17 -109h-571l-82 -516h481l-16 -106h-481l-86 -553h620l-16 -109h-735z" />
<glyph unicode="F" horiz-adv-x="923" d="M109 0l217 1393h684l-17 -109h-569l-80 -500h479l-16 -106h-477l-105 -678h-116z" />
<glyph unicode="G" horiz-adv-x="1245" d="M115 408l90 577q14 96 68.5 175t133 135.5t176 87t197.5 30.5q59 0 117.5 -11t110 -33.5t93.5 -53.5t68 -72l-82 -84q-47 66 -136 106t-187 40q-76 0 -150.5 -26t-137 -69t-104.5 -101t-53 -124l-90 -577q-4 -27 -4 -52q0 -45 15 -84q23 -59 69.5 -100t115.5 -62.5 t150 -21.5q119 0 213.5 29.5t161.5 70.5l64 412h-365l17 105h479l-88 -572q-45 -27 -97.5 -54.5t-112 -50t-131 -35.5t-157.5 -13q-104 0 -191 31.5t-148.5 89t-90.5 136.5q-19 53 -19 111q0 29 5 60z" />
<glyph unicode="H" horiz-adv-x="1374" d="M123 0l217 1393h115l-105 -666h772l105 666h114l-217 -1393h-114l96 618h-772l-96 -618h-115z" />
<glyph unicode="I" horiz-adv-x="569" d="M158 0l217 1393h114l-217 -1393h-114z" />
<glyph unicode="J" horiz-adv-x="972" d="M20 299l117 16q-3 -19 -3 -36q0 -30 9 -57q14 -42 45 -71.5t76 -46t98 -16.5q47 0 96.5 14.5t90.5 42t70.5 68.5t37.5 92l170 1088h117l-170 -1088q-12 -80 -52 -140.5t-98.5 -102.5t-129 -62t-146.5 -20q-72 0 -135 21.5t-108.5 63t-68.5 101.5q-17 44 -18 96q0 18 2 37 z" />
<glyph unicode="K" horiz-adv-x="1206" d="M109 0l217 1393h116l-108 -695q190 166 397 347.5t395 347.5h154l-743 -652q147 -184 296.5 -370.5t296.5 -370.5h-159l-529 657q-29 -25 -67.5 -57.5t-65.5 -54.5l-84 -545h-116z" />
<glyph unicode="L" horiz-adv-x="970" d="M109 0l217 1393h114l-200 -1284h669l-16 -109h-784z" />
<glyph unicode="M" horiz-adv-x="1574" d="M109 0l217 1393h143l334 -848q145 209 298.5 424t299.5 424h143l-217 -1393h-108l190 1229q-70 -102 -146.5 -214t-155.5 -224.5t-156 -224t-148 -214.5h-64l-331 871l-191 -1223h-108z" />
<glyph unicode="N" horiz-adv-x="1413" d="M109 0l217 1393h151l602 -1243l195 1243h108l-217 -1393h-151l-604 1243l-193 -1243h-108z" />
<glyph unicode="O" horiz-adv-x="1298" d="M113 406l92 577q16 102 70.5 182t134 135.5t177 84t197.5 28.5h33q92 0 179 -29.5t150.5 -86t97.5 -136.5q23 -54 23 -116q0 -30 -5 -62l-93 -577q-16 -106 -69 -187.5t-132 -133.5t-175.5 -78.5t-198.5 -26.5h-31q-98 0 -187 27.5t-152.5 81.5t-95.5 133q-21 52 -21 115 q0 33 6 69zM229 406q-4 -28 -4 -54q0 -49 16 -88q24 -59 72.5 -98t117.5 -58.5t149 -19.5h30q74 0 147.5 20.5t136 60.5t105.5 99.5t56 137.5l92 577q4 25 4 47q0 48 -17 88q-26 59 -75 101.5t-117 64t-141 21.5h-33q-72 0 -145.5 -22.5t-137 -64.5t-107.5 -101.5 t-56 -133.5z" />
<glyph unicode="P" horiz-adv-x="1075" d="M109 0l217 1393h417q74 0 138.5 -23.5t109.5 -68t67 -106.5q14 -40 13 -86q0 -26 -4 -54l-25 -162q-12 -80 -51 -139.5t-96 -98.5t-128 -57t-146 -18h-308l-90 -580h-114zM330 688h303q49 0 98 12.5t90 37t70 63.5t37 92l24 160q3 19 3 37q0 32 -9 59q-14 43 -46 72.5 t-76 46t-97 16.5h-303z" />
<glyph unicode="Q" horiz-adv-x="1298" d="M113 406l92 577q16 102 70.5 182t134 135.5t177 84t197.5 28.5h33q92 0 179 -29.5t150.5 -86t97.5 -136.5q23 -54 23 -116q0 -30 -5 -62l-93 -577q-16 -111 -75.5 -192t-139.5 -134q4 -10 11.5 -18.5t11.5 -18.5q39 -66 80 -85t112 -21l-14 -93q-51 0 -91 5.5t-73 20.5 t-59.5 43t-52.5 73l-25 43q-59 -23 -127 -36t-133 -13h-31q-98 0 -187 27.5t-152.5 81.5t-95.5 133q-21 52 -21 115q0 33 6 69zM229 406q-4 -28 -4 -54q0 -49 16 -88q24 -59 72.5 -98t117.5 -58.5t149 -19.5h30q43 0 93.5 8t95.5 25q-35 61 -73 128.5t-73 127.5l90 63 l158 -268q57 39 100 98.5t54 135.5l92 577q4 25 4 47q0 48 -17 88q-26 59 -75 101.5t-117 64t-141 21.5h-33q-72 0 -145.5 -22.5t-137 -64.5t-107.5 -101.5t-56 -133.5z" />
<glyph unicode="R" horiz-adv-x="1169" d="M111 0l217 1393h495q74 0 137.5 -23.5t107.5 -66.5t66 -106q14 -40 13 -86q0 -27 -4 -56l-19 -121q-10 -70 -43.5 -122t-83 -90t-109 -61.5t-122.5 -33.5q59 -156 119.5 -313.5t120.5 -313.5h-132l-235 621h-317l-97 -621h-114zM338 729h377q47 0 96 13.5t91 39 t70.5 63.5t37.5 89l18 121q3 19 3 37q0 31 -9 58q-14 42 -46 71.5t-77 46t-96 16.5h-377z" />
<glyph unicode="S" horiz-adv-x="1130" d="M63 225l103 64q18 -49 56 -86t86 -62.5t104.5 -38t113.5 -12.5q68 0 131.5 14.5t115.5 46t88 82t48 121.5q4 23 4 44q0 40 -13 71q-19 47 -59 81t-93.5 58.5t-112.5 44.5q-8 4 -18.5 7.5t-18.5 7.5q-76 29 -146.5 60.5t-121.5 75.5t-76 106q-16 39 -16 90q0 29 6 63 q14 94 58 160.5t108.5 108.5t147.5 61.5t175 19.5q131 0 235.5 -54t166.5 -136l-91 -86q-45 68 -132 118t-197 50q-61 0 -120.5 -13.5t-109 -43t-82 -75t-43.5 -110.5q-3 -20 -3 -38q0 -38 15 -68q22 -44 61.5 -76.5t92 -55t107.5 -43.5q12 -4 27.5 -10t27.5 -10 q80 -31 148.5 -61.5t114.5 -74.5t67 -109q12 -38 12 -87q0 -35 -6 -76q-16 -100 -62.5 -170.5t-114 -115.5t-153.5 -65.5t-182 -20.5q-70 0 -140.5 14t-131 44t-106.5 76t-71 109z" />
<glyph unicode="T" horiz-adv-x="1054" d="M156 1282l18 109h1006l-19 -109h-448l-199 -1282h-115l199 1282h-442z" />
<glyph unicode="U" horiz-adv-x="1368" d="M172 412l154 981h116l-153 -981q-6 -34 -6 -65q0 -47 14 -85q23 -61 70 -100t115.5 -56.5t148.5 -17.5q72 0 144.5 21.5t133 62.5t103.5 101.5t55 138.5l154 981h116l-153 -981q-18 -113 -69.5 -195t-128.5 -135t-172 -77.5t-200 -24.5q-104 0 -192 27.5t-149.5 80.5 t-89.5 135q-17 51 -17 113q0 36 6 76z" />
<glyph unicode="V" horiz-adv-x="1202" d="M193 1393h116l242 -1229q158 305 318.5 614t318.5 615h119l-717 -1393h-125z" />
<glyph unicode="W" horiz-adv-x="1724" d="M193 1393h120l117 -1219q61 145 126 299t131.5 310.5t132 311t126.5 298.5h115l133 -1221q121 299 248 610.5t248 610.5h120l-571 -1393h-141l-125 1194q-59 -141 -124 -292.5t-129.5 -304.5t-128 -304.5t-122.5 -292.5h-139z" />
<glyph unicode="X" horiz-adv-x="1232" d="M18 0l580 700q-82 168 -168 346.5t-168 346.5h137l287 -592q117 145 241 295.5t240 296.5h140l-570 -693l175 -350l175 -350h-137l-297 600q-123 -147 -246.5 -300t-246.5 -300h-142z" />
<glyph unicode="Y" horiz-adv-x="1243" d="M193 1393h135l319 -711q133 174 272.5 355.5t274.5 355.5h133l-643 -830l-88 -563h-115l88 563q-92 201 -188 415t-188 415z" />
<glyph unicode="Z" horiz-adv-x="1153" d="M33 0l8 53l958 1231h-737l17 109h899l-13 -72l-934 -1212h766l-16 -109h-948z" />
<glyph unicode="[" horiz-adv-x="538" d="M51 -340l271 1733h264l-17 -99h-153l-240 -1538h148l-15 -96h-258z" />
<glyph unicode="\" horiz-adv-x="753" d="M211 1393h115l295 -1393h-113z" />
<glyph unicode="]" horiz-adv-x="534" d="M-14 -326l14 99h143l238 1519h-148l17 101h260l-268 -1719h-256z" />
<glyph unicode="^" horiz-adv-x="788" d="M174 911l379 506l207 -504l-107 -18l-133 324l-241 -324z" />
<glyph unicode="_" horiz-adv-x="1048" d="M6 -158l17 103h845l-16 -103h-846z" />
<glyph unicode="`" horiz-adv-x="479" d="M250 1376l100 68l133 -293l-73 -49z" />
<glyph unicode="a" horiz-adv-x="980" d="M74 272l32 207l646 113l14 98q5 33 5 61q0 73 -35 112q-48 54 -163 55q-43 0 -91 -10.5t-94 -26t-86 -33t-64 -31.5l-27 90q31 18 77 39t98 38t106.5 28.5t103.5 11.5q154 0 231 -87q59 -66 60 -174q0 -34 -6 -73l-107 -690h-104l12 137q-66 -84 -151 -119.5t-177 -35.5 q-66 0 -122 19t-95 56t-56 91q-11 34 -11 75q0 23 4 49zM193 276q-3 -20 -4 -37q0 -26 8 -46q12 -35 39.5 -58.5t67.5 -35t85 -11.5q47 0 99.5 16.5t98.5 47t78.5 73.5t41.5 94l26 175q-123 -23 -261 -46.5t-261 -46.5z" />
<glyph unicode="b" horiz-adv-x="1073" d="M92 0l230 1475h114l-96 -619q29 41 70 71.5t88 52t97 33t97 11.5q76 0 139.5 -22.5t107.5 -66.5t63 -108q12 -39 12 -84q0 -29 -4 -61l-58 -358q-12 -86 -50 -150.5t-95 -107.5t-129 -64.5t-152 -21.5q-98 0 -183 38.5t-120 114.5q-6 -29 -14 -66.5t-12 -66.5h-105z M258 332q-4 -22 -4 -42q0 -36 12 -66q18 -46 56 -76.5t91.5 -45t112.5 -14.5q53 0 104.5 15.5t94.5 45t73.5 73.5t39.5 102l57 358q4 24 4 45q0 32 -9 58q-15 44 -49 73t-82 43t-106 14q-53 0 -110.5 -17t-105.5 -49t-83 -77t-43 -100z" />
<glyph unicode="c" horiz-adv-x="870" d="M82 324l55 352q12 82 52 146.5t97.5 109.5t131.5 68.5t153 23.5q98 0 174 -33t129 -108l-86 -82q-41 53 -102 83.5t-133 30.5q-51 0 -102.5 -16t-92.5 -48t-69.5 -76t-36.5 -99l-55 -352q-4 -27 -4 -51q0 -85 52 -129q67 -56 185 -56q66 0 133.5 20.5t136.5 73.5l45 -90 q-86 -68 -163.5 -90t-169.5 -22q-80 0 -146.5 21.5t-111.5 64.5t-65 107q-12 40 -12 87q0 31 5 64z" />
<glyph unicode="d" horiz-adv-x="1046" d="M84 336l53 336q27 172 144.5 263t285.5 91q86 0 167 -37t124 -110l92 596h115l-229 -1475h-103l8 129q-63 -76 -156 -112.5t-182 -36.5q-80 0 -144 24.5t-107 70.5t-62 111q-11 39 -11 86q0 30 5 64zM199 336q-5 -29 -5 -55q0 -86 53 -131q69 -59 191 -60 q53 0 108.5 15.5t102.5 45t81 74.5t42 105l53 342q4 23 4 43q0 35 -11 64q-17 46 -53 77t-87 46.5t-111 15.5q-55 0 -107 -16.5t-95 -48.5t-73 -78t-40 -103z" />
<glyph unicode="e" horiz-adv-x="966" d="M84 336l55 352q12 78 53 140.5t101.5 105.5t136.5 66.5t160 23.5q78 0 141.5 -24.5t106.5 -68.5t63 -106q13 -38 13 -81q0 -26 -5 -54l-20 -135l-672 -98l-18 -121q-4 -23 -4 -43q0 -39 13 -70q19 -47 58 -76.5t94.5 -44t118.5 -14.5q96 0 178 29.5t125 64.5l47 -82 q-78 -66 -177 -93t-193 -27q-82 0 -157 21.5t-128 66.5t-79 111q-16 43 -16 95q0 30 5 62zM233 553q135 20 275.5 39.5t275.5 40.5l11 65q2 16 2 31q0 76 -53 126q-62 60 -173 60q-55 0 -108 -16t-97 -47t-74 -73t-38 -91z" />
<glyph unicode="f" horiz-adv-x="579" d="M88 907l14 97h205l33 208q12 76 45 131.5t80 90t105.5 52t121.5 17.5q39 0 88 -10t88 -27l-41 -94q-35 12 -71.5 19.5t-71.5 7.5q-92 0 -153.5 -48t-77.5 -149l-31 -198h235l-14 -97h-235l-142 -907h-114l141 907h-205z" />
<glyph unicode="g" horiz-adv-x="1034" d="M0 -188q16 109 75.5 162t157.5 77q-51 31 -77 73q-19 30 -20 72q0 16 3 33q8 47 44 85t85 57q-107 68 -107 195q0 26 5 55l14 92q12 80 51 138t97.5 98t131 59.5t150.5 19.5q115 0 219 -57q53 16 117 37.5t117 38.5l16 -95l-178 -53q27 -45 38 -89q7 -25 7 -53 q0 -20 -4 -42l-14 -97q-12 -82 -51 -140t-94.5 -95t-126 -54.5t-148.5 -17.5q-35 0 -77 4t-73 15q-39 -10 -70.5 -33t-39.5 -64q-4 -29 6 -50t28.5 -36.5t42 -25.5t42.5 -15l524 -141l-27 -164q-12 -76 -54 -126t-101.5 -80.5t-132 -44t-144.5 -13.5h-98q-70 0 -135.5 15.5 t-113.5 48t-73 85.5q-16 35 -16 79q0 22 4 47zM109 -184q-2 -16 -3 -30q0 -34 14 -58q19 -35 56 -54.5t87 -26.5t104 -7h90q45 0 91 8t86 27.5t70.5 50t45.5 77.5l16 95l-205 53q-102 27 -203 53q-43 -2 -84 -13t-74.5 -32.5t-58 -56.5t-32.5 -86zM276 614q-3 -20 -3 -37 q0 -75 56 -115q69 -50 191 -50q51 0 100.5 11t89.5 35.5t68.5 62.5t36.5 93l16 101l2 26q0 87 -62 130q-71 50 -177 51q-51 0 -101.5 -13.5t-91.5 -39t-70.5 -64.5t-37.5 -90z" />
<glyph unicode="h" horiz-adv-x="1097" d="M90 0l229 1475h115l-102 -658q68 90 171 149.5t214 59.5q154 0 228 -90q56 -68 56 -176q0 -36 -6 -76l-106 -684h-115l107 684q4 27 4 52q0 77 -40 122q-52 59 -165 60q-55 0 -117.5 -25t-118 -66t-94.5 -93t-49 -109l-96 -625h-115z" />
<glyph unicode="i" horiz-adv-x="489" d="M121 0l155 1004h115l-155 -1004h-115zM307 1245l23 148h129l-23 -148h-129z" />
<glyph unicode="j" horiz-adv-x="526" d="M-201 -352q88 45 151.5 83t108.5 84t73 109.5t42 163.5l143 916h115l-143 -922q-18 -117 -54 -197t-91.5 -137t-133.5 -100t-182 -86zM350 1245l23 148h123l-23 -148h-123z" />
<glyph unicode="k" horiz-adv-x="882" d="M90 0l227 1454h115l-135 -864h53q109 100 221.5 206.5t219.5 207.5h137l-492 -467q41 -57 89 -127t97.5 -141.5t97.5 -140.5t89 -128h-145l-336 483h-49l-74 -483h-115z" />
<glyph unicode="l" horiz-adv-x="487" d="M117 0l227 1454h115l-228 -1454h-114z" />
<glyph unicode="m" horiz-adv-x="1673" d="M92 0l156 1004h104l-22 -183q63 90 155.5 147.5t196.5 57.5q102 0 174 -47t88 -148q66 92 161 143.5t206 51.5q147 0 217 -86q51 -64 51 -165q0 -36 -6 -77l-109 -698h-114l106 684q4 29 4 55q0 71 -33 116q-45 62 -149 63q-59 0 -117.5 -20.5t-105.5 -57.5t-80 -88.5 t-43 -114.5l-98 -637h-115l106 692q4 28 5 54q0 69 -33 112q-45 59 -150 60q-51 0 -108.5 -26t-106.5 -68t-85 -95t-44 -108l-96 -621h-115z" />
<glyph unicode="n" horiz-adv-x="1099" d="M90 0l156 1004h108l-20 -187q72 94 168 151.5t211 57.5q154 0 230 -90q58 -68 58 -178q0 -35 -6 -74l-106 -684h-115l105 674q5 31 5 59q0 75 -37 121q-50 63 -167 64q-55 0 -116.5 -25t-117 -66t-94.5 -93t-49 -109l-96 -625h-117z" />
<glyph unicode="o" horiz-adv-x="1001" d="M84 328l55 354q12 82 54.5 145.5t104.5 107.5t139 67.5t157 23.5q78 0 145.5 -24.5t115.5 -68.5t72 -108q15 -42 15 -90q0 -25 -4 -53l-55 -354q-12 -82 -55.5 -146.5t-104.5 -108.5t-137 -67.5t-156 -23.5q-76 0 -144.5 24.5t-117.5 68.5t-73 108q-15 42 -15 92 q0 26 4 53zM199 328q-3 -20 -3 -39q0 -35 10 -64q15 -45 50 -74.5t84 -45t106 -15.5q53 0 106.5 16.5t97.5 47t77 74.5t41 100l55 354q3 19 3 37q0 35 -11 64q-16 44 -51 74t-83 45.5t-103 15.5q-53 0 -107.5 -16.5t-99.5 -47.5t-77 -74t-40 -98z" />
<glyph unicode="p" horiz-adv-x="1067" d="M18 -451l228 1455h100l-12 -148q57 74 151.5 121t192.5 47q78 0 142.5 -25.5t107.5 -71.5t62 -109q12 -38 12 -81q0 -27 -5 -57l-53 -352q-12 -80 -51 -144.5t-95.5 -109.5t-129 -69.5t-154.5 -24.5q-45 0 -90 10t-84 28.5t-69.5 45t-47.5 59.5l-90 -574h-115zM256 330 q-3 -19 -3 -37q0 -35 11 -66q16 -45 52 -75.5t87.5 -47t110.5 -16.5q55 0 107.5 17.5t96.5 49t73.5 75.5t37.5 98l54 350q4 24 4 46q0 83 -57 131q-71 60 -187 60q-55 0 -111.5 -19t-103.5 -52t-79 -77t-40 -95z" />
<glyph unicode="q" horiz-adv-x="1007" d="M84 328l55 356q12 82 51 145.5t96.5 107.5t130 66.5t150.5 22.5q43 0 87 -10t84 -29.5t73 -48.5t51 -64q8 31 16.5 65t16.5 65h98l-227 -1455h-115l90 580q-29 -37 -69.5 -64.5t-85.5 -45t-92.5 -26.5t-90.5 -9q-76 0 -140 24.5t-108 69.5t-64 108q-12 39 -12 84 q0 28 5 58zM199 330q-3 -20 -3 -39q0 -35 10 -64q15 -45 49 -74.5t82 -45t101 -15.5q55 0 110.5 16.5t101.5 47t80 75.5t42 103l53 342q4 20 4 38q0 35 -13 64q-19 45 -56 76t-87 47.5t-106 16.5q-55 0 -107 -16.5t-95 -47.5t-73 -74t-38 -98z" />
<glyph unicode="r" horiz-adv-x="643" d="M100 0l156 1004h98l-20 -205q25 45 56.5 86t68.5 71.5t79 49t85 18.5q27 0 53 -3t51 -11l-41 -117q-20 6 -47 10t-49 4q-51 0 -98.5 -27.5t-85 -73.5t-64.5 -104.5t-37 -119.5l-90 -582h-115z" />
<glyph unicode="s" horiz-adv-x="864" d="M25 135l71 84q49 -66 127 -99.5t158 -33.5q49 0 94 8t81 27.5t61.5 54.5t33.5 86q2 14 2 26q0 25 -8 44q-12 29 -36.5 49t-58.5 34.5t-73 28.5q-14 6 -28.5 11.5t-30.5 11.5q-57 23 -108.5 46.5t-86.5 56t-52 76.5q-11 28 -11 64q0 21 4 46q12 72 45 123t83 82.5 t114.5 47t136.5 15.5q37 0 78 -9t78.5 -24.5t71.5 -35t58 -42.5l-71 -96q-47 41 -107.5 71t-128.5 30q-92 0 -159.5 -33t-83.5 -127q-2 -14 -3 -26q0 -24 9 -43q12 -28 36.5 -46t57.5 -31.5t65 -25.5q33 -10 60 -21q59 -25 111.5 -48t89 -56t53.5 -78q10 -28 10 -63 q0 -22 -4 -48q-12 -80 -49 -136t-90.5 -91t-122 -50t-144.5 -15q-102 0 -189 39.5t-144 115.5z" />
<glyph unicode="t" horiz-adv-x="712" d="M106 905l15 99h184l47 305h115l-47 -305h272l-14 -99h-272l-105 -661q-3 -19 -3 -36q0 -46 21 -73q29 -37 91 -37q53 0 108 12.5t90 28.5l17 -92q-37 -16 -99.5 -35.5t-132.5 -19.5q-115 0 -170 65q-41 49 -41 129q0 26 4 56l105 663h-185z" />
<glyph unicode="u" horiz-adv-x="1073" d="M139 326l107 678h114l-106 -678q-3 -22 -3 -43q0 -86 56 -135q70 -60 182 -60q53 0 104.5 16.5t94.5 47t74 74.5t39 100l106 678h115l-107 -678q-12 -82 -53 -146.5t-101.5 -109.5t-134 -67.5t-153.5 -22.5q-76 0 -142.5 24.5t-112.5 68.5t-68 108q-15 42 -15 90 q0 27 4 55z" />
<glyph unicode="v" horiz-adv-x="972" d="M131 1004h125l186 -850q109 203 227.5 425t223.5 425h123l-543 -1004h-108z" />
<glyph unicode="w" horiz-adv-x="1345" d="M131 1004h121l88 -854q90 211 180 427t180 427h115l103 -852q86 209 175 426t175 426h121l-439 -1006h-119l-98 821q-86 -199 -179 -410.5t-179 -410.5h-123z" />
<glyph unicode="x" horiz-adv-x="860" d="M-29 0l404 522q-55 117 -113.5 241t-114.5 241h132l178 -390q74 94 151.5 194.5t149.5 195.5h137l-385 -482q59 -129 121.5 -261t122.5 -261h-131l-195 428q-78 -102 -162 -214t-162 -214h-133z" />
<glyph unicode="y" horiz-adv-x="886" d="M-100 -440l10 100q113 2 211 69.5t158 178.5l28 59q-45 250 -91 518.5t-91 518.5h125l145 -889q104 219 213 444t213 445h125l-561 -1123q-80 -162 -205.5 -240.5t-279.5 -80.5z" />
<glyph unicode="z" horiz-adv-x="890" d="M20 0l13 82l661 825h-520l14 97h662l-10 -70l-662 -830h567l-14 -104h-711z" />
<glyph unicode="{" horiz-adv-x="604" d="M132 -26.5q-5 61.5 7 137.5l109 391q-16 23 -32.5 50.5t-33.5 49.5l103 119q0 84 1 171t3 171q12 80 38.5 142.5t67.5 114.5t99.5 98t134.5 95l24 -86q-121 -76 -182 -162.5t-82 -197.5q-4 -90 -5 -182t-5 -183l-78 -96q12 -20 26.5 -40.5t26.5 -41.5l-116 -420 q-10 -117 25.5 -205.5t127.5 -160.5l-51 -86q-68 53 -112 103t-67.5 103.5t-28.5 115z" />
<glyph unicode="|" horiz-adv-x="454" d="M61 -301l265 1694h100l-264 -1694h-101z" />
<glyph unicode="}" horiz-adv-x="614" d="M49 -262q123 72 186.5 161t88.5 205q4 102 8 210t8 210l76 82q-10 23 -23.5 48.5t-23.5 47.5l106 365q12 96 -18.5 186t-137.5 174l52 84q123 -94 175 -195.5t29 -252.5l-104 -342q16 -29 31.5 -59.5t32.5 -59.5l-99 -100q-4 -96 -6 -196.5t-4 -194.5 q-10 -70 -32.5 -130.5t-62.5 -114.5t-101.5 -106.5t-151.5 -107.5z" />
<glyph unicode="~" horiz-adv-x="776" d="M225 1274q47 63 91.5 95t101.5 32q35 0 65.5 -15.5t61.5 -33.5q29 -18 57.5 -32.5t59.5 -14.5q29 2 49 20t41 47l69 -45q-29 -43 -74.5 -85t-103.5 -42q-45 0 -78.5 16.5t-64.5 34.5q-27 16 -52.5 29.5t-54.5 13.5q-35 0 -60.5 -22.5t-41.5 -48.5z" />
<glyph unicode="&#xa1;" horiz-adv-x="487" d="M68 -399l172 956h106l-127 -956h-151zM264 848l25 156h151l-24 -156h-152z" />
<glyph unicode="&#xa2;" horiz-adv-x="933" d="M86 344l49 315q12 76 53 141.5t101.5 115t135.5 77t155 27.5h38q23 68 44.5 138.5t44.5 137.5l102 -16l-88 -272q53 -18 100 -54t76 -84l-88 -75q-35 59 -93.5 89.5t-129.5 30.5q-55 0 -111.5 -20.5t-103.5 -55t-80 -80.5t-41 -100l-49 -315q-18 -121 55.5 -188.5 t200.5 -69.5q66 0 134 21.5t124 68.5l51 -86q-74 -63 -150.5 -88t-164.5 -25q-14 0 -31 1.5t-31 3.5q-20 -63 -41.5 -130t-44.5 -131l-102 17l88 264q-55 18 -97 52t-69 79t-36 99.5t-1 111.5z" />
<glyph unicode="&#xa3;" horiz-adv-x="1081" d="M63 0l15 96q94 2 155.5 28t99.5 69t56.5 101t28.5 124q4 49 7 98t7 98h-305l16 101h295q6 63 10.5 130.5t8.5 131.5q16 102 66 182t127 134.5t176.5 84t211.5 29.5l-16 -109q-86 0 -163 -23.5t-136 -65.5t-98 -101t-52 -131l-8 -131q-4 -66 -10 -131h363l-17 -101h-352 q-4 -45 -6 -85t-4 -64q-2 -16 -2 -27.5t0 -9.5q-14 -100 -49 -182t-119 -137h559l-17 -109h-848z" />
<glyph unicode="&#xa5;" horiz-adv-x="1259" d="M141 338l15 88h409l27 168h-410l15 88h383q-96 174 -194.5 355.5t-192.5 355.5h135l348 -637q133 156 272 319.5t273 317.5h143l-616 -711h397l-15 -88h-423l-27 -168h424l-14 -88h-424l-52 -338h-114l51 338h-410z" />
<glyph unicode="&#xa6;" horiz-adv-x="307" d="M-2 -233l102 671h105l-105 -671h-102zM150 748l104 669h104l-104 -669h-104z" />
<glyph unicode="&#xa7;" horiz-adv-x="1140" d="M70 -256l92 57q12 -37 37.5 -67.5t61.5 -52t80 -34t91 -12.5q53 0 104.5 16.5t93.5 47.5t71.5 75t37.5 101q12 76 -16.5 132t-80.5 99.5t-117.5 77t-127.5 60.5q-55 25 -107 54.5t-90 70.5t-55.5 96t-5.5 133q8 47 31 86t52.5 69.5t64.5 52t65 32.5q-29 49 -34 109.5 t6 113.5q12 88 51 153.5t97 109.5t131 65.5t155 21.5q125 0 213 -53t121 -144l-91 -59q-27 74 -93 114t-163 40q-55 0 -106 -18.5t-93 -51.5t-71 -78t-37 -100q-12 -76 13.5 -130t72.5 -92t105.5 -66t113.5 -52q63 -31 120 -65.5t99 -77.5t61 -95.5t9 -120.5 q-12 -78 -61 -151.5t-154 -114.5q29 -47 38 -104.5t-1 -112.5q-14 -88 -55 -153.5t-101.5 -108.5t-132 -64.5t-147.5 -21.5q-61 0 -117.5 15.5t-102.5 44t-80 67.5t-48 86zM252 596q-8 -51 5 -88t45 -65.5t82 -55.5t118 -57q63 -31 129.5 -69t116.5 -79q31 4 59.5 19.5 t51 37t37.5 48t19 53.5q8 51 -6 90t-47 73t-83 62.5t-113 59.5q-63 29 -125 64.5t-111 76.5q-31 -6 -61.5 -22.5t-55 -40t-41 -51t-20.5 -56.5z" />
<glyph unicode="&#xa8;" horiz-adv-x="673" d="M215 1188l25 149h139l-25 -149h-139zM551 1188l24 149h140l-25 -149h-139z" />
<glyph unicode="&#xa9;" horiz-adv-x="1585" d="M143 715q25 156 97.5 287t180 227t243 150.5t284.5 54.5q139 0 256 -56.5t196 -154t113.5 -228.5t12.5 -280q-25 -156 -97.5 -288t-180 -227.5t-242 -148.5t-283.5 -53q-141 0 -259 56.5t-197 152.5t-113 227t-11 281zM238 713q-20 -135 6 -249t92.5 -197t169 -130 t233.5 -47q121 0 238 49t211 133t159.5 198t86.5 243q20 135 -6.5 249.5t-93 198.5t-169 131t-231.5 47q-123 0 -239.5 -49t-212 -134t-160 -199.5t-84.5 -243.5zM467 645l16 107q12 72 50 133t94.5 105t127 68.5t148.5 24.5q88 0 161 -31.5t118 -103.5l-74 -74 q-33 51 -94.5 79t-126.5 28q-51 0 -101.5 -18.5t-90.5 -49t-67.5 -72.5t-35.5 -89l-17 -107q-16 -111 50.5 -170t179.5 -61q61 0 133 23.5t123 68.5l43 -80q-66 -57 -150 -86t-170 -29q-76 0 -140 24.5t-107 69t-62.5 105.5t-7.5 135z" />
<glyph unicode="&#xaa;" horiz-adv-x="671" d="M182 961l23 141l366 53l7 39q12 78 -20 101.5t-89 23.5q-39 0 -89 -17.5t-77 -31.5l-24 86q39 18 96 35.5t110 21.5q102 0 157.5 -47t39.5 -158l-66 -420h-81l-5 62q-35 -31 -81 -48.5t-91 -17.5q-88 0 -137 52.5t-39 124.5zM285 956q-6 -33 24.5 -55t77.5 -22 q23 0 47.5 6t46 16t38 25.5t18.5 34.5l16 112q-61 -10 -127 -18t-129 -19z" />
<glyph unicode="&#xab;" horiz-adv-x="903" d="M86 350l367 367l51 -68l-277 -295q45 -70 93.5 -144.5t93.5 -143.5l-74 -70zM418 350l364 367l52 -68l-275 -295q45 -70 92 -144.5t92 -143.5l-73 -70z" />
<glyph unicode="&#xac;" horiz-adv-x="874" d="M121 573l16 103h672l-47 -301h-100l30 198h-571z" />
<glyph unicode="&#xad;" horiz-adv-x="645" d="M115 524l16 109h442l-16 -109h-442z" />
<glyph unicode="&#xae;" horiz-adv-x="1585" d="M143 715q25 156 96.5 288t179 227t243 148.5t286.5 53.5q141 0 258 -56.5t196 -153t113.5 -227.5t10.5 -280q-25 -156 -97.5 -288t-179 -227.5t-242 -148.5t-284.5 -53q-143 0 -260 55.5t-196 152.5t-114 228t-10 281zM238 713q-20 -135 5 -249t91.5 -197t170 -130 t234.5 -47q123 0 239 48t211 133t159.5 199t85.5 243q23 135 -4 250.5t-93.5 198.5t-169 130t-233.5 47q-123 0 -239.5 -49t-211 -134t-160 -198.5t-85.5 -244.5zM524 319l123 789h316q45 0 83.5 -16.5t65.5 -46t39 -68.5t6 -86l-8 -41q-10 -78 -70.5 -130t-140.5 -69 q37 -82 74 -166t73 -166h-120l-140 324h-149l-51 -324h-101zM688 731h205q55 2 102 34t56 85l4 39q10 55 -25 91t-94 36h-203z" />
<glyph unicode="&#xaf;" horiz-adv-x="917" d="M233 1305l15 86h719l-15 -86h-719z" />
<glyph unicode="&#xb0;" horiz-adv-x="714" d="M209 1135l10 61q8 49 34 89t64.5 68.5t88 44t100.5 15.5t95 -16.5t75 -46t46 -68.5t9 -86l-10 -61q-8 -49 -35 -90t-65.5 -69t-88 -43t-100.5 -15t-95 16t-75 46t-45 70t-8 85zM311 1130q-8 -53 33 -85.5t102 -32.5q59 0 110.5 33.5t59.5 84.5l11 70q10 53 -32 86 t-101 33q-31 0 -59.5 -9.5t-52.5 -25.5t-40 -37.5t-20 -46.5z" />
<glyph unicode="&#xb1;" horiz-adv-x="1067" d="M33 0l14 100h864l-14 -100h-864zM139 629l17 104h358l53 352h111l-53 -352h364l-16 -104h-365l-59 -377h-111l60 377h-359z" />
<glyph unicode="&#xb2;" horiz-adv-x="968" d="M240 682l12 78q8 57 37.5 101t73 78t95.5 59.5t105 45.5q35 14 69 30t62.5 34t48 40.5t23.5 51.5t2 50.5t-17.5 37t-45 22.5t-80.5 7q-121 0 -215 -107l-56 68q53 66 127 100.5t160 34.5q139 0 191.5 -59.5t35.5 -151.5q-6 -45 -28.5 -80t-55 -61.5t-71.5 -46t-80 -37.5 l-31 -12q-41 -18 -81 -37t-71.5 -40.5t-54 -49t-30.5 -62.5h436l-15 -94h-546z" />
<glyph unicode="&#xb3;" horiz-adv-x="692" d="M158 862l90 23q-4 -59 45 -87t119 -28q31 0 61.5 5t57 16.5t46 29t23.5 43.5l4 31q4 31 -7 53.5t-32.5 39t-49.5 24.5t-58 8h-127l14 90h115q29 0 59.5 5t57 18.5t45 35t24.5 52.5l2 16q6 35 -5 56.5t-31.5 32.5t-48 14t-58.5 3q-68 0 -126.5 -31.5t-74.5 -84.5l-78 22 q12 41 41 76t69 59.5t87 39t96 14.5q51 0 97.5 -9.5t80 -32t50 -60.5t6.5 -95l-2 -14q-6 -43 -24.5 -72t-41 -47t-49.5 -28.5t-51 -16.5q23 -6 47 -16.5t42.5 -31t29 -49t4.5 -71.5l-7 -33q-8 -51 -35.5 -87t-68.5 -57.5t-92 -31.5t-105 -10q-49 0 -94 12t-77.5 37t-52 59.5 t-17.5 77.5z" />
<glyph unicode="&#xb4;" horiz-adv-x="477" d="M211 1153l233 287l78 -66l-243 -270z" />
<glyph unicode="&#xb6;" horiz-adv-x="1009" d="M195 1038l10 70q20 125 111.5 204t238.5 81h422l-217 -1393h-96l204 1311h-166l-204 -1311h-97l119 770h-63q-66 0 -118 18.5t-88 52t-51 84t-5 113.5z" />
<glyph unicode="&#xb7;" horiz-adv-x="368" d="M135 408l28 195h181l-29 -195h-180z" />
<glyph unicode="&#xb8;" horiz-adv-x="446" d="M-33 -442q18 6 44 18t49.5 27.5t42 37t22.5 46.5q6 45 -8.5 71.5t-38 41t-46 19.5t-30.5 7l68 174h102l-49 -113q8 -4 28.5 -15t41 -33.5t34 -56.5t4.5 -83q-14 -84 -79.5 -135t-161.5 -78z" />
<glyph unicode="&#xb9;" horiz-adv-x="530" d="M195 1286l16 107h328l-111 -703h-104l94 596h-223z" />
<glyph unicode="&#xba;" horiz-adv-x="714" d="M188 1008l31 192q8 47 35 87t65.5 67.5t88 43t100.5 15.5t95 -16.5t75 -46t45 -68.5t8 -84l-31 -194q-8 -49 -34.5 -89.5t-65.5 -68t-88 -41.5t-100 -14t-95.5 16t-75 45t-45 69t-8.5 87zM295 1010q-6 -57 28.5 -91t102.5 -34q59 0 109.5 32.5t58.5 86.5l31 196 q8 57 -33 87t-98 30q-59 0 -109.5 -32t-60.5 -85z" />
<glyph unicode="&#xbb;" horiz-adv-x="890" d="M20 68l273 288q-47 72 -91 148t-91 147l71 68l252 -367l-366 -354zM350 68l275 288l-92.5 148t-92.5 147l72 68l252 -367l-365 -354z" />
<glyph unicode="&#xbc;" horiz-adv-x="1351" d="M195 1286l16 107h328l-111 -703h-104l94 596h-223zM58 0l1071 1393h118l-1064 -1393h-125zM618 211l12 74l377 449h158l-70 -439h150l-12 -84h-150l-33 -206h-100l33 206h-365zM743 295h252l57 359h-12q-74 -88 -148.5 -179.5t-148.5 -179.5z" />
<glyph unicode="&#xbd;" horiz-adv-x="1335" d="M195 1286l16 107h328l-111 -703h-104l94 596h-223zM29 0l1071 1393h118l-1064 -1393h-125zM627 4l12 78q8 57 37.5 101t73 78t95.5 59.5t105 45.5q35 14 69 30t62.5 34t48 40.5t23.5 51.5t2 50.5t-17.5 37t-45 22.5t-80.5 7q-121 0 -215 -107l-56 68q53 66 127 100.5 t160 34.5q139 0 191.5 -59.5t35.5 -151.5q-6 -45 -28.5 -80t-55 -61.5t-71.5 -46t-80 -37.5l-31 -12q-41 -18 -81 -37t-71.5 -40.5t-54 -49t-30.5 -62.5h436l-15 -94h-546z" />
<glyph unicode="&#xbe;" horiz-adv-x="1406" d="M138 862l90 23q-4 -59 45 -87t119 -28q31 0 61.5 5t57 16.5t46 29t23.5 43.5l4 31q4 31 -7 53.5t-32.5 39t-49.5 24.5t-58 8h-127l14 90h115q29 0 59.5 5t57 18.5t45 35t24.5 52.5l2 16q6 35 -5 56.5t-31.5 32.5t-48 14t-58.5 3q-68 0 -126.5 -31.5t-74.5 -84.5l-78 22 q12 41 41 76t69 59.5t87 39t96 14.5q51 0 97.5 -9.5t80 -32t50 -60.5t6.5 -95l-2 -14q-6 -43 -24.5 -72t-41 -47t-49.5 -28.5t-51 -16.5q23 -6 47 -16.5t42.5 -31t29 -49t4.5 -71.5l-7 -33q-8 -51 -35.5 -87t-68.5 -57.5t-92 -31.5t-105 -10q-49 0 -94 12t-77.5 37t-52 59.5 t-17.5 77.5zM185 0l1071 1393h118l-1064 -1393h-125zM696 208l12 74l377 449h158l-70 -439h150l-12 -84h-150l-33 -206h-100l33 206h-365zM821 292h252l57 359h-12q-74 -88 -148.5 -179.5t-148.5 -179.5z" />
<glyph unicode="&#xbf;" horiz-adv-x="770" d="M0 -162l23 144q10 70 61 120t113 97q68 53 124 113.5t68 144.5l23 135h114l-26 -168q-6 -43 -26.5 -81t-49.5 -71.5t-63.5 -63.5t-71.5 -58q-53 -43 -99.5 -85t-54.5 -96l-20 -127q-8 -59 5 -95t38.5 -55.5t60.5 -26.5t68 -7q61 0 134 38t130 83l41 -84 q-59 -53 -143 -98.5t-179 -45.5q-311 0 -270 287zM403 807l31 197h187l-31 -197h-187z" />
<glyph unicode="&#xc0;" d="M-23 0l725 1411h121l275 -1411h-123l-90 459h-545q-59 -111 -119.5 -229.5t-118.5 -229.5h-125zM391 563h473q-33 172 -63.5 345t-63.5 345q-86 -172 -173 -345t-173 -345zM658 1802l100 68l133 -293l-73 -49z" />
<glyph unicode="&#xc1;" d="M-23 0l725 1411h121l275 -1411h-123l-90 459h-545q-59 -111 -119.5 -229.5t-118.5 -229.5h-125zM391 563h473q-33 172 -63.5 345t-63.5 345q-86 -172 -173 -345t-173 -345zM746 1583l233 287l78 -66l-243 -270z" />
<glyph unicode="&#xc2;" d="M-23 0l725 1411h121l275 -1411h-123l-90 459h-545q-59 -111 -119.5 -229.5t-118.5 -229.5h-125zM391 563h473q-33 172 -63.5 345t-63.5 345q-86 -172 -173 -345t-173 -345zM579 1591l271 172l215 -174l-64 -72l-168 129l-211 -127z" />
<glyph unicode="&#xc3;" d="M-23 0l725 1411h121l275 -1411h-123l-90 459h-545q-59 -111 -119.5 -229.5t-118.5 -229.5h-125zM391 563h473q-33 172 -63.5 345t-63.5 345q-86 -172 -173 -345t-173 -345zM534 1622q47 63 91.5 95t101.5 32q35 0 65.5 -15.5t61.5 -33.5q29 -18 57.5 -32.5t59.5 -14.5 q29 2 49 20t41 47l69 -45q-29 -43 -74.5 -85t-103.5 -42q-45 0 -78.5 16.5t-64.5 34.5q-27 16 -52.5 29.5t-54.5 13.5q-35 0 -60.5 -22.5t-41.5 -48.5z" />
<glyph unicode="&#xc4;" d="M-23 0l725 1411h121l275 -1411h-123l-90 459h-545q-59 -111 -119.5 -229.5t-118.5 -229.5h-125zM391 563h473q-33 172 -63.5 345t-63.5 345q-86 -172 -173 -345t-173 -345zM577 1534l25 149h139l-25 -149h-139zM913 1534l24 149h140l-25 -149h-139z" />
<glyph unicode="&#xc5;" d="M-23 0l725 1411h121l275 -1411h-123l-90 459h-545q-59 -111 -119.5 -229.5t-118.5 -229.5h-125zM391 563h473q-33 172 -63.5 345t-63.5 345q-86 -172 -173 -345t-173 -345zM684 1691q6 37 23.5 66t42 49.5t55 31.5t61.5 11q63 0 105.5 -45t31.5 -113q-12 -72 -66 -115.5 t-120 -43.5q-63 0 -103 46.5t-30 112.5zM762 1687q-6 -39 14.5 -59t52.5 -20q31 0 60.5 22.5t36.5 56.5q6 41 -15.5 64.5t-54.5 23.5t-61.5 -25.5t-32.5 -62.5z" />
<glyph unicode="&#xc6;" horiz-adv-x="1765" d="M-29 0l1069 1393h742l-17 -109h-569l-80 -508h479l-16 -104h-479l-88 -563h618l-16 -109h-733l63 408h-520q-76 -96 -162 -204t-158 -204h-133zM498 512h463l118 768q-141 -188 -290.5 -384t-290.5 -384z" />
<glyph unicode="&#xc7;" horiz-adv-x="1083" d="M113 403l92 584q16 102 66.5 181t123 133.5t163.5 83t190 28.5q129 0 230 -45t163 -131l-84 -84q-51 72 -135 112t-191 40q-72 0 -140.5 -22.5t-124.5 -63.5t-94 -100.5t-50 -131.5l-93 -584q-5 -34 -5 -64q0 -43 10 -78q17 -60 60.5 -98t107 -56.5t141.5 -18.5 q100 0 200.5 29.5t178.5 91.5l45 -88q-98 -78 -208 -109.5t-233 -31.5q-100 0 -183 28.5t-139.5 81.5t-80.5 133q-16 50 -16 109q1 34 6 71zM373 -442q18 6 44 18t49.5 27.5t42 37t22.5 46.5q6 45 -8.5 71.5t-38 41t-46 19.5t-30.5 7l68 174h102l-49 -113q8 -4 28.5 -15 t41 -33.5t34 -56.5t4.5 -83q-14 -84 -79.5 -135t-161.5 -78z" />
<glyph unicode="&#xc8;" horiz-adv-x="1013" d="M109 0l217 1393h686l-17 -109h-571l-82 -516h481l-16 -106h-481l-86 -553h620l-16 -109h-735zM590 1786l100 68l133 -293l-73 -49z" />
<glyph unicode="&#xc9;" horiz-adv-x="1013" d="M109 0l217 1393h686l-17 -109h-571l-82 -516h481l-16 -106h-481l-86 -553h620l-16 -109h-735zM680 1583l233 287l78 -66l-243 -270z" />
<glyph unicode="&#xca;" horiz-adv-x="1013" d="M109 0l217 1393h686l-17 -109h-571l-82 -516h481l-16 -106h-481l-86 -553h620l-16 -109h-735zM514 1591l271 172l215 -174l-64 -72l-168 129l-211 -127z" />
<glyph unicode="&#xcb;" horiz-adv-x="1013" d="M109 0l217 1393h686l-17 -109h-571l-82 -516h481l-16 -106h-481l-86 -553h620l-16 -109h-735zM512 1534l25 149h139l-25 -149h-139zM848 1534l24 149h140l-25 -149h-139z" />
<glyph unicode="&#xcc;" horiz-adv-x="569" d="M176 0l217 1393h114l-217 -1393h-114zM348 1806l100 68l133 -293l-73 -49z" />
<glyph unicode="&#xcd;" horiz-adv-x="569" d="M164 0l217 1393h114l-217 -1393h-114zM422 1583l233 287l78 -66l-243 -270z" />
<glyph unicode="&#xce;" horiz-adv-x="569" d="M168 0l217 1393h114l-217 -1393h-114zM262 1593l271 172l215 -174l-64 -72l-168 129l-211 -127z" />
<glyph unicode="&#xcf;" horiz-adv-x="569" d="M170 0l217 1393h114l-217 -1393h-114zM260 1530l25 149h139l-25 -149h-139zM596 1530l24 149h140l-25 -149h-139z" />
<glyph unicode="&#xd0;" horiz-adv-x="1339" d="M84 655l14 101h279l100 643h397q100 0 187.5 -32t150 -89t93 -134t16.5 -167l-86 -555q-16 -100 -68.5 -179t-130.5 -133.5t-176 -82t-205 -27.5h-395l102 655h-278zM393 109h279q80 0 155.5 22.5t137 64.5t102.5 99t53 127l86 555q12 72 -12.5 129t-73.5 98t-116.5 63.5 t-145.5 22.5h-280l-84 -534h303l-15 -101h-303z" />
<glyph unicode="&#xd1;" horiz-adv-x="1413" d="M109 0l217 1393h151l602 -1243l195 1243h108l-217 -1393h-151l-604 1243l-193 -1243h-108zM628 1602q47 63 91.5 95t101.5 32q35 0 65.5 -15.5t61.5 -33.5q29 -18 57.5 -32.5t59.5 -14.5q29 2 49 20t41 47l69 -45q-29 -43 -74.5 -85t-103.5 -42q-45 0 -78.5 16.5 t-64.5 34.5q-27 16 -52.5 29.5t-54.5 13.5q-35 0 -60.5 -22.5t-41.5 -48.5z" />
<glyph unicode="&#xd2;" horiz-adv-x="1298" d="M113 406l92 577q16 102 70.5 182t134 135.5t177 84t197.5 28.5h33q92 0 179 -29.5t150.5 -86t97.5 -136.5q23 -54 23 -116q0 -30 -5 -62l-93 -577q-16 -106 -69 -187.5t-132 -133.5t-175.5 -78.5t-198.5 -26.5h-31q-98 0 -187 27.5t-152.5 81.5t-95.5 133q-21 52 -21 115 q0 33 6 69zM229 406q-4 -28 -4 -54q0 -49 16 -88q24 -59 72.5 -98t117.5 -58.5t149 -19.5h30q74 0 147.5 20.5t136 60.5t105.5 99.5t56 137.5l92 577q4 25 4 47q0 48 -17 88q-26 59 -75 101.5t-117 64t-141 21.5h-33q-72 0 -145.5 -22.5t-137 -64.5t-107.5 -101.5 t-56 -133.5zM696 1806l100 68l133 -293l-73 -49z" />
<glyph unicode="&#xd3;" horiz-adv-x="1298" d="M113 406l92 577q16 102 70.5 182t134 135.5t177 84t197.5 28.5h33q92 0 179 -29.5t150.5 -86t97.5 -136.5q23 -54 23 -116q0 -30 -5 -62l-93 -577q-16 -106 -69 -187.5t-132 -133.5t-175.5 -78.5t-198.5 -26.5h-31q-98 0 -187 27.5t-152.5 81.5t-95.5 133q-21 52 -21 115 q0 33 6 69zM229 406q-4 -28 -4 -54q0 -49 16 -88q24 -59 72.5 -98t117.5 -58.5t149 -19.5h30q74 0 147.5 20.5t136 60.5t105.5 99.5t56 137.5l92 577q4 25 4 47q0 48 -17 88q-26 59 -75 101.5t-117 64t-141 21.5h-33q-72 0 -145.5 -22.5t-137 -64.5t-107.5 -101.5 t-56 -133.5zM786 1583l233 287l78 -66l-243 -270z" />
<glyph unicode="&#xd4;" horiz-adv-x="1298" d="M113 406l92 577q16 102 70.5 182t134 135.5t177 84t197.5 28.5h33q92 0 179 -29.5t150.5 -86t97.5 -136.5q23 -54 23 -116q0 -30 -5 -62l-93 -577q-16 -106 -69 -187.5t-132 -133.5t-175.5 -78.5t-198.5 -26.5h-31q-98 0 -187 27.5t-152.5 81.5t-95.5 133q-21 52 -21 115 q0 33 6 69zM229 406q-4 -28 -4 -54q0 -49 16 -88q24 -59 72.5 -98t117.5 -58.5t149 -19.5h30q74 0 147.5 20.5t136 60.5t105.5 99.5t56 137.5l92 577q4 25 4 47q0 48 -17 88q-26 59 -75 101.5t-117 64t-141 21.5h-33q-72 0 -145.5 -22.5t-137 -64.5t-107.5 -101.5 t-56 -133.5zM622 1612l271 172l215 -174l-64 -72l-168 129l-211 -127z" />
<glyph unicode="&#xd5;" horiz-adv-x="1298" d="M113 406l92 577q16 102 70.5 182t134 135.5t177 84t197.5 28.5h33q92 0 179 -29.5t150.5 -86t97.5 -136.5q23 -54 23 -116q0 -30 -5 -62l-93 -577q-16 -106 -69 -187.5t-132 -133.5t-175.5 -78.5t-198.5 -26.5h-31q-98 0 -187 27.5t-152.5 81.5t-95.5 133q-21 52 -21 115 q0 33 6 69zM229 406q-4 -28 -4 -54q0 -49 16 -88q24 -59 72.5 -98t117.5 -58.5t149 -19.5h30q74 0 147.5 20.5t136 60.5t105.5 99.5t56 137.5l92 577q4 25 4 47q0 48 -17 88q-26 59 -75 101.5t-117 64t-141 21.5h-33q-72 0 -145.5 -22.5t-137 -64.5t-107.5 -101.5 t-56 -133.5zM575 1622q47 63 91.5 95t101.5 32q35 0 65.5 -15.5t61.5 -33.5q29 -18 57.5 -32.5t59.5 -14.5q29 2 49 20t41 47l69 -45q-29 -43 -74.5 -85t-103.5 -42q-45 0 -78.5 16.5t-64.5 34.5q-27 16 -52.5 29.5t-54.5 13.5q-35 0 -60.5 -22.5t-41.5 -48.5z" />
<glyph unicode="&#xd6;" horiz-adv-x="1298" d="M113 406l92 577q16 102 70.5 182t134 135.5t177 84t197.5 28.5h33q92 0 179 -29.5t150.5 -86t97.5 -136.5q23 -54 23 -116q0 -30 -5 -62l-93 -577q-16 -106 -69 -187.5t-132 -133.5t-175.5 -78.5t-198.5 -26.5h-31q-98 0 -187 27.5t-152.5 81.5t-95.5 133q-21 52 -21 115 q0 33 6 69zM229 406q-4 -28 -4 -54q0 -49 16 -88q24 -59 72.5 -98t117.5 -58.5t149 -19.5h30q74 0 147.5 20.5t136 60.5t105.5 99.5t56 137.5l92 577q4 25 4 47q0 48 -17 88q-26 59 -75 101.5t-117 64t-141 21.5h-33q-72 0 -145.5 -22.5t-137 -64.5t-107.5 -101.5 t-56 -133.5zM616 1534l25 149h139l-25 -149h-139zM952 1534l24 149h140l-25 -149h-139z" />
<glyph unicode="&#xd7;" horiz-adv-x="1067" d="M33 0l450 518q-66 119 -136.5 243t-135.5 243h117l229 -400q88 98 178 199.5t178 200.5h117l-424 -486q72 -127 145.5 -259t145.5 -259h-125l-242 434q-92 -106 -188 -217t-188 -217h-121z" />
<glyph unicode="&#xd8;" horiz-adv-x="1253" d="M113 406l92 577q16 102 70.5 182t134 135.5t177 84t197.5 28.5h33q53 0 108.5 -10t102.5 -29l111 185h102l-135 -228q78 -55 125 -146t31 -202l-93 -577q-16 -106 -69 -187.5t-132 -133.5t-175.5 -78.5t-198.5 -26.5h-31q-117 0 -215 34q-23 -41 -49.5 -84t-48.5 -84 h-107l121 209q-82 53 -125.5 142.5t-25.5 208.5zM229 406q-12 -82 19 -143.5t82 -100.5q154 272 318.5 555.5t320.5 554.5q-82 33 -168 33h-33q-72 0 -145.5 -22.5t-137 -64.5t-107.5 -101.5t-56 -133.5zM406 117q39 -16 82.5 -22.5t91.5 -6.5h30q74 0 147.5 20.5t136 60.5 t105.5 99.5t56 137.5l92 577q10 74 -21.5 135.5t-83.5 102.5q-156 -270 -318 -552t-318 -552z" />
<glyph unicode="&#xd9;" horiz-adv-x="1368" d="M172 412l154 981h116l-153 -981q-6 -34 -6 -65q0 -47 14 -85q23 -61 70 -100t115.5 -56.5t148.5 -17.5q72 0 144.5 21.5t133 62.5t103.5 101.5t55 138.5l154 981h116l-153 -981q-18 -113 -69.5 -195t-128.5 -135t-172 -77.5t-200 -24.5q-104 0 -192 27.5t-149.5 80.5 t-89.5 135q-17 51 -17 113q0 36 6 76zM721 1745l100 68l133 -293l-73 -49z" />
<glyph unicode="&#xda;" horiz-adv-x="1368" d="M172 412l154 981h116l-153 -981q-6 -34 -6 -65q0 -47 14 -85q23 -61 70 -100t115.5 -56.5t148.5 -17.5q72 0 144.5 21.5t133 62.5t103.5 101.5t55 138.5l154 981h116l-153 -981q-18 -113 -69.5 -195t-128.5 -135t-172 -77.5t-200 -24.5q-104 0 -192 27.5t-149.5 80.5 t-89.5 135q-17 51 -17 113q0 36 6 76zM809 1522l233 287l78 -66l-243 -270z" />
<glyph unicode="&#xdb;" horiz-adv-x="1368" d="M172 412l154 981h116l-153 -981q-6 -34 -6 -65q0 -47 14 -85q23 -61 70 -100t115.5 -56.5t148.5 -17.5q72 0 144.5 21.5t133 62.5t103.5 101.5t55 138.5l154 981h116l-153 -981q-18 -113 -69.5 -195t-128.5 -135t-172 -77.5t-200 -24.5q-104 0 -192 27.5t-149.5 80.5 t-89.5 135q-17 51 -17 113q0 36 6 76zM653 1597l271 172l215 -174l-64 -72l-168 129l-211 -127z" />
<glyph unicode="&#xdc;" horiz-adv-x="1368" d="M172 412l154 981h116l-153 -981q-6 -34 -6 -65q0 -47 14 -85q23 -61 70 -100t115.5 -56.5t148.5 -17.5q72 0 144.5 21.5t133 62.5t103.5 101.5t55 138.5l154 981h116l-153 -981q-18 -113 -69.5 -195t-128.5 -135t-172 -77.5t-200 -24.5q-104 0 -192 27.5t-149.5 80.5 t-89.5 135q-17 51 -17 113q0 36 6 76zM649 1536l25 149h139l-25 -149h-139zM985 1536l24 149h140l-25 -149h-139z" />
<glyph unicode="&#xdd;" horiz-adv-x="1243" d="M193 1393h135l319 -711q133 174 272.5 355.5t274.5 355.5h133l-643 -830l-88 -563h-115l88 563q-92 201 -188 415t-188 415zM743 1524l233 287l78 -66l-243 -270z" />
<glyph unicode="&#xde;" horiz-adv-x="987" d="M31 -2l219 1395h115l-46 -283h322q76 0 135.5 -27.5t98 -74.5t55 -110.5t6.5 -137.5l-8 -43q-23 -154 -129.5 -238t-268.5 -84h-321l-64 -397h-114zM225 504h320q104 0 179 61.5t89 151.5l8 43q6 47 -3 91t-33.5 78t-65.5 54.5t-96 20.5h-320z" />
<glyph unicode="&#xdf;" horiz-adv-x="1239" d="M137 0l142 907h-105l14 97h105l35 215q10 72 42.5 127t82 93t110 58.5t125.5 20.5q39 0 88 -10.5t88 -26.5l-51 -99q-29 12 -65.5 20.5t-65.5 8.5q-98 0 -164.5 -52t-83.5 -157l-31 -198h762l-14 -91l-315 -319h75q61 0 102.5 -20.5t65 -53.5t30.5 -75t1 -83l-25 -155 q-8 -51 -36.5 -92t-72.5 -70t-98.5 -45t-111.5 -16q-98 0 -170 43t-92 114l90 54q10 -47 61.5 -79t120.5 -32q72 0 131.5 34t69.5 97l20 137q10 68 -19.5 108t-107.5 40h-188l14 92l312 313h-615l-141 -905h-115z" />
<glyph unicode="&#xe0;" horiz-adv-x="983" d="M76 272l32 207l646 113l14 98q5 33 5 61q0 73 -35 112q-48 54 -163 55q-43 0 -91 -10.5t-94 -26t-86 -33t-64 -31.5l-27 90q31 18 77 39t98 38t106.5 28.5t103.5 11.5q154 0 231 -87q59 -66 60 -174q0 -34 -6 -73l-107 -690h-104l12 137q-66 -84 -151 -119.5t-177 -35.5 q-66 0 -122 19t-95 56t-56 91q-11 34 -11 75q0 23 4 49zM195 276q-3 -20 -4 -37q0 -26 8 -46q12 -35 39.5 -58.5t67.5 -35t85 -11.5q47 0 99.5 16.5t98.5 47t78.5 73.5t41.5 94l26 175q-123 -23 -261 -46.5t-261 -46.5zM416 1399l100 68l133 -293l-73 -49z" />
<glyph unicode="&#xe1;" horiz-adv-x="983" d="M76 272l32 207l646 113l14 98q5 33 5 61q0 73 -35 112q-48 54 -163 55q-43 0 -91 -10.5t-94 -26t-86 -33t-64 -31.5l-27 90q31 18 77 39t98 38t106.5 28.5t103.5 11.5q154 0 231 -87q59 -66 60 -174q0 -34 -6 -73l-107 -690h-104l12 137q-66 -84 -151 -119.5t-177 -35.5 q-66 0 -122 19t-95 56t-56 91q-11 34 -11 75q0 23 4 49zM195 276q-3 -20 -4 -37q0 -26 8 -46q12 -35 39.5 -58.5t67.5 -35t85 -11.5q47 0 99.5 16.5t98.5 47t78.5 73.5t41.5 94l26 175q-123 -23 -261 -46.5t-261 -46.5zM506 1173l233 287l78 -66l-243 -270z" />
<glyph unicode="&#xe2;" horiz-adv-x="983" d="M76 272l32 207l646 113l14 98q5 33 5 61q0 73 -35 112q-48 54 -163 55q-43 0 -91 -10.5t-94 -26t-86 -33t-64 -31.5l-27 90q31 18 77 39t98 38t106.5 28.5t103.5 11.5q154 0 231 -87q59 -66 60 -174q0 -34 -6 -73l-107 -690h-104l12 137q-66 -84 -151 -119.5t-177 -35.5 q-66 0 -122 19t-95 56t-56 91q-11 34 -11 75q0 23 4 49zM195 276q-3 -20 -4 -37q0 -26 8 -46q12 -35 39.5 -58.5t67.5 -35t85 -11.5q47 0 99.5 16.5t98.5 47t78.5 73.5t41.5 94l26 175q-123 -23 -261 -46.5t-261 -46.5zM346 1227l271 172l215 -174l-64 -72l-168 129 l-211 -127z" />
<glyph unicode="&#xe3;" horiz-adv-x="983" d="M76 272l32 207l646 113l14 98q5 33 5 61q0 73 -35 112q-48 54 -163 55q-43 0 -91 -10.5t-94 -26t-86 -33t-64 -31.5l-27 90q31 18 77 39t98 38t106.5 28.5t103.5 11.5q154 0 231 -87q59 -66 60 -174q0 -34 -6 -73l-107 -690h-104l12 137q-66 -84 -151 -119.5t-177 -35.5 q-66 0 -122 19t-95 56t-56 91q-11 34 -11 75q0 23 4 49zM195 276q-3 -20 -4 -37q0 -26 8 -46q12 -35 39.5 -58.5t67.5 -35t85 -11.5q47 0 99.5 16.5t98.5 47t78.5 73.5t41.5 94l26 175q-123 -23 -261 -46.5t-261 -46.5zM305 1274q47 63 91.5 95t101.5 32q35 0 65.5 -15.5 t61.5 -33.5q29 -18 57.5 -32.5t59.5 -14.5q29 2 49 20t41 47l69 -45q-29 -43 -74.5 -85t-103.5 -42q-45 0 -78.5 16.5t-64.5 34.5q-27 16 -52.5 29.5t-54.5 13.5q-35 0 -60.5 -22.5t-41.5 -48.5z" />
<glyph unicode="&#xe4;" horiz-adv-x="983" d="M76 272l32 207l646 113l14 98q5 33 5 61q0 73 -35 112q-48 54 -163 55q-43 0 -91 -10.5t-94 -26t-86 -33t-64 -31.5l-27 90q31 18 77 39t98 38t106.5 28.5t103.5 11.5q154 0 231 -87q59 -66 60 -174q0 -34 -6 -73l-107 -690h-104l12 137q-66 -84 -151 -119.5t-177 -35.5 q-66 0 -122 19t-95 56t-56 91q-11 34 -11 75q0 23 4 49zM195 276q-3 -20 -4 -37q0 -26 8 -46q12 -35 39.5 -58.5t67.5 -35t85 -11.5q47 0 99.5 16.5t98.5 47t78.5 73.5t41.5 94l26 175q-123 -23 -261 -46.5t-261 -46.5zM342 1170l25 149h139l-25 -149h-139zM678 1170l24 149 h140l-25 -149h-139z" />
<glyph unicode="&#xe5;" horiz-adv-x="983" d="M76 272l32 207l646 113l14 98q5 33 5 61q0 73 -35 112q-48 54 -163 55q-43 0 -91 -10.5t-94 -26t-86 -33t-64 -31.5l-27 90q31 18 77 39t98 38t106.5 28.5t103.5 11.5q154 0 231 -87q59 -66 60 -174q0 -34 -6 -73l-107 -690h-104l12 137q-66 -84 -151 -119.5t-177 -35.5 q-66 0 -122 19t-95 56t-56 91q-11 34 -11 75q0 23 4 49zM195 276q-3 -20 -4 -37q0 -26 8 -46q12 -35 39.5 -58.5t67.5 -35t85 -11.5q47 0 99.5 16.5t98.5 47t78.5 73.5t41.5 94l26 175q-123 -23 -261 -46.5t-261 -46.5zM447 1300q6 37 23.5 66t42 49.5t55 31.5t61.5 11 q63 0 105.5 -45t31.5 -113q-12 -72 -66 -115.5t-120 -43.5q-63 0 -103 46.5t-30 112.5zM525 1296q-6 -39 14.5 -59t52.5 -20q31 0 60.5 22.5t36.5 56.5q6 41 -15.5 64.5t-54.5 23.5t-61.5 -25.5t-32.5 -62.5z" />
<glyph unicode="&#xe6;" horiz-adv-x="1609" d="M76 276l30 205l642 90l18 121q18 119 -30 173.5t-163 54.5q-39 0 -87 -10.5t-94 -26t-87 -32.5t-65 -32l-29 92q33 20 78 41t96 37.5t105.5 26.5t103.5 10q100 0 171 -47t93 -123q59 76 152.5 124t203.5 48q78 0 141.5 -23.5t107.5 -67.5t63.5 -108.5t7.5 -146.5 l-18 -117l-670 -82l-23 -143q-10 -66 9.5 -113t58.5 -77.5t94 -45t119 -14.5q47 0 93 9.5t86 23.5t73 31.5t53 31.5l47 -80q-80 -61 -179 -91.5t-194 -30.5q-121 0 -219 47t-135 139q-72 -98 -175 -142t-198 -44q-66 0 -122 19.5t-95 57t-56 91.5t-7 124zM193 279 q-8 -49 4 -85t39.5 -59.5t67.5 -35t85 -11.5q49 0 101.5 12.5t97.5 39t77.5 65.5t41.5 90l28 182q-127 -16 -262 -34.5t-260 -34.5zM862 580q131 16 273.5 31.5t275.5 31.5l8 55q16 115 -47 169.5t-174 54.5q-55 0 -109.5 -19.5t-98.5 -53.5t-74.5 -78t-38.5 -93z" />
<glyph unicode="&#xe7;" horiz-adv-x="892" d="M82 324l55 352q12 82 52 146.5t97.5 109.5t131.5 68.5t153 23.5q98 0 174 -33t129 -108l-86 -82q-41 53 -102 83.5t-133 30.5q-51 0 -102.5 -16t-92.5 -48t-69.5 -76t-36.5 -99l-55 -352q-4 -27 -4 -51q0 -85 52 -129q67 -56 185 -56q66 0 133.5 20.5t136.5 73.5l45 -90 q-86 -68 -163.5 -90t-169.5 -22q-80 0 -146.5 21.5t-111.5 64.5t-65 107q-12 40 -12 87q0 31 5 64zM248 -413q18 6 44 18t49.5 27.5t42 37t22.5 46.5q6 45 -8.5 71.5t-38 41t-46 19.5t-30.5 7l68 174h102l-49 -113q8 -4 28.5 -15t41 -33.5t34 -56.5t4.5 -83 q-14 -84 -79.5 -135t-161.5 -78z" />
<glyph unicode="&#xe8;" horiz-adv-x="966" d="M84 336l55 352q12 78 53 140.5t101.5 105.5t136.5 66.5t160 23.5q78 0 141.5 -24.5t106.5 -68.5t63 -106q13 -38 13 -81q0 -26 -5 -54l-20 -135l-672 -98l-18 -121q-4 -23 -4 -43q0 -39 13 -70q19 -47 58 -76.5t94.5 -44t118.5 -14.5q96 0 178 29.5t125 64.5l47 -82 q-78 -66 -177 -93t-193 -27q-82 0 -157 21.5t-128 66.5t-79 111q-16 43 -16 95q0 30 5 62zM233 553q135 20 275.5 39.5t275.5 40.5l11 65q2 16 2 31q0 76 -53 126q-62 60 -173 60q-55 0 -108 -16t-97 -47t-74 -73t-38 -91zM434 1376l100 68l133 -293l-73 -49z" />
<glyph unicode="&#xe9;" horiz-adv-x="966" d="M84 336l55 352q12 78 53 140.5t101.5 105.5t136.5 66.5t160 23.5q78 0 141.5 -24.5t106.5 -68.5t63 -106q13 -38 13 -81q0 -26 -5 -54l-20 -135l-672 -98l-18 -121q-4 -23 -4 -43q0 -39 13 -70q19 -47 58 -76.5t94.5 -44t118.5 -14.5q96 0 178 29.5t125 64.5l47 -82 q-78 -66 -177 -93t-193 -27q-82 0 -157 21.5t-128 66.5t-79 111q-16 43 -16 95q0 30 5 62zM233 553q135 20 275.5 39.5t275.5 40.5l11 65q2 16 2 31q0 76 -53 126q-62 60 -173 60q-55 0 -108 -16t-97 -47t-74 -73t-38 -91zM526 1173l233 287l78 -66l-243 -270z" />
<glyph unicode="&#xea;" horiz-adv-x="966" d="M84 336l55 352q12 78 53 140.5t101.5 105.5t136.5 66.5t160 23.5q78 0 141.5 -24.5t106.5 -68.5t63 -106q13 -38 13 -81q0 -26 -5 -54l-20 -135l-672 -98l-18 -121q-4 -23 -4 -43q0 -39 13 -70q19 -47 58 -76.5t94.5 -44t118.5 -14.5q96 0 178 29.5t125 64.5l47 -82 q-78 -66 -177 -93t-193 -27q-82 0 -157 21.5t-128 66.5t-79 111q-16 43 -16 95q0 30 5 62zM233 553q135 20 275.5 39.5t275.5 40.5l11 65q2 16 2 31q0 76 -53 126q-62 60 -173 60q-55 0 -108 -16t-97 -47t-74 -73t-38 -91zM366 1225l271 172l215 -174l-64 -72l-168 129 l-211 -127z" />
<glyph unicode="&#xeb;" horiz-adv-x="966" d="M84 336l55 352q12 78 53 140.5t101.5 105.5t136.5 66.5t160 23.5q78 0 141.5 -24.5t106.5 -68.5t63 -106q13 -38 13 -81q0 -26 -5 -54l-20 -135l-672 -98l-18 -121q-4 -23 -4 -43q0 -39 13 -70q19 -47 58 -76.5t94.5 -44t118.5 -14.5q96 0 178 29.5t125 64.5l47 -82 q-78 -66 -177 -93t-193 -27q-82 0 -157 21.5t-128 66.5t-79 111q-16 43 -16 95q0 30 5 62zM233 553q135 20 275.5 39.5t275.5 40.5l11 65q2 16 2 31q0 76 -53 126q-62 60 -173 60q-55 0 -108 -16t-97 -47t-74 -73t-38 -91zM360 1153l25 149h139l-25 -149h-139zM696 1153 l24 149h140l-25 -149h-139z" />
<glyph unicode="&#xec;" horiz-adv-x="489" d="M129 0l155 1004h115l-156 -1004h-114zM203 1396l100 68l133 -293l-73 -49z" />
<glyph unicode="&#xed;" horiz-adv-x="489" d="M129 0l155 1004h115l-156 -1004h-114zM287 1173l233 287l78 -66l-243 -270z" />
<glyph unicode="&#xee;" horiz-adv-x="489" d="M125 0l155 1004h115l-156 -1004h-114zM135 1243l271 172l215 -174l-64 -72l-168 129l-211 -127z" />
<glyph unicode="&#xef;" horiz-adv-x="489" d="M127 0l155 1004h115l-156 -1004h-114zM131 1170l25 149h139l-25 -149h-139zM467 1170l24 149h140l-25 -149h-139z" />
<glyph unicode="&#xf0;" horiz-adv-x="1024" d="M82 326l53 333q12 76 48 138.5t91.5 107.5t127 70.5t155.5 25.5q78 0 151.5 -24.5t118.5 -83.5q-8 94 -47 179t-92 155q-78 -35 -157.5 -71t-157.5 -69l-25 80l281 123q-113 113 -260 144l45 106q104 -29 187 -80t149 -117l286 127l27 -79l-258 -113q90 -115 126 -266.5 t7 -327.5l-57 -358q-12 -80 -54.5 -144.5t-106 -108.5t-140 -68.5t-160.5 -24.5q-80 0 -147.5 25.5t-113.5 71.5t-67.5 109.5t-9.5 139.5zM197 326q-16 -113 53 -175.5t186 -62.5q57 0 112.5 18.5t100.5 50t76 74.5t39 93l51 327q10 55 -7 100.5t-52 77t-85 48t-110 16.5 q-55 0 -108.5 -17.5t-95.5 -49t-70.5 -74.5t-36.5 -93z" />
<glyph unicode="&#xf1;" horiz-adv-x="1099" d="M90 0l156 1004h108l-20 -187q72 94 168 151.5t211 57.5q154 0 230 -90q58 -68 58 -178q0 -35 -6 -74l-106 -684h-115l105 674q5 31 5 59q0 75 -37 121q-50 63 -167 64q-55 0 -116.5 -25t-117 -66t-94.5 -93t-49 -109l-96 -625h-117zM387 1274q47 63 91.5 95t101.5 32 q35 0 65.5 -15.5t61.5 -33.5q29 -18 57.5 -32.5t59.5 -14.5q29 2 49 20t41 47l69 -45q-29 -43 -74.5 -85t-103.5 -42q-45 0 -78.5 16.5t-64.5 34.5q-27 16 -52.5 29.5t-54.5 13.5q-35 0 -60.5 -22.5t-41.5 -48.5z" />
<glyph unicode="&#xf2;" horiz-adv-x="1001" d="M84 328l55 354q12 82 54.5 145.5t104.5 107.5t139 67.5t157 23.5q78 0 145.5 -24.5t115.5 -68.5t72 -108q15 -42 15 -90q0 -25 -4 -53l-55 -354q-12 -82 -55.5 -146.5t-104.5 -108.5t-137 -67.5t-156 -23.5q-76 0 -144.5 24.5t-117.5 68.5t-73 108q-15 42 -15 92 q0 26 4 53zM199 328q-3 -20 -3 -39q0 -35 10 -64q15 -45 50 -74.5t84 -45t106 -15.5q53 0 106.5 16.5t97.5 47t77 74.5t41 100l55 354q3 19 3 37q0 35 -11 64q-16 44 -51 74t-83 45.5t-103 15.5q-53 0 -107.5 -16.5t-99.5 -47.5t-77 -74t-40 -98zM443 1376l100 68l133 -293 l-73 -49z" />
<glyph unicode="&#xf3;" horiz-adv-x="1001" d="M84 328l55 354q12 82 54.5 145.5t104.5 107.5t139 67.5t157 23.5q78 0 145.5 -24.5t115.5 -68.5t72 -108q15 -42 15 -90q0 -25 -4 -53l-55 -354q-12 -82 -55.5 -146.5t-104.5 -108.5t-137 -67.5t-156 -23.5q-76 0 -144.5 24.5t-117.5 68.5t-73 108q-15 42 -15 92 q0 26 4 53zM199 328q-3 -20 -3 -39q0 -35 10 -64q15 -45 50 -74.5t84 -45t106 -15.5q53 0 106.5 16.5t97.5 47t77 74.5t41 100l55 354q3 19 3 37q0 35 -11 64q-16 44 -51 74t-83 45.5t-103 15.5q-53 0 -107.5 -16.5t-99.5 -47.5t-77 -74t-40 -98zM533 1173l233 287l78 -66 l-243 -270z" />
<glyph unicode="&#xf4;" horiz-adv-x="1001" d="M84 328l55 354q12 82 54.5 145.5t104.5 107.5t139 67.5t157 23.5q78 0 145.5 -24.5t115.5 -68.5t72 -108q15 -42 15 -90q0 -25 -4 -53l-55 -354q-12 -82 -55.5 -146.5t-104.5 -108.5t-137 -67.5t-156 -23.5q-76 0 -144.5 24.5t-117.5 68.5t-73 108q-15 42 -15 92 q0 26 4 53zM199 328q-3 -20 -3 -39q0 -35 10 -64q15 -45 50 -74.5t84 -45t106 -15.5q53 0 106.5 16.5t97.5 47t77 74.5t41 100l55 354q3 19 3 37q0 35 -11 64q-16 44 -51 74t-83 45.5t-103 15.5q-53 0 -107.5 -16.5t-99.5 -47.5t-77 -74t-40 -98zM373 1225l271 172l215 -174 l-64 -72l-168 129l-211 -127z" />
<glyph unicode="&#xf5;" horiz-adv-x="1001" d="M84 328l55 354q12 82 54.5 145.5t104.5 107.5t139 67.5t157 23.5q78 0 145.5 -24.5t115.5 -68.5t72 -108q15 -42 15 -90q0 -25 -4 -53l-55 -354q-12 -82 -55.5 -146.5t-104.5 -108.5t-137 -67.5t-156 -23.5q-76 0 -144.5 24.5t-117.5 68.5t-73 108q-15 42 -15 92 q0 26 4 53zM199 328q-3 -20 -3 -39q0 -35 10 -64q15 -45 50 -74.5t84 -45t106 -15.5q53 0 106.5 16.5t97.5 47t77 74.5t41 100l55 354q3 19 3 37q0 35 -11 64q-16 44 -51 74t-83 45.5t-103 15.5q-53 0 -107.5 -16.5t-99.5 -47.5t-77 -74t-40 -98zM323 1235q47 63 91.5 95 t101.5 32q35 0 65.5 -15.5t61.5 -33.5q29 -18 57.5 -32.5t59.5 -14.5q29 2 49 20t41 47l69 -45q-29 -43 -74.5 -85t-103.5 -42q-45 0 -78.5 16.5t-64.5 34.5q-27 16 -52.5 29.5t-54.5 13.5q-35 0 -60.5 -22.5t-41.5 -48.5z" />
<glyph unicode="&#xf6;" horiz-adv-x="1001" d="M84 328l55 354q12 82 54.5 145.5t104.5 107.5t139 67.5t157 23.5q78 0 145.5 -24.5t115.5 -68.5t72 -108q15 -42 15 -90q0 -25 -4 -53l-55 -354q-12 -82 -55.5 -146.5t-104.5 -108.5t-137 -67.5t-156 -23.5q-76 0 -144.5 24.5t-117.5 68.5t-73 108q-15 42 -15 92 q0 26 4 53zM199 328q-3 -20 -3 -39q0 -35 10 -64q15 -45 50 -74.5t84 -45t106 -15.5q53 0 106.5 16.5t97.5 47t77 74.5t41 100l55 354q3 19 3 37q0 35 -11 64q-16 44 -51 74t-83 45.5t-103 15.5q-53 0 -107.5 -16.5t-99.5 -47.5t-77 -74t-40 -98zM367 1149l25 149h139 l-25 -149h-139zM703 1149l24 149h140l-25 -149h-139z" />
<glyph unicode="&#xf7;" horiz-adv-x="1337" d="M115 535l16 100h1135l-17 -100h-1134zM524 168l31 186h188l-30 -186h-189zM625 805l28 188h189l-29 -188h-188z" />
<glyph unicode="&#xf8;" horiz-adv-x="1001" d="M-10 -125l153 213q-41 43 -60.5 104.5t-6.5 135.5l55 354q12 82 54 145.5t103.5 107.5t138.5 67.5t157 23.5q53 0 107 -13.5t97 -37.5q23 31 49.5 66.5t49.5 66.5h96l-131 -180q45 -45 66.5 -107.5t11.5 -138.5l-56 -354q-12 -82 -55 -146.5t-105.5 -108.5t-138 -67.5 t-155.5 -23.5q-55 0 -111.5 15t-101.5 42q-27 -39 -58.5 -82t-60.5 -82h-98zM190 328q-8 -43 1.5 -76t25.5 -62q123 166 252 344.5t252 344.5q-31 16 -72 27.5t-82 11.5q-51 0 -105 -16.5t-99.5 -46.5t-77 -74t-39.5 -99zM276 135q31 -20 74 -32.5t86 -12.5q53 0 106.5 16.5 t97.5 47t77 74.5t41 100l55 354q6 41 -4 77t-33 60q-123 -170 -250 -342t-250 -342z" />
<glyph unicode="&#xf9;" horiz-adv-x="1073" d="M139 326l107 678h114l-106 -678q-3 -22 -3 -43q0 -86 56 -135q70 -60 182 -60q53 0 104.5 16.5t94.5 47t74 74.5t39 100l106 678h115l-107 -678q-12 -82 -53 -146.5t-101.5 -109.5t-134 -67.5t-153.5 -22.5q-76 0 -142.5 24.5t-112.5 68.5t-68 108q-15 42 -15 90 q0 27 4 55zM486 1376l100 68l133 -293l-73 -49z" />
<glyph unicode="&#xfa;" horiz-adv-x="1073" d="M139 326l107 678h114l-106 -678q-3 -22 -3 -43q0 -86 56 -135q70 -60 182 -60q53 0 104.5 16.5t94.5 47t74 74.5t39 100l106 678h115l-107 -678q-12 -82 -53 -146.5t-101.5 -109.5t-134 -67.5t-153.5 -22.5q-76 0 -142.5 24.5t-112.5 68.5t-68 108q-15 42 -15 90 q0 27 4 55zM576 1153l233 287l78 -66l-243 -270z" />
<glyph unicode="&#xfb;" horiz-adv-x="1073" d="M139 326l107 678h114l-106 -678q-3 -22 -3 -43q0 -86 56 -135q70 -60 182 -60q53 0 104.5 16.5t94.5 47t74 74.5t39 100l106 678h115l-107 -678q-12 -82 -53 -146.5t-101.5 -109.5t-134 -67.5t-153.5 -22.5q-76 0 -142.5 24.5t-112.5 68.5t-68 108q-15 42 -15 90 q0 27 4 55zM422 1243l271 172l215 -174l-64 -72l-168 129l-211 -127z" />
<glyph unicode="&#xfc;" horiz-adv-x="1073" d="M139 326l107 678h114l-106 -678q-3 -22 -3 -43q0 -86 56 -135q70 -60 182 -60q53 0 104.5 16.5t94.5 47t74 74.5t39 100l106 678h115l-107 -678q-12 -82 -53 -146.5t-101.5 -109.5t-134 -67.5t-153.5 -22.5q-76 0 -142.5 24.5t-112.5 68.5t-68 108q-15 42 -15 90 q0 27 4 55zM418 1188l25 149h139l-25 -149h-139zM754 1188l24 149h140l-25 -149h-139z" />
<glyph unicode="&#xfd;" horiz-adv-x="886" d="M-100 -440l10 100q113 2 211 69.5t158 178.5l28 59q-45 250 -91 518.5t-91 518.5h125l145 -889q104 219 213 444t213 445h125l-561 -1123q-80 -162 -205.5 -240.5t-279.5 -80.5zM469 1153l233 287l78 -66l-243 -270z" />
<glyph unicode="&#xfe;" horiz-adv-x="1071" d="M6 -526l307 1962h115l-86 -555q66 68 157 106.5t185 38.5q80 0 144.5 -25.5t108.5 -70.5t63.5 -107.5t7.5 -136.5l-58 -362q-12 -82 -50 -145.5t-95 -107.5t-130 -67.5t-155 -23.5q-96 0 -176 41.5t-121 107.5l-102 -655h-115zM264 330q-8 -55 8.5 -100.5t52 -77t88 -48 t111.5 -16.5q55 0 107.5 16.5t95.5 47t71.5 73.5t37.5 94l57 365q16 111 -53.5 172.5t-184.5 61.5q-59 0 -116.5 -18.5t-103.5 -51.5t-77.5 -76t-40.5 -92z" />
<glyph unicode="&#xff;" horiz-adv-x="886" d="M-100 -440l10 100q113 2 211 69.5t158 178.5l28 59q-45 250 -91 518.5t-91 518.5h125l145 -889q104 219 213 444t213 445h125l-561 -1123q-80 -162 -205.5 -240.5t-279.5 -80.5zM313 1188l25 149h139l-25 -149h-139zM649 1188l24 149h140l-25 -149h-139z" />
<glyph unicode="&#x131;" horiz-adv-x="489" d="M109 0l155 1004h115l-156 -1004h-114z" />
<glyph unicode="&#x152;" horiz-adv-x="1755" d="M117 428l84 535q14 92 68.5 170.5t134 135t177 89.5t199.5 33h973l-18 -109h-570l-78 -508h480l-19 -106h-479l-86 -559h619l-17 -109h-1020q-104 0 -192 34t-149.5 91t-91 136t-15.5 167zM233 428q-8 -74 14.5 -133t70 -100t116 -63.5t148.5 -22.5h286l183 1173h-289 q-70 0 -143.5 -25.5t-137 -69.5t-108.5 -101.5t-56 -122.5z" />
<glyph unicode="&#x153;" horiz-adv-x="1665" d="M84 334l53 340q12 78 52 140.5t98.5 106.5t132.5 67.5t155 23.5q51 0 101.5 -12.5t93.5 -36t76 -57.5t51 -77q29 35 66.5 68t84 58.5t99.5 41t113 15.5q72 0 136 -20.5t112 -62.5t71 -105.5t10 -149.5l-20 -127l-668 -96l-18 -115q-8 -61 12 -106.5t61 -75t95.5 -44 t111.5 -14.5q37 0 78 8.5t80 21.5t74 30.5t59 38.5l57 -78q-37 -31 -83 -54.5t-95 -39t-97 -23.5t-91 -8q-55 0 -109.5 11t-101.5 34.5t-84 57.5t-59 79q-61 -86 -163 -135t-210 -49q-80 0 -146.5 26.5t-111.5 72.5t-66.5 108.5t-9.5 136.5zM199 334q-8 -55 7 -98t49 -74 t83 -47.5t106 -16.5q55 0 108.5 18.5t98.5 49.5t76 73t39 91l53 348q6 49 -10 91t-50 72.5t-83 48t-105 17.5q-57 0 -111 -18.5t-97.5 -49t-73 -73.5t-37.5 -92zM915 549q135 20 275.5 39.5t275.5 40.5l7 47q8 53 -5.5 95t-43 72.5t-73.5 47t-96 16.5q-55 0 -109 -19.5 t-98 -50t-74 -71.5t-38 -88z" />
<glyph unicode="&#x178;" horiz-adv-x="1243" d="M193 1393h135l319 -711q133 174 272.5 355.5t274.5 355.5h133l-643 -830l-88 -563h-115l88 563q-92 201 -188 415t-188 415zM575 1495l25 149h139l-25 -149h-139zM911 1495l24 149h140l-25 -149h-139z" />
<glyph unicode="&#x2c6;" horiz-adv-x="684" d="M223 1243l271 172l215 -174l-64 -72l-168 129l-211 -127z" />
<glyph unicode="&#x2da;" horiz-adv-x="468" d="M211 1300q6 37 23.5 66t42 49.5t55 31.5t61.5 11q63 0 105.5 -45t31.5 -113q-12 -72 -66 -115.5t-120 -43.5q-63 0 -103 46.5t-30 112.5zM289 1296q-6 -39 14.5 -59t52.5 -20q31 0 60.5 22.5t36.5 56.5q6 41 -15.5 64.5t-54.5 23.5t-61.5 -25.5t-32.5 -62.5z" />
<glyph unicode="&#x2dc;" horiz-adv-x="786" d="M229 1274q47 63 91.5 95t101.5 32q35 0 65.5 -15.5t61.5 -33.5q29 -18 57.5 -32.5t59.5 -14.5q29 2 49 20t41 47l69 -45q-29 -43 -74.5 -85t-103.5 -42q-45 0 -78.5 16.5t-64.5 34.5q-27 16 -52.5 29.5t-54.5 13.5q-35 0 -60.5 -22.5t-41.5 -48.5z" />
<glyph unicode="&#x2013;" horiz-adv-x="1099" d="M16 545l17 100h1085l-16 -100h-1086z" />
<glyph unicode="&#x2014;" horiz-adv-x="1521" d="M18 545l17 100h1513l-16 -100h-1514z" />
<glyph unicode="&#x2018;" horiz-adv-x="231" d="M145 1006l11 55q20 133 56 215t89 137q14 -10 30.5 -21.5t30.5 -21.5q-35 -49 -55 -111.5t-33 -136.5l-18 -116h-111z" />
<glyph unicode="&#x2019;" horiz-adv-x="235" d="M90 1028q41 51 65.5 102.5t40.5 143.5l17 115h110l-8 -54q-12 -78 -29.5 -132t-39 -94t-47 -68.5t-54.5 -57.5z" />
<glyph unicode="&#x201a;" horiz-adv-x="434" d="M80 -205q41 51 65.5 102.5t40.5 143.5l17 115h110l-8 -54q-12 -78 -29.5 -132t-39 -94t-47 -68.5t-54.5 -57.5z" />
<glyph unicode="&#x201c;" horiz-adv-x="477" d="M399 1006l11 55q20 133 56 215t89 137q14 -10 30.5 -21.5t30.5 -21.5q-35 -49 -55 -111.5t-33 -136.5l-18 -116h-111zM145 1006l11 55q20 133 56 215t89 137q14 -10 30.5 -21.5t30.5 -21.5q-35 -49 -55 -111.5t-33 -136.5l-18 -116h-111z" />
<glyph unicode="&#x201d;" horiz-adv-x="495" d="M90 1030q41 51 65.5 102.5t40.5 143.5l17 115h110l-8 -54q-12 -78 -29.5 -132t-39 -94t-47 -68.5t-54.5 -57.5zM351 1030q41 51 65.5 102.5t40.5 143.5l17 115h110l-8 -54q-12 -78 -29.5 -132t-39 -94t-47 -68.5t-54.5 -57.5z" />
<glyph unicode="&#x201e;" horiz-adv-x="774" d="M80 -203q41 51 65.5 102.5t40.5 143.5l17 115h110l-8 -54q-12 -78 -29.5 -132t-39 -94t-47 -68.5t-54.5 -57.5zM412 -201q41 51 65.5 102.5t40.5 143.5l17 115h110l-8 -54q-12 -78 -29.5 -132t-39 -94t-47 -68.5t-54.5 -57.5z" />
<glyph unicode="&#x2022;" horiz-adv-x="669" d="M145 358l56 355h352l-55 -355h-353z" />
<glyph unicode="&#x2026;" horiz-adv-x="1431" d="M90 0l31 201h182l-31 -201h-182zM555 0l31 201h182l-31 -201h-182zM1020 0l31 201h184l-31 -201h-184z" />
<glyph unicode="&#x2039;" horiz-adv-x="573" d="M84 354l367 367l53 -68l-275 -295q45 -70 92.5 -144.5t92.5 -143.5l-76 -70z" />
<glyph unicode="&#x203a;" horiz-adv-x="573" d="M43 70l274 286q-45 72 -92 149t-92 148l78 68l252 -367l-365 -354z" />
<glyph unicode="&#x2044;" horiz-adv-x="985" d="M-59 0l1071 1393h118l-1064 -1393h-125z" />
<glyph unicode="&#x2074;" horiz-adv-x="798" d="M178 870l12 74l377 449h158l-70 -439h150l-12 -84h-150l-33 -206h-100l33 206h-365zM303 954h252l57 359h-12q-74 -88 -148.5 -179.5t-148.5 -179.5z" />
<glyph unicode="&#x20ac;" horiz-adv-x="1280" d="M98 547l15 90h297l28 176h-297l13 90h297l24 146q14 90 56 163.5t106.5 125t147.5 79t182 27.5q98 0 185 -36t153 -101l-74 -84q-51 53 -126 82.5t-157 29.5q-147 0 -243.5 -84t-118.5 -217l-21 -131h482l-13 -90h-481l-29 -176h482l-15 -90h-481l-23 -152 q-10 -70 5.5 -125t52.5 -95t92 -61.5t123 -21.5q78 0 161 29t150 82l49 -86q-170 -133 -379 -133q-94 0 -169.5 29.5t-125 84t-69 130t-4.5 167.5l22 152h-297z" />
<glyph unicode="&#x2122;" horiz-adv-x="1087" d="M221 1354l12 82h367l-12 -82h-139l-56 -353h-86l55 353h-141zM612 1004l68 430h84l86 -205q41 51 79 102t77 103h86l-68 -430h-86l45 284q-31 -41 -63.5 -86t-63.5 -86h-45l-70 176l-45 -288h-84z" />
<glyph unicode="&#xe000;" horiz-adv-x="1004" d="M0 1005h1005v-1005h-1005v1005z" />
<glyph unicode="&#xfb01;" horiz-adv-x="1105" d="M117 905l14 99h203l35 219q10 68 43.5 123t83 94t113 59.5t134.5 20.5q59 0 118 -17.5t109 -41t85 -45t47 -27.5l-70 -97l-26 15l-52 30q-31 18 -68.5 35t-78.5 29t-82 12q-45 0 -86 -14.5t-72.5 -40t-53 -59t-28.5 -74.5l-34 -221h223l-15 -99h-225l-141 -905h-115 l141 905h-202zM752 0l155 1004h115l-156 -1004h-114z" />
<glyph unicode="&#xfb02;" horiz-adv-x="1144" d="M117 907l14 99h207l35 221q10 68 44 122t84 92t113.5 58.5t133.5 20.5q31 0 74.5 -7.5t89.5 -18.5t88 -24.5t71 -27.5h43l-225 -1442h-117l211 1358q-25 12 -59.5 22.5t-69.5 16.5t-68.5 10t-56.5 4q-92 0 -160.5 -52t-81.5 -134l-34 -219h227l-14 -99h-232l-141 -907 h-115l141 907h-202z" />
<glyph unicode="&#xfb03;" horiz-adv-x="1589" d="M41 907l14 99h205l29 180q23 135 121 218t241 85q37 0 82 -9.5t90 -24.5t88 -34.5t78 -40.5q14 16 41 37t65 39.5t84 31.5t101 13q41 0 84 -11t84 -27.5t74.5 -33t56.5 -28.5q10 -6 17.5 -9t9.5 -6l-62 -94l-14 8q-16 8 -45 23.5t-66 30t-78 26t-81 11.5 q-45 0 -87.5 -14.5t-75 -40t-55 -61.5t-28.5 -77l-31 -194h225l-14 -99h-225l-142 -905h-114l141 905h-205l15 99h204l29 182q4 27 11 50.5t18 45.5q-61 41 -138 69.5t-153 28.5q-96 0 -157.5 -56t-74.5 -136l-28 -182h178l-14 -99h-179l-141 -907h-115l142 907h-205z M1264 0l155 1004h115l-156 -1004h-114z" />
<glyph unicode="&#xfb04;" horiz-adv-x="1628" d="M70 907l14 99h203l28 180q10 68 42 123t80 95t109.5 62.5t131.5 22.5q31 0 69.5 -8t79.5 -21.5t82 -31t76 -35.5q53 47 125 76.5t150 29.5q35 0 77.5 -7t85.5 -19.5t82 -26.5t64 -29h43l-221 -1417h-117l209 1337q-51 23 -121 40.5t-119 17.5q-92 0 -161.5 -51.5 t-84.5 -143.5l-30 -196h229l-14 -99h-230l-141 -905h-113l142 905h-193l15 99h192l31 194q4 29 14 55.5t23 49.5q-61 33 -130 55t-130 22q-96 0 -158 -56t-74 -136l-29 -182h179l-15 -99h-178l-141 -907h-115l141 907h-202z" />
</font>
</defs>
</svg>
