<?xml version="1.0" standalone="no"?>
<!DOCTYPE svg PUBLIC "-//W3C//DTD SVG 1.1//EN" "http://www.w3.org/Graphics/SVG/1.1/DTD/svg11.dtd" >
<svg xmlns="http://www.w3.org/2000/svg">
<metadata>
This is a custom SVG webfont generated by Font Squirrel.
Copyright   : Copyright 2004 SUDTIPOS Disenada por Alejandro Paul Todos los derechos reservados
</metadata>
<defs>
<font id="PoliticaRegular" horiz-adv-x="763" >
<font-face units-per-em="2048" ascent="1638" descent="-410" />
<missing-glyph horiz-adv-x="327" />
<glyph unicode=" "  horiz-adv-x="327" />
<glyph unicode="&#x09;" horiz-adv-x="327" />
<glyph unicode="&#xa0;" horiz-adv-x="327" />
<glyph unicode="!" horiz-adv-x="557" d="M225 0v217h103v-217h-103zM225 422v1208h103v-1208h-103z" />
<glyph unicode="&#x22;" horiz-adv-x="573" d="M133 1036v529h103v-529h-103zM338 1036v529h102v-529h-102z" />
<glyph unicode="#" horiz-adv-x="1200" d="M133 563v101h176l86 272h-190v100h221l106 336h103l-107 -336h287l107 336h102l-106 -336h188v-100h-221l-86 -272h235v-101h-266l-113 -358h-102l113 358h-287l-113 -358h-102l112 358h-143zM410 664h288l86 272h-288z" />
<glyph unicode="$" horiz-adv-x="753" d="M82 477v182h102v-182q0 -63 40 -111.5t102 -56.5v475q-20 12 -48 31t-79.5 59.5t-84 95t-32.5 109.5v41q0 106 69.5 183t174.5 88v186h102v-186q104 -10 174 -88t70 -183v-41h-103v41q0 61 -40 109.5t-101 58.5v-442q29 -16 58.5 -38t76.5 -64t78 -94t31 -103v-70 q0 -104 -70 -182t-174 -88v-207h-102v207q-104 10 -174 87t-70 183zM184 1079q0 -70 142 -168v377q-61 -10 -101.5 -57t-40.5 -111v-41zM428 309q59 10 100 57.5t41 110.5v70q0 63 -141 170v-408z" />
<glyph unicode="%" horiz-adv-x="1382" d="M123 1016v305q0 115 67.5 193.5t163.5 78.5h21q96 0 163.5 -78.5t67.5 -193.5v-305q0 -113 -67.5 -193t-163.5 -80h-21q-96 0 -163.5 80t-67.5 193zM225 1016q0 -72 38 -121t91 -49h21q53 0 91 49t38 121v305q0 72 -38 121t-91 49h-21q-53 0 -91 -49t-38 -121v-305z M389 0l516 1634h103l-516 -1634h-103zM776 252v305q0 115 67.5 193.5t164.5 78.5h20q96 0 164 -78.5t68 -193.5v-305q0 -113 -68 -192.5t-164 -79.5h-20q-96 0 -164 79.5t-68 192.5zM879 252q0 -72 37.5 -121t91.5 -49h20q53 0 91 49t38 121v305q0 72 -38 121t-91 49h-20 q-53 0 -91 -49t-38 -121v-305z" />
<glyph unicode="&#x26;" horiz-adv-x="1052" d="M102 236v305q0 80 48.5 148.5t123.5 96.5q-70 31 -113.5 97.5t-43.5 144.5v295q0 121 74.5 184.5t201.5 63.5h33q125 0 194.5 -63.5t69.5 -184.5v-162h-102v162q0 78 -40 111.5t-122 33.5h-33q-174 0 -174 -145v-295q0 -51 55.5 -120.5t102.5 -69.5h131v-103h-131 q-47 0 -109.5 -71.5t-62.5 -122.5v-305q0 -143 188 -144h33q82 0 122 33t40 111v673h102v-73h260v-103h-260v-497q0 -121 -69.5 -183.5t-194.5 -62.5h-35q-129 0 -209 63.5t-80 182.5z" />
<glyph unicode="'" horiz-adv-x="368" d="M133 1036v529h103v-529h-103z" />
<glyph unicode="(" horiz-adv-x="604" d="M82 778q0 541 321 946h119q-344 -428 -344 -946q0 -516 344 -946h-119q-321 409 -321 946z" />
<glyph unicode=")" horiz-adv-x="604" d="M82 -168q344 430 344 946q0 518 -344 946h119q322 -406 321 -946q0 -537 -321 -946h-119z" />
<glyph unicode="*" horiz-adv-x="892" d="M123 1282v96l272 -65v274h103v-274l272 65v-96l-252 -70l219 -217l-73 -63l-218 217l-217 -217l-73 63l219 217z" />
<glyph unicode="+" horiz-adv-x="880" d="M82 670v100h307v285h100v-285h310v-100h-310v-332h-100v332h-307z" />
<glyph unicode="," horiz-adv-x="421" d="M176 317h103v-636h-103v636z" />
<glyph unicode="-" horiz-adv-x="614" d="M82 670v100h450v-100h-450z" />
<glyph unicode="." horiz-adv-x="325" d="M102 59.5q0 24.5 17.5 43t42 18.5t43 -18.5t18.5 -43t-18.5 -42t-43 -17.5t-42 17.5t-17.5 42z" />
<glyph unicode="/" horiz-adv-x="655" d="M-20 -123l593 1884h103l-594 -1884h-102z" />
<glyph unicode="0" horiz-adv-x="815" d="M113 252v1063q0 115 78.5 193.5t193.5 78.5h45q115 0 193.5 -78.5t78.5 -193.5v-1063q0 -113 -79.5 -192.5t-192.5 -79.5h-45q-113 0 -192.5 79.5t-79.5 192.5zM215 252q0 -72 50 -121t120 -49h45q70 0 120 49t50 121v1063q0 70 -50 120t-120 50h-45q-70 0 -120 -50.5 t-50 -119.5v-1063z" />
<glyph unicode="1" horiz-adv-x="448" d="M133 1464v103h182v-1567h-102v1464h-80z" />
<glyph unicode="2" horiz-adv-x="714" d="M61 0v102q0 209 49.5 318.5t190.5 238.5q145 131 213 249t68 302v84q0 80 -56.5 136.5t-136.5 56.5h-33q-80 0 -136 -56.5t-56 -136.5h-103q0 123 86 209t209 86h33q123 0 209 -86t86 -209v-84q0 -199 -80 -342t-223 -274q-139 -129 -178 -213t-39 -279h520v-102h-623z " />
<glyph unicode="3" horiz-adv-x="800" d="M86 1296v41q0 121 69.5 183.5t194.5 62.5h35q129 0 209 -63.5t80 -182.5v-237q0 -78 -44 -144.5t-114 -97.5q76 -27 124 -96.5t48 -149.5v-376q0 -119 -80 -182.5t-209 -63.5h-34q-125 0 -195 62.5t-70 183.5v342h103v-342q0 -78 40 -111t122 -33h32q188 0 189 144v376 q0 51 -62.5 123t-109.5 72h-90v102h90q47 0 102 70t55 121v237q0 143 -188 144h-33q-82 0 -122 -33t-40 -111v-41h-102z" />
<glyph unicode="4" horiz-adv-x="845" d="M0 315l500 1252h178v-1149h106v-103h-106v-327h-103v327h-575zM154 418h421v1046h-20z" />
<glyph unicode="5" horiz-adv-x="751" d="M80 236v342h102v-342q0 -78 40 -111t122 -33h33q188 0 188 144v401q0 72 -49 121t-121 49h-270v758h545v-101h-443v-555h168q113 0 193 -79.5t80 -192.5v-401q0 -119 -80 -182.5t-209 -63.5h-35q-125 0 -194.5 62.5t-69.5 183.5z" />
<glyph unicode="6" horiz-adv-x="804" d="M113 254v1089q0 121 71.5 183.5t196.5 62.5h45q127 0 199.5 -62.5t72.5 -183.5v-182h-102v182q0 143 -170 144h-45q-84 0 -125 -33t-41 -111v-516q70 61 170 62h45q113 0 192.5 -80t79.5 -193v-362q0 -113 -79.5 -192.5t-192.5 -79.5h-45q-113 0 -192.5 79.5t-79.5 192.5 zM215 254q0 -70 50 -120t120 -50h45q70 0 120 50t50 120v362q0 72 -50 121t-120 49h-45q-72 0 -121 -49t-49 -119v-364z" />
<glyph unicode="7" horiz-adv-x="624" d="M0 1475v102h594l-430 -1577h-103l404 1475h-465z" />
<glyph unicode="8" horiz-adv-x="798" d="M102 254v356q0 84 48.5 150.5t123.5 95.5q-72 31 -114.5 95.5t-42.5 146.5v217q0 113 79.5 192.5t192.5 79.5h21q113 0 192.5 -80t79.5 -192v-217q0 -82 -43 -146.5t-115 -95.5q76 -29 124 -95.5t48 -150.5v-356q0 -113 -79.5 -192.5t-192.5 -79.5h-49q-113 0 -193 79.5 t-80 192.5zM205 254q0 -70 49 -120t121 -50h49q72 0 121 50t49 120v356q0 72 -51 128.5t-121 56.5h-45q-70 0 -121 -56.5t-51 -128.5v-356zM219 1098q0 -72 49 -126t119 -54h25q57 0 112.5 56t55.5 124v217q0 70 -50.5 120t-119.5 50h-21q-70 0 -120 -50.5t-50 -119.5v-217z " />
<glyph unicode="9" horiz-adv-x="804" d="M102 956v363q0 113 80 192.5t193 79.5h45q113 0 192.5 -79.5t79.5 -192.5v-1090q0 -121 -71.5 -183t-196.5 -62h-45q-127 0 -200 62.5t-73 182.5v183h103v-183q0 -143 170 -143h45q84 0 125 33t41 110v516q-70 -61 -170 -61h-45q-113 0 -193 79.5t-80 192.5zM205 956 q0 -72 49 -121t121 -49h45q72 0 121 49.5t49 118.5v365q0 70 -49 120t-121 50h-45q-72 0 -121 -50t-49 -120v-363z" />
<glyph unicode=":" horiz-adv-x="325" d="M102 59.5q0 24.5 17.5 43t42 18.5t43 -18.5t18.5 -43t-18.5 -42t-43 -17.5t-42 17.5t-17.5 42zM102 948.5q0 24.5 17.5 43t42 18.5t43 -18.5t18.5 -43t-18.5 -42t-43 -17.5t-42 17.5t-17.5 42z" />
<glyph unicode=";" horiz-adv-x="415" d="M164 948.5q0 24.5 17.5 43t42 18.5t43 -18.5t18.5 -43t-18.5 -42t-43 -17.5t-42 17.5t-17.5 42zM170 317h102v-636h-102v636z" />
<glyph unicode="&#x3c;" horiz-adv-x="630" d="M61 850l383 496l68 -66l-332 -430l348 -447l-65 -67z" />
<glyph unicode="=" horiz-adv-x="880" d="M82 481v103h717v-103h-717zM82 852v102h717v-102h-717z" />
<glyph unicode="&#x3e;" horiz-adv-x="630" d="M102 403l349 447l-332 430l67 66l383 -496l-401 -514z" />
<glyph unicode="?" horiz-adv-x="794" d="M82 1165v213q0 113 80 193t192 80h86q113 0 193 -80t80 -193v-231q0 -92 -49.5 -165t-147.5 -73q-47 0 -91 -32.5t-44 -102.5v-375h-102v375q0 102 68.5 170t168.5 68q47 0 70.5 45t23.5 90v231q0 72 -49 121t-121 49h-86q-72 0 -121 -49t-49 -121v-213h-102zM279 0v217 h102v-217h-102z" />
<glyph unicode="@" horiz-adv-x="1370" d="M82 319v529q0 188 131 319t319 131h306q186 0 318 -132t132 -318v-436q0 -100 -71.5 -171t-172.5 -71h-174v117q-20 -16 -53 -41t-110.5 -66t-126.5 -41q-82 0 -139.5 57.5t-57.5 139.5v432q0 113 80 192.5t192 79.5h45q113 0 193 -79.5t80 -192.5v-496h63q31 0 60.5 8.5 t59.5 42t30 89.5v436q0 139 -105.5 243.5t-242.5 104.5h-306q-139 0 -243.5 -104.5t-104.5 -243.5v-529q0 -139 104.5 -243.5t243.5 -104.5h220v-102h-220q-186 0 -318 132t-132 318zM485 336q0 -33 10.5 -54.5t28 -28.5t28.5 -9t28 -2q49 0 121.5 37.5t121.5 76.5l47 37 v375q0 82 -48 126t-122 44h-45q-70 0 -120 -49t-50 -121v-432z" />
<glyph unicode="A" horiz-adv-x="862" d="M20 0l285 1581q4 27 30.5 48.5t57.5 21.5h70q31 0 57.5 -21.5t30.5 -48.5l291 -1581h-103l-82 438h-454l-80 -438h-103zM221 541h418l-182 981q-4 27 -21 26h-16q-14 0 -21 -26z" />
<glyph unicode="B" horiz-adv-x="876" d="M143 0v1638h371q100 0 173 -71.5t73 -173.5v-295q0 -78 -44 -144.5t-114 -97.5q76 -29 124 -95.5t48 -150.5v-364q0 -102 -71.5 -174t-174.5 -72h-385zM246 102h280q61 0 103.5 42t42.5 102v364q0 119 -170 195h-256v-703zM246 907h258q152 68 151 187v299q0 57 -41 101 t-100 44h-268v-631z" />
<glyph unicode="C" horiz-adv-x="845" d="M113 274v1082q0 123 86 209t209 86h41q123 0 208.5 -86t85.5 -209v-258h-102v258q0 80 -56.5 136t-135.5 56h-41q-80 0 -136.5 -56t-56.5 -136v-1082q0 -80 56.5 -136t136.5 -56h41q80 0 134 56.5t54 135.5v324h4h102v-324q0 -123 -86 -208.5t-208 -85.5h-41 q-123 0 -209 85.5t-86 208.5z" />
<glyph unicode="D" horiz-adv-x="886" d="M143 0v1638h336q125 0 210 -80.5t85 -201.5v-1061q0 -123 -86 -209t-209 -86h-336zM246 102h233q80 0 136.5 56.5t56.5 136.5v1061q0 78 -56.5 129t-136.5 51h-233v-1434z" />
<glyph unicode="E" horiz-adv-x="692" d="M143 0v1638h508v-102h-405v-582h350v-102h-350v-750h405v-102h-508z" />
<glyph unicode="F" horiz-adv-x="673" d="M143 0v1638h510v-102h-407v-582h350v-102h-350v-852h-103z" />
<glyph unicode="G" horiz-adv-x="837" d="M113 274v1082q0 123 86 209t209 86h32q123 0 209 -86t86 -209v-258h-102v258q0 80 -56.5 136t-136.5 56h-32q-80 0 -136.5 -56t-56.5 -136v-1082q0 -80 56.5 -136t136.5 -56h32q80 0 136.5 56.5t56.5 135.5v426h-209v103h311v-529q0 -123 -86 -208.5t-209 -85.5h-32 q-123 0 -209 85.5t-86 208.5z" />
<glyph unicode="H" horiz-adv-x="911" d="M143 0v1638h103v-684h420v684h102v-1638h-102v854h-420v-854h-103z" />
<glyph unicode="I" horiz-adv-x="409" d="M154 0v1638h102v-1638h-102z" />
<glyph unicode="J" horiz-adv-x="796" d="M61 274v324h103v-324q0 -80 56 -136t136 -56h33q80 0 136.5 56.5t56.5 135.5v1364h102v-1364q0 -123 -86 -208.5t-209 -85.5h-33q-123 0 -209 85.5t-86 208.5z" />
<glyph unicode="K" horiz-adv-x="913" d="M143 0v1638h101v-684h153l385 684h111l-404 -725v-18l404 -895h-111l-385 854h-153v-854h-101z" />
<glyph unicode="L" horiz-adv-x="610" d="M104 0v1638h101v-1536h405v-102h-506z" />
<glyph unicode="M" horiz-adv-x="1257" d="M123 0l63 1638h224l219 -1413l223 1413h221l62 -1638h-103l-59 1536h-41l-252 -1516h-102l-250 1516h-41l-62 -1536h-102z" />
<glyph unicode="N" horiz-adv-x="993" d="M143 0v1638h226l338 -1536h41v1536h102v-1638h-221l-342 1536h-41v-1536h-103z" />
<glyph unicode="O" horiz-adv-x="856" d="M113 274v1082q0 123 86 209t209 86h41q123 0 208.5 -86t85.5 -209v-1082q0 -123 -86 -208.5t-208 -85.5h-41q-123 0 -209 85.5t-86 208.5zM215 274q0 -80 56.5 -136t136.5 -56h41q80 0 136 56.5t56 135.5v1082q0 80 -56.5 136t-135.5 56h-41q-80 0 -136.5 -56t-56.5 -136 v-1082z" />
<glyph unicode="P" horiz-adv-x="827" d="M143 0v1638h328q125 0 210 -80.5t85 -201.5v-361q0 -123 -86 -209t-209 -86h-225v-700h-103zM246 803h225q80 0 136.5 56t56.5 136v361q0 78 -56.5 129t-136.5 51h-225v-733z" />
<glyph unicode="Q" horiz-adv-x="856" d="M113 274v1082q0 123 86 209t209 86h41q123 0 208.5 -86t85.5 -209v-1082q0 -115 -75.5 -197.5t-188.5 -94.5v-289h-102v289q-113 12 -188.5 94.5t-75.5 197.5zM215 274q0 -72 46 -126t116 -64v190h102v-190q70 10 116 64.5t46 125.5v1082q0 80 -56.5 136t-135.5 56h-41 q-80 0 -136.5 -56t-56.5 -136v-1082z" />
<glyph unicode="R" horiz-adv-x="856" d="M143 0v1638h371q100 0 173 -71.5t73 -173.5v-295q0 -78 -44 -144.5t-114 -97.5q76 -29 124 -95.5t48 -150.5v-610h-102v610q0 119 -170 195h-256v-805h-103zM246 907h258q152 68 151 187v299q0 57 -41 101t-100 44h-268v-631z" />
<glyph unicode="S" horiz-adv-x="806" d="M92 274v304h103v-304q0 -80 56 -136t136 -56h33q80 0 136 56.5t56 135.5v158q0 166 -76.5 261t-228.5 186q-215 127 -215 364v113q0 123 86 209t209 86h33q123 0 209 -86t86 -209h-103q0 80 -56 136t-136 56h-33q-80 0 -136 -56t-56 -136v-113q0 -104 67.5 -180 t192.5 -152q129 -78 194.5 -185.5t65.5 -293.5v-158q0 -123 -86 -208.5t-209 -85.5h-33q-123 0 -209 85.5t-86 208.5z" />
<glyph unicode="T" horiz-adv-x="675" d="M0 1536v102h676v-102h-287v-1536h-102v1536h-287z" />
<glyph unicode="U" horiz-adv-x="876" d="M123 274v1364h102v-1364q0 -80 56.5 -136t136.5 -56h41q80 0 136 56.5t56 135.5v1364h103v-1364q0 -123 -86 -208.5t-209 -85.5h-41q-123 0 -209 85.5t-86 208.5z" />
<glyph unicode="V" horiz-adv-x="868" d="M20 1638h103l285 -1529q4 -27 20 -27h16q14 0 21 27l280 1529h103l-289 -1589q-4 -27 -30.5 -48t-57.5 -21h-70q-31 0 -57.5 21.5t-30.5 47.5z" />
<glyph unicode="W" horiz-adv-x="1470" d="M123 274v1364h102v-1364q0 -80 56.5 -136t136.5 -56h33q94 0 163.5 101.5t69.5 193.5v1261h102v-1261q0 -92 70 -193.5t164 -101.5h33q80 0 136 56.5t56 135.5v1364h103v-1364q0 -123 -86 -208.5t-209 -85.5h-33q-102 0 -180 60t-105 155q-27 -94 -104.5 -154.5 t-179.5 -60.5h-33q-123 0 -209 85.5t-86 208.5z" />
<glyph unicode="X" horiz-adv-x="819" d="M41 0l315 932l-237 706h104l187 -591l188 591h104l-241 -706l317 -932h-104l-264 817l-265 -817h-104z" />
<glyph unicode="Y" horiz-adv-x="868" d="M20 1638h103l285 -1058q4 -27 20 -27h16q14 0 21 27l280 1058h103l-289 -1118q-6 -23 -26.5 -43t-47.5 -26v-451h-102v453q-27 6 -46.5 25.5t-23.5 41.5z" />
<glyph unicode="Z" horiz-adv-x="737" d="M31 0l534 1536h-534v102h676l-533 -1536h533v-102h-676z" />
<glyph unicode="[" horiz-adv-x="575" d="M123 -143v1925h452v-103h-350v-1720h350v-102h-452z" />
<glyph unicode="\" horiz-adv-x="530" d="M0 1638h100l430 -1638h-102z" />
<glyph unicode="]" horiz-adv-x="575" d="M0 -41h350v1720h-350v103h453v-1925h-453v102z" />
<glyph unicode="^" horiz-adv-x="634" d="M63 1305l254 303h19l254 -303h-103l-157 200h-6l-158 -200h-103z" />
<glyph unicode="_" horiz-adv-x="716" d="M0 -49h717v-101h-717v101z" />
<glyph unicode="`" horiz-adv-x="612" d="M61 1567h117l207 -269h-117z" />
<glyph unicode="a" d="M61 176v141q0 106 56.5 187.5t146.5 109.5l285 91v190q0 80 -45 125t-125 45q-78 0 -124 -48t-46 -122v-41h-103v41q0 121 78 196.5t195 75.5t194.5 -75.5t77.5 -196.5v-895h-102v127q-20 -16 -53 -41t-111 -65.5t-127 -40.5q-82 0 -139.5 57t-57.5 139zM164 176 q0 -35 29.5 -64.5t64.5 -29.5q100 0 283 164l8 6v346l-242 -76q-72 -23 -107.5 -78t-35.5 -127v-141z" />
<glyph unicode="b" horiz-adv-x="825" d="M123 252v1315h102v-547q20 16 53 40.5t111 65.5t127 41q82 0 139.5 -57t57.5 -139v-719q0 -113 -80 -192.5t-193 -79.5h-45q-113 0 -192.5 79.5t-79.5 192.5zM225 252q0 -72 49.5 -121t120.5 -49h45q72 0 121 49t49 121v719q0 41 -28.5 67.5t-65.5 26.5q-49 0 -121.5 -42 t-120.5 -85l-49 -41v-645z" />
<glyph unicode="c" horiz-adv-x="743" d="M102 252v643q0 113 80 192.5t193 79.5h45q113 0 192.5 -79.5t79.5 -192.5v-154h-102v154q0 72 -49 121t-121 49h-45q-72 0 -121 -49t-49 -121v-643q0 -72 49 -121t121 -49h45q72 0 121 49t49 121v147h102v-147q0 -113 -80 -192.5t-192 -79.5h-45q-113 0 -193 79.5 t-80 192.5z" />
<glyph unicode="d" horiz-adv-x="825" d="M113 176v721q0 113 79.5 192.5t192.5 79.5h45q98 0 170 -59v455h102v-1565h-102v127q-20 -16 -53 -41t-111 -65.5t-127 -40.5q-82 0 -139 57t-57 139zM215 176q0 -41 28.5 -67.5t65.5 -26.5q100 0 283 164l8 6v655q0 66 -50 113t-120 47h-45q-70 0 -120 -50t-50 -120 v-721z" />
<glyph unicode="e" d="M102 252v643q0 113 80 192.5t193 79.5h45q113 0 192.5 -79.5t79.5 -192.5v-264h-487v-379q0 -72 49 -121t121 -49h45q72 0 121 49t49 121v147h102v-147q0 -113 -80 -192.5t-192 -79.5h-45q-113 0 -193 79.5t-80 192.5zM205 731h385v164q0 72 -49 121t-121 49h-45 q-72 0 -121 -49t-49 -121v-164z" />
<glyph unicode="f" horiz-adv-x="495" d="M10 1055v100h164v215q0 78 76 137.5t162 59.5v-103q-39 0 -87.5 -30.5t-48.5 -63.5v-215h220v-100h-220v-1176q0 -78 -75.5 -137t-161.5 -59v102q39 0 87 30.5t48 63.5v1176h-164z" />
<glyph unicode="g" horiz-adv-x="794" d="M102 289v608q0 113 80 192.5t193 79.5h45q113 0 192.5 -79.5t79.5 -192.5v-967q0 -113 -77.5 -190.5t-192.5 -77.5h-45q-115 0 -194 79t-79 193v46h103v-46q0 -70 50 -120t120 -50h45q70 0 120 50.5t50 119.5v314q-20 -18 -54 -44t-112 -69t-127 -43q-82 0 -139.5 57.5 t-57.5 139.5zM205 289q0 -41 28.5 -67.5t65.5 -26.5q100 0 283 163l8 7v532q0 70 -49 120t-121 50h-45q-72 0 -121 -50t-49 -120v-608z" />
<glyph unicode="h" horiz-adv-x="825" d="M123 0v1567h102v-547q20 16 53 40.5t111 65.5t127 41q82 0 139.5 -57t57.5 -139v-971h-103v971q0 41 -28.5 67.5t-65.5 26.5q-49 0 -121.5 -42t-120.5 -85l-49 -41v-897h-102z" />
<glyph unicode="i" horiz-adv-x="401" d="M133 176v971h103v-971q0 -31 46 -62.5t89 -31.5v-102q-86 0 -162 59t-76 137zM133 1350v217h103v-217h-103z" />
<glyph unicode="j" horiz-adv-x="372" d="M0 -215q39 0 87 30.5t48 63.5v1268h103v-1268q0 -78 -76 -137t-162 -59v102zM137 1350v217h103v-217h-103z" />
<glyph unicode="k" horiz-adv-x="718" d="M123 0v1567h100v-899h51l283 479h111l-301 -520v-19l403 -608h-111l-385 567h-51v-567h-100z" />
<glyph unicode="l" horiz-adv-x="401" d="M133 176v1389h103v-1389q0 -31 46 -62.5t89 -31.5v-102q-86 0 -162 59t-76 137z" />
<glyph unicode="m" horiz-adv-x="1394" d="M123 0v1147h102v-127q223 147 332 147q68 0 121 -42t70 -105h6q223 147 331 147q82 0 139.5 -57t57.5 -139v-971h-102v971q0 41 -29 67.5t-66 26.5q-49 0 -132 -42t-142 -85l-57 -41v-897h-103v971q0 41 -28.5 67.5t-65.5 26.5q-49 0 -132 -42t-142 -85l-58 -41v-897 h-102z" />
<glyph unicode="n" horiz-adv-x="825" d="M123 0v1147h102v-127q20 16 53 40.5t111 65.5t127 41q82 0 139.5 -57t57.5 -139v-971h-103v971q0 41 -28.5 67.5t-65.5 26.5q-49 0 -121.5 -42t-120.5 -85l-49 -41v-897h-102z" />
<glyph unicode="o" horiz-adv-x="794" d="M102 252v643q0 113 80 192.5t193 79.5h45q113 0 192.5 -79.5t79.5 -192.5v-643q0 -113 -80 -192.5t-192 -79.5h-45q-113 0 -193 79.5t-80 192.5zM205 252q0 -72 49 -121t121 -49h45q72 0 121 49t49 121v643q0 72 -49 121t-121 49h-45q-72 0 -121 -49t-49 -121v-643z" />
<glyph unicode="p" horiz-adv-x="815" d="M113 -319v1466h102v-127q20 16 53 40.5t111 65.5t127 41q82 0 139 -57t57 -139v-719q0 -113 -79.5 -192.5t-192.5 -79.5h-45q-98 0 -170 59v-358h-102zM215 252q0 -72 50 -121t120 -49h45q70 0 120 49t50 121v719q0 41 -28.5 67.5t-65.5 26.5q-49 0 -122 -42t-122 -85 l-47 -41v-645z" />
<glyph unicode="q" horiz-adv-x="804" d="M102 178v719q0 113 80 192.5t193 79.5h45q113 0 192.5 -79.5t79.5 -192.5v-1216h-102v448q-20 -16 -53 -41t-111 -65.5t-127 -40.5q-82 0 -139.5 57t-57.5 139zM205 178q0 -41 28.5 -67.5t65.5 -26.5q100 0 283 164l8 6v643q0 70 -49 120t-121 50h-45q-72 0 -121 -50 t-49 -120v-719z" />
<glyph unicode="r" horiz-adv-x="743" d="M123 0v1147h102v-127q20 16 53 40.5t111 65.5t127 41q82 0 139.5 -57t57.5 -139v-207h-103v207q0 41 -28.5 67.5t-65.5 26.5q-49 0 -121.5 -42t-120.5 -85l-49 -41v-897h-102z" />
<glyph unicode="s" horiz-adv-x="753" d="M82 252v182h102v-182q0 -72 49.5 -121t120.5 -49h45q72 0 121 49t49 121v70q0 41 -60 100t-120 98l-61 39q-10 6 -26.5 15.5t-58.5 41t-75 64.5t-59.5 81t-26.5 93v41q0 113 80 192.5t192 79.5h45q113 0 193 -79.5t80 -192.5v-41h-103v41q0 72 -49 121t-121 49h-45 q-72 0 -121 -49t-49 -121v-41q0 -41 59.5 -98.5t116.5 -93.5l60 -37l27.5 -16.5t60.5 -43.5t75.5 -66.5t60.5 -82.5t28 -94v-70q0 -113 -80 -192.5t-193 -79.5h-45q-113 0 -192.5 79.5t-79.5 192.5z" />
<glyph unicode="t" horiz-adv-x="485" d="M0 1047v100h164v297h102v-297h219v-100h-219v-871q0 -31 46 -62.5t89 -31.5v-102q-86 0 -161.5 59t-75.5 137v871h-164z" />
<glyph unicode="u" horiz-adv-x="825" d="M113 176v971h102v-971q0 -41 28.5 -67.5t65.5 -26.5q49 0 122 42t122 85l47 41v897h102v-1147h-102v127q-20 -16 -53 -41t-111 -65.5t-127 -40.5q-82 0 -139 57t-57 139z" />
<glyph unicode="v" horiz-adv-x="706" d="M31 1143h102l193 -1034q4 -27 20 -27h16q14 0 21 27l190 1034h103l-199 -1094q-4 -27 -30.5 -48t-57.5 -21h-70q-31 0 -57 21.5t-31 47.5z" />
<glyph unicode="w" horiz-adv-x="1384" d="M113 274v873h102v-873q0 -82 46 -137t124 -55h45q98 0 154.5 90t56.5 205v770h102v-770q0 -115 56.5 -205t154.5 -90h45q78 0 124 55.5t46 136.5v873h103v-873q0 -125 -76 -209.5t-197 -84.5h-45q-92 0 -163.5 54t-98.5 146q-27 -92 -98.5 -146t-163.5 -54h-45 q-121 0 -196.5 84.5t-75.5 209.5z" />
<glyph unicode="x" horiz-adv-x="694" d="M20 0l283 604l-235 543h102l184 -442l201 442h102l-251 -543l268 -604h-103l-217 502l-231 -502h-103z" />
<glyph unicode="y" horiz-adv-x="686" d="M20 1143h103l192 -1034q4 -27 21 -27h33l194 1059h103l-269 -1465h-102l55 304h-41q-31 0 -57.5 21.5t-30.5 47.5z" />
<glyph unicode="z" horiz-adv-x="684" d="M51 0v102l473 951h-469v102h572v-102l-475 -953h481v-100h-582z" />
<glyph unicode="{" horiz-adv-x="468" d="M41 741v156q94 0 127 33t33 174v385q0 252 186 272v-102q-84 -20 -84 -170v-385q0 -147 -38 -205.5t-122 -62.5v-33q86 -4 123 -60.5t37 -207.5v-385q0 -150 84 -170v-103q-186 20 -186 273v385q0 141 -33 173.5t-127 32.5z" />
<glyph unicode="|" horiz-adv-x="348" d="M123 -102v1843h102v-1843h-102z" />
<glyph unicode="}" horiz-adv-x="468" d="M82 -20q84 20 84 170v385q0 152 37 208t123 60v33q-84 4 -122 62t-38 206v385q0 150 -84 170v102q186 -20 186 -272v-385q0 -74 8.5 -117t33 -62.5t47 -23.5t71.5 -4v-156q-49 0 -71.5 -4t-47 -23.5t-33 -62.5t-8.5 -116v-385q0 -252 -186 -273v103z" />
<glyph unicode="~" horiz-adv-x="628" d="M49 1423q53 63 127 64q51 0 142.5 -36t138.5 -36q61 0 114 58l11 -95q-55 -66 -125 -65q-51 0 -142.5 35.5t-138.5 35.5q-66 0 -117 -55z" />
<glyph unicode="&#xa1;" horiz-adv-x="557" d="M225 -322v1209h103v-1209h-103zM225 1092v217h103v-217h-103z" />
<glyph unicode="&#xa2;" horiz-adv-x="743" d="M102 473v643q0 106 70 183t174 87v181h103v-181q104 -10 173.5 -87.5t69.5 -182.5v-153h-102v153q0 61 -40 109.5t-101 58.5v-979q59 10 100 57.5t41 110.5v148h102v-148q0 -104 -69.5 -182t-173.5 -88v-203h-103v203q-104 10 -174 87t-70 183zM205 473q0 -63 40 -111.5 t101 -56.5v979q-61 -10 -101 -57t-40 -111v-643z" />
<glyph unicode="&#xa3;" horiz-adv-x="921" d="M31 0v102h286q-109 53 -108 177v501h-178v103h178v411q0 123 86 209t209 86h33q123 0 208.5 -86t85.5 -209v-196h-102v196q0 80 -56.5 136.5t-135.5 56.5h-33q-80 0 -136.5 -56.5t-56.5 -136.5v-411h181v-103h-181v-501q0 -94 162 -177h367v-102h-809z" />
<glyph unicode="&#xa5;" horiz-adv-x="868" d="M20 1569h103l285 -785q4 -27 20 -26h16q14 0 21 26l280 785h103l-289 -844q-4 -23 -25.5 -43t-48.5 -27v-153h277v-103h-277v-73h277v-103h-277v-223h-102v223h-289v103h289v73h-289v103h289v155q-27 6 -46.5 25.5t-23.5 42.5z" />
<glyph unicode="&#xa6;" horiz-adv-x="348" d="M123 -102v798h102v-798h-102zM123 942v799h102v-799h-102z" />
<glyph unicode="&#xa7;" horiz-adv-x="753" d="M82 262v182h102v-182q0 -70 49.5 -120t120.5 -50h45q72 0 121 50.5t49 119.5v70q0 41 -60 100.5t-120 97.5l-61 39q-10 6 -26.5 15.5t-58.5 41t-75 64.5t-59.5 81t-26.5 93v41q0 80 41 144q-41 61 -41 120v41q0 113 80 193t192 80h45q113 0 193 -80t80 -193v-41h-103v41 q0 72 -49 121t-121 49h-45q-72 0 -121 -49t-49 -121v-41q0 -41 59.5 -98t116.5 -94l60 -37l27.5 -16.5t60.5 -43t75.5 -66.5t60.5 -83t28 -94v-70q0 -70 -33 -131q33 -53 33 -104v-70q0 -113 -80 -192.5t-193 -79.5h-45q-113 0 -192.5 79.5t-79.5 192.5zM184 864 q0 -41 59.5 -98t116.5 -94l60 -37q76 -43 143 -109q6 18 6 41v70q0 41 -60 100.5t-120 98.5l-61 38q-68 35 -133 95q-10 -35 -11 -64v-41z" />
<glyph unicode="&#xa8;" horiz-adv-x="516" d="M76 1351.5q0 24.5 17.5 43t42 18.5t43 -18.5t18.5 -43t-18.5 -42t-43 -17.5t-42 17.5t-17.5 42zM324 1351.5q0 24.5 18 43t43 18.5t42 -18.5t17 -43t-17 -42t-42 -17.5t-43 17.5t-18 42z" />
<glyph unicode="&#xa9;" horiz-adv-x="1081" d="M123 307v529q0 137 114.5 232t280.5 95h45q166 0 280.5 -95t114.5 -232v-529q0 -137 -114.5 -232t-280.5 -95h-45q-166 0 -280.5 95t-114.5 232zM205 307q0 -100 88 -173t225 -73h45q137 0 225.5 73t88.5 173v529q0 109 -92.5 177t-221.5 68h-45q-137 0 -225 -72.5 t-88 -172.5v-529zM246 307v529q0 84 80 144t192 60h45q113 0 193 -60t80 -144v-115h-82v115q0 53 -54.5 87.5t-136.5 34.5h-45q-80 0 -135 -32.5t-55 -89.5v-529q0 -53 54 -88t136 -35h45q82 0 136.5 35t54.5 88v111h82v-111q0 -84 -80 -144.5t-193 -60.5h-45 q-113 0 -192.5 60.5t-79.5 144.5z" />
<glyph unicode="&#xaa;" horiz-adv-x="538" d="M72 676v80h395v-80h-395zM92 991v121q0 74 29 106.5t90 51.5l154 49v102q0 82 -82 82t-82 -82v-24h-82v24q0 70 48 117t115.5 47t115.5 -47t48 -117v-536h-81v61q-98 -74 -154 -74q-49 0 -84 35t-35 84zM174 991q0 -37 37 -37q25 0 62.5 20.5t64.5 41.5l27 20v199 l-142 -45q-49 -16 -49 -78v-121z" />
<glyph unicode="&#xab;" horiz-adv-x="950" d="M61 489l412 302l68 -70l-324 -232l324 -231l-68 -70zM369 489l411 302l68 -70l-324 -232l324 -231l-68 -70z" />
<glyph unicode="&#xac;" horiz-adv-x="860" d="M82 629v100h696v-371h-100v271h-596z" />
<glyph unicode="&#xad;" horiz-adv-x="614" d="M82 670v100h450v-100h-450z" />
<glyph unicode="&#xae;" horiz-adv-x="921" d="M139 850v475q0 125 88 211t215 86h33q127 0 215 -86t88 -211v-475q0 -125 -88 -211t-215 -86h-33q-127 0 -215 86t-88 211zM221 850q0 -94 72 -154.5t149 -60.5h33q78 0 149.5 60.5t71.5 154.5v475q0 94 -71.5 154.5t-149.5 60.5h-33q-78 0 -149.5 -60.5t-71.5 -154.5 v-475zM330 770v655h157q41 0 76 -29.5t35 -68.5v-119q0 -68 -63 -96q68 -25 67 -98v-244h-82v244q0 57 -67 57h-41v-301h-82zM412 1153h41q61 0 61 55v99q0 37 -61 36h-41v-190z" />
<glyph unicode="&#xaf;" horiz-adv-x="614" d="M82 1325v100h450v-100h-450z" />
<glyph unicode="&#xb0;" horiz-adv-x="577" d="M82 1266v49q0 80 56.5 135t133.5 55h33q78 0 134.5 -55t56.5 -135v-49q0 -78 -56.5 -134.5t-134.5 -56.5h-33q-78 0 -134 56.5t-56 134.5zM184 1266q0 -37 26 -62.5t62 -25.5h33q37 0 62.5 25.5t25.5 62.5v49q0 37 -25.5 62.5t-62.5 25.5h-33q-37 0 -62.5 -25.5 t-25.5 -62.5v-49z" />
<glyph unicode="&#xb1;" horiz-adv-x="880" d="M82 301v100h717v-100h-717zM82 793v100h307v285h100v-285h310v-100h-310v-332h-100v332h-307z" />
<glyph unicode="&#xb2;" horiz-adv-x="585" d="M123 737v103q0 70 15.5 119t33.5 73.5t64 71.5q125 131 124 274v45q0 53 -53 54h-18q-53 0 -53 -54h-103q0 63 46 109.5t110 46.5h18q66 0 111 -46t45 -110v-45q0 -176 -146 -336q-57 -63 -73.5 -97t-16.5 -105h236v-103h-340z" />
<glyph unicode="&#xb3;" horiz-adv-x="575" d="M115 1423v25q0 53 44 91t99 38h43q55 0 99 -38t44 -91v-127q0 -94 -73 -127q82 -31 82 -131v-205q0 -53 -44 -91t-100 -38h-43q-55 0 -99 38t-44 91v186h102v-176q0 -10 10.5 -23.5t30.5 -13.5h43q20 0 30.5 13.5t10.5 23.5v195q0 41 -33.5 65.5t-68.5 24.5h-66v82h66 q10 0 25.5 2t42 23.5t26.5 60.5v117q0 10 -10 23.5t-31 13.5h-43q-20 0 -30.5 -13.5t-10.5 -23.5v-15h-102z" />
<glyph unicode="&#xb4;" horiz-adv-x="612" d="M266 1298l207 269h117l-205 -269h-119z" />
<glyph unicode="&#xb5;" horiz-adv-x="1257" d="M123 0l63 1638h224l219 -1413l223 1413h221l62 -1638h-103l-59 1536h-41l-252 -1516h-102l-250 1516h-41l-62 -1536h-102z" />
<glyph unicode="&#xb6;" horiz-adv-x="983" d="M82 723v643q0 113 80 192.5t192 79.5h475v-1945h-102v1845h-184v-1845h-103v758h-86q-113 0 -192.5 79.5t-79.5 192.5zM184 723q0 -72 49.5 -121t120.5 -49h86v985h-86q-70 0 -120 -50t-50 -122v-643z" />
<glyph unicode="&#xb7;" horiz-adv-x="325" d="M102 591.5q0 24.5 17.5 43t42 18.5t43 -18.5t18.5 -43t-18.5 -42t-43 -17.5t-42 17.5t-17.5 42z" />
<glyph unicode="&#xb8;" horiz-adv-x="862" d="M281 -465l71 72q61 -31 97 -31q68 0 111.5 39t43.5 96q0 53 -38 94t-95 41h-68l35 209h107l-25 -110q82 -18 134.5 -85t52.5 -149q0 -100 -73 -168.5t-185 -68.5q-70 0 -168 61z" />
<glyph unicode="&#xb9;" horiz-adv-x="489" d="M154 1464v103h182v-830h-103v727h-79z" />
<glyph unicode="&#xba;" horiz-adv-x="581" d="M92 676v80h397v-80h-397zM113 1036v385q0 70 47 117t116 47h27q68 0 116 -47t48 -117v-385q0 -68 -48 -116t-116 -48h-27q-70 0 -116.5 48t-46.5 116zM195 1036q0 -41 24.5 -61.5t56.5 -20.5h27q33 0 57.5 20.5t24.5 61.5v385q0 41 -24.5 61.5t-57.5 20.5h-27 q-33 0 -57 -20.5t-24 -61.5v-385z" />
<glyph unicode="&#xbb;" horiz-adv-x="950" d="M102 258l324 231l-324 232l68 70l412 -302l-412 -301zM410 258l323 231l-323 232l67 70l412 -302l-412 -301z" />
<glyph unicode="&#xbc;" horiz-adv-x="1189" d="M154 1464v103h182v-830h-103v727h-79zM287 0l516 1634h102l-516 -1634h-102zM641 195l225 641h181v-539h40v-102h-40v-195h-103v195h-303zM797 297h147v440h-20z" />
<glyph unicode="&#xbd;" horiz-adv-x="1198" d="M154 1464v103h182v-830h-103v727h-79zM287 0l516 1634h102l-516 -1634h-102zM735 0v102q0 70 15.5 119t34 73.5t63.5 72.5q125 131 125 274v45q0 53 -53 53h-19q-53 0 -53 -53h-103q0 63 45.5 109.5t110.5 46.5h19q63 0 109 -46t46 -110v-45q0 -176 -145 -336 q-57 -63 -73.5 -97t-16.5 -106h235v-102h-340z" />
<glyph unicode="&#xbe;" horiz-adv-x="1157" d="M115 1423v25q0 53 44 91t99 38h43q55 0 99 -38t44 -91v-127q0 -94 -73 -127q82 -31 82 -131v-205q0 -53 -44 -91t-100 -38h-43q-55 0 -99 38t-44 91v186h102v-176q0 -10 10.5 -23.5t30.5 -13.5h43q20 0 30.5 13.5t10.5 23.5v195q0 41 -33.5 65.5t-68.5 24.5h-66v82h66 q10 0 25.5 2t42 23.5t26.5 60.5v117q0 10 -10 23.5t-31 13.5h-43q-20 0 -30.5 -13.5t-10.5 -23.5v-15h-102zM295 0l516 1634h102l-516 -1634h-102zM588 195l225 641h180v-539h41v-102h-41v-195h-102v195h-303zM743 297h148v440h-21z" />
<glyph unicode="&#xbf;" horiz-adv-x="794" d="M82 -68v232q0 92 49 164.5t148 72.5q47 0 91 33t44 103v374h102v-374q0 -102 -68.5 -170t-168.5 -68q-47 0 -71 -45t-24 -90v-232q0 -72 49.5 -121t120.5 -49h86q72 0 121 49.5t49 120.5v213h103v-213q0 -113 -80 -192.5t-193 -79.5h-86q-113 0 -192.5 79.5t-79.5 192.5z M414 1094v217h102v-217h-102z" />
<glyph unicode="&#xc0;" horiz-adv-x="862" d="M20 0l285 1581q4 27 30.5 48.5t57.5 21.5h70q31 0 57.5 -21.5t30.5 -48.5l291 -1581h-103l-82 438h-454l-80 -438h-103zM195 1976h116l207 -268h-117zM221 541h418l-182 981q-4 27 -21 26h-16q-14 0 -21 -26z" />
<glyph unicode="&#xc1;" horiz-adv-x="862" d="M20 0l285 1581q4 27 30.5 48.5t57.5 21.5h70q31 0 57.5 -21.5t30.5 -48.5l291 -1581h-103l-82 438h-454l-80 -438h-103zM221 541h418l-182 981q-4 27 -21 26h-16q-14 0 -21 -26zM358 1708l207 268h117l-205 -268h-119z" />
<glyph unicode="&#xc2;" horiz-adv-x="862" d="M20 0l285 1581q4 27 30.5 48.5t57.5 21.5h70q31 0 57.5 -21.5t30.5 -48.5l291 -1581h-103l-82 438h-454l-80 -438h-103zM164 1714l254 303h18l254 -303h-102l-158 201h-6l-158 -201h-102zM221 541h418l-182 981q-4 27 -21 26h-16q-14 0 -21 -26z" />
<glyph unicode="&#xc3;" horiz-adv-x="862" d="M20 0l285 1581q4 27 30.5 48.5t57.5 21.5h70q31 0 57.5 -21.5t30.5 -48.5l291 -1581h-103l-82 438h-454l-80 -438h-103zM164 1833q53 63 127 63q51 0 142 -35.5t138 -35.5q61 0 115 57l10 -94q-55 -66 -125 -66q-51 0 -142 36t-138 36q-66 0 -117 -55zM221 541h418 l-182 981q-4 27 -21 26h-16q-14 0 -21 -26z" />
<glyph unicode="&#xc4;" horiz-adv-x="862" d="M20 0l285 1581q4 27 30.5 48.5t57.5 21.5h70q31 0 57.5 -21.5t30.5 -48.5l291 -1581h-103l-82 438h-454l-80 -438h-103zM221 541h418l-182 981q-4 27 -21 26h-16q-14 0 -21 -26zM240 1761.5q0 24.5 17 43t42 18.5t43 -18.5t18 -43t-18 -42t-43 -17.5t-42 17.5t-17 42z M487 1761.5q0 24.5 18.5 43t43 18.5t42 -18.5t17.5 -43t-17.5 -42t-42 -17.5t-43 17.5t-18.5 42z" />
<glyph unicode="&#xc5;" horiz-adv-x="862" d="M20 0l285 1581q4 27 30.5 48.5t57.5 21.5h70q31 0 57.5 -21.5t30.5 -48.5l291 -1581h-103l-82 438h-454l-80 -438h-103zM221 541h418l-182 981q-4 27 -21 26h-16q-14 0 -21 -26zM231 1884q0 82 57.5 139.5t139.5 57.5t139.5 -57.5t57.5 -139.5t-57.5 -139t-139.5 -57 t-139.5 57t-57.5 139zM334 1884q0 -39 27.5 -66.5t66.5 -27.5t66.5 27.5t27.5 66.5t-27.5 66.5t-66.5 27.5t-66.5 -27.5t-27.5 -66.5z" />
<glyph unicode="&#xc6;" horiz-adv-x="1050" d="M20 0l285 1581q4 27 30.5 48.5t57.5 21.5h617v-103h-406v-594h350v-102h-350v-750h406v-102h-508v438h-299l-80 -438h-103zM221 541h281v1007h-82q-14 0 -21 -26z" />
<glyph unicode="&#xc7;" horiz-adv-x="845" d="M113 274v1082q0 123 86 209t209 86h41q123 0 208.5 -86t85.5 -209v-258h-102v258q0 80 -56.5 136t-135.5 56h-41q-80 0 -136.5 -56t-56.5 -136v-1082q0 -80 56.5 -136t136.5 -56h41q80 0 134 56.5t54 135.5v324h106v-324q0 -123 -86 -208.5t-208 -85.5h-35l-8 -35 q82 -18 134 -85t52 -149q0 -100 -73 -168.5t-185 -68.5q-70 0 -168 61l72 72q61 -31 96 -31q68 0 111.5 39t43.5 96q0 53 -37.5 94t-95.5 41h-67l24 150q-88 29 -144 105.5t-56 172.5z" />
<glyph unicode="&#xc8;" horiz-adv-x="692" d="M143 0v1638h508v-102h-405v-582h350v-102h-350v-750h405v-102h-508zM178 1976h117l207 -268h-117z" />
<glyph unicode="&#xc9;" horiz-adv-x="692" d="M143 0v1638h508v-102h-405v-582h350v-102h-350v-750h405v-102h-508zM260 1708l207 268h117l-205 -268h-119z" />
<glyph unicode="&#xca;" horiz-adv-x="710" d="M143 1714l254 303h19l254 -303h-103l-157 201h-7l-157 -201h-103zM156 0v1638h508v-102h-406v-582h350v-102h-350v-750h406v-102h-508z" />
<glyph unicode="&#xcb;" horiz-adv-x="692" d="M143 0v1638h508v-102h-405v-582h350v-102h-350v-750h405v-102h-508zM213 1761.5q0 24.5 17.5 43t42 18.5t43 -18.5t18.5 -43t-18.5 -42t-43 -17.5t-42 17.5t-17.5 42zM461 1761.5q0 24.5 18.5 43t43 18.5t42 -18.5t17.5 -43t-17.5 -42t-42 -17.5t-43 17.5t-18.5 42z" />
<glyph unicode="&#xcc;" horiz-adv-x="425" d="M0 1976h117l207 -268h-117zM154 0v1638h102v-1638h-102z" />
<glyph unicode="&#xcd;" horiz-adv-x="425" d="M92 1708l207 268h117l-205 -268h-119zM154 0v1638h102v-1638h-102z" />
<glyph unicode="&#xce;" horiz-adv-x="409" d="M-57 1714l254 303h18l254 -303h-102l-158 201h-6l-158 -201h-102zM154 0v1638h102v-1638h-102z" />
<glyph unicode="&#xcf;" horiz-adv-x="401" d="M16 1761.5q0 24.5 17.5 43t42 18.5t43 -18.5t18.5 -43t-18.5 -42t-43 -17.5t-42 17.5t-17.5 42zM154 0v1638h102v-1638h-102zM264 1761.5q0 24.5 18.5 43t43 18.5t42 -18.5t17.5 -43t-17.5 -42t-42 -17.5t-43 17.5t-18.5 42z" />
<glyph unicode="&#xd0;" horiz-adv-x="948" d="M102 836v100h103v702h336q125 0 210 -80.5t85 -201.5v-1061q0 -123 -86 -209t-209 -86h-336v836h-103zM307 102h234q80 0 136 56.5t56 136.5v1061q0 78 -56 129t-136 51h-234v-600h197v-100h-197v-734z" />
<glyph unicode="&#xd1;" horiz-adv-x="993" d="M143 0v1638h226l338 -1536h41v1536h102v-1638h-221l-342 1536h-41v-1536h-103zM219 1833q53 63 127 63q51 0 142.5 -35.5t138.5 -35.5q61 0 114 57l11 -94q-55 -66 -125 -66q-51 0 -142.5 36t-138.5 36q-66 0 -117 -55z" />
<glyph unicode="&#xd2;" horiz-adv-x="856" d="M113 274v1082q0 123 86 209t209 86h41q123 0 208.5 -86t85.5 -209v-1082q0 -123 -86 -208.5t-208 -85.5h-41q-123 0 -209 85.5t-86 208.5zM215 274q0 -80 56.5 -136t136.5 -56h41q80 0 136 56.5t56 135.5v1082q0 80 -56.5 136t-135.5 56h-41q-80 0 -136.5 -56t-56.5 -136 v-1082zM229 1976h117l207 -268h-117z" />
<glyph unicode="&#xd3;" horiz-adv-x="856" d="M113 274v1082q0 123 86 209t209 86h41q123 0 208.5 -86t85.5 -209v-1082q0 -123 -86 -208.5t-208 -85.5h-41q-123 0 -209 85.5t-86 208.5zM215 274q0 -80 56.5 -136t136.5 -56h41q80 0 136 56.5t56 135.5v1082q0 80 -56.5 136t-135.5 56h-41q-80 0 -136.5 -56t-56.5 -136 v-1082zM369 1708l206 268h117l-205 -268h-118z" />
<glyph unicode="&#xd4;" horiz-adv-x="856" d="M113 274v1082q0 123 86 209t209 86h41q123 0 208.5 -86t85.5 -209v-1082q0 -123 -86 -208.5t-208 -85.5h-41q-123 0 -209 85.5t-86 208.5zM160 1714l254 303h18l254 -303h-102l-158 201h-6l-158 -201h-102zM215 274q0 -80 56.5 -136t136.5 -56h41q80 0 136 56.5t56 135.5 v1082q0 80 -56.5 136t-135.5 56h-41q-80 0 -136.5 -56t-56.5 -136v-1082z" />
<glyph unicode="&#xd5;" horiz-adv-x="856" d="M113 274v1082q0 123 86 209t209 86h41q123 0 208.5 -86t85.5 -209v-1082q0 -123 -86 -208.5t-208 -85.5h-41q-123 0 -209 85.5t-86 208.5zM158 1833q53 63 127 63q51 0 142 -35.5t138 -35.5q61 0 115 57l10 -94q-55 -66 -125 -66q-51 0 -142 36t-138 36q-66 0 -117 -55z M215 274q0 -80 56.5 -136t136.5 -56h41q80 0 136 56.5t56 135.5v1082q0 80 -56.5 136t-135.5 56h-41q-80 0 -136.5 -56t-56.5 -136v-1082z" />
<glyph unicode="&#xd6;" horiz-adv-x="856" d="M113 274v1082q0 123 86 209t209 86h41q123 0 208.5 -86t85.5 -209v-1082q0 -123 -86 -208.5t-208 -85.5h-41q-123 0 -209 85.5t-86 208.5zM215 274q0 -80 56.5 -136t136.5 -56h41q80 0 136 56.5t56 135.5v1082q0 80 -56.5 136t-135.5 56h-41q-80 0 -136.5 -56t-56.5 -136 v-1082zM236 1761.5q0 24.5 17 43t41.5 18.5t43 -18.5t18.5 -43t-18.5 -42t-43 -17.5t-41.5 17.5t-17 42zM483 1761.5q0 24.5 18.5 43t43 18.5t42 -18.5t17.5 -43t-17.5 -42t-42 -17.5t-43 17.5t-18.5 42z" />
<glyph unicode="&#xd7;" horiz-adv-x="937" d="M180 479l234 234l-217 219l71 69l217 -217l201 201l72 -70l-203 -202l219 -217l-69 -72l-220 219l-235 -235z" />
<glyph unicode="&#xd8;" horiz-adv-x="921" d="M113 -123l77 246q-41 70 -40 151v1082q0 123 86 209t208 86h41q90 0 170 -54l52 164h102l-78 -243q49 -76 49 -162v-1082q0 -123 -86 -208.5t-209 -85.5h-41q-102 0 -178 59l-51 -162h-102zM252 317l369 1174q-57 57 -136 57h-41q-80 0 -136 -56t-56 -136v-1039zM299 145 q57 -63 145 -63h41q80 0 136.5 56.5t56.5 135.5v1072z" />
<glyph unicode="&#xd9;" horiz-adv-x="876" d="M123 274v1364h102v-1364q0 -80 56.5 -136t136.5 -56h41q80 0 136 56.5t56 135.5v1364h103v-1364q0 -123 -86 -208.5t-209 -85.5h-41q-123 0 -209 85.5t-86 208.5zM240 1976h116l207 -268h-117z" />
<glyph unicode="&#xda;" horiz-adv-x="876" d="M123 274v1364h102v-1364q0 -80 56.5 -136t136.5 -56h41q80 0 136 56.5t56 135.5v1364h103v-1364q0 -123 -86 -208.5t-209 -85.5h-41q-123 0 -209 85.5t-86 208.5zM379 1708l207 268h116l-204 -268h-119z" />
<glyph unicode="&#xdb;" horiz-adv-x="876" d="M123 274v1364h102v-1364q0 -80 56.5 -136t136.5 -56h41q80 0 136 56.5t56 135.5v1364h103v-1364q0 -123 -86 -208.5t-209 -85.5h-41q-123 0 -209 85.5t-86 208.5zM176 1714l254 303h19l253 -303h-102l-158 201h-6l-157 -201h-103z" />
<glyph unicode="&#xdc;" horiz-adv-x="876" d="M123 274v1364h102v-1364q0 -80 56.5 -136t136.5 -56h41q80 0 136 56.5t56 135.5v1364h103v-1364q0 -123 -86 -208.5t-209 -85.5h-41q-123 0 -209 85.5t-86 208.5zM248 1761.5q0 24.5 17.5 43t42 18.5t43 -18.5t18.5 -43t-18.5 -42t-43 -17.5t-42 17.5t-17.5 42z M496 1761.5q0 24.5 18 43t43 18.5t42 -18.5t17 -43t-17 -42t-42 -17.5t-43 17.5t-18 42z" />
<glyph unicode="&#xdd;" horiz-adv-x="868" d="M20 1638h103l285 -1058q4 -27 20 -27h16q14 0 21 27l280 1058h103l-289 -1118q-6 -23 -26.5 -43t-47.5 -26v-451h-102v453q-27 6 -46.5 25.5t-23.5 41.5zM313 1708l207 268h117l-205 -268h-119z" />
<glyph unicode="&#xde;" horiz-adv-x="827" d="M143 0v1618h103v-305h225q125 0 210 -81t85 -202v-360q0 -123 -86 -209t-209 -86h-225v-375h-103zM246 477h225q80 0 136.5 56.5t56.5 136.5v360q0 78 -56.5 129t-136.5 51h-225v-733z" />
<glyph unicode="&#xdf;" horiz-adv-x="845" d="M10 -217q39 0 87 30.5t48 63.5v1460q0 121 70 184.5t195 63.5h32q127 0 202 -63.5t75 -184.5v-237q0 -78 -44 -144.5t-114 -97.5q76 -27 124 -96.5t48 -149.5v-387q0 -119 -80 -182t-209 -63h-34v102h32q188 0 189 143v387q0 51 -62.5 123t-109.5 72h-90v102h90 q47 0 102 70t55 121v237q0 145 -174 146h-32q-82 0 -122 -34t-40 -112v-1460q0 -78 -76 -137t-162 -59v102z" />
<glyph unicode="&#xe0;" d="M61 176v141q0 106 56.5 187.5t146.5 109.5l285 91v190q0 80 -45 125t-125 45q-78 0 -124 -48t-46 -122v-41h-103v41q0 121 78 196.5t195 75.5t194.5 -75.5t77.5 -196.5v-895h-102v127q-20 -16 -53 -41t-111 -65.5t-127 -40.5q-82 0 -139.5 57t-57.5 139zM164 176 q0 -35 29.5 -64.5t64.5 -29.5q100 0 283 164l8 6v346l-242 -76q-72 -23 -107.5 -78t-35.5 -127v-141zM227 1567h117l207 -269h-117z" />
<glyph unicode="&#xe1;" d="M61 176v141q0 106 56.5 187.5t146.5 109.5l285 91v190q0 80 -45 125t-125 45q-78 0 -124 -48t-46 -122v-41h-103v41q0 121 78 196.5t195 75.5t194.5 -75.5t77.5 -196.5v-895h-102v127q-20 -16 -53 -41t-111 -65.5t-127 -40.5q-82 0 -139.5 57t-57.5 139zM164 176 q0 -35 29.5 -64.5t64.5 -29.5q100 0 283 164l8 6v346l-242 -76q-72 -23 -107.5 -78t-35.5 -127v-141zM289 1298l207 269h116l-204 -269h-119z" />
<glyph unicode="&#xe2;" horiz-adv-x="765" d="M61 176v141q0 106 56.5 187.5t146.5 109.5l285 91v190q0 80 -45 125t-125 45q-78 0 -124 -48t-46 -122v-41h-103v41q0 121 78 196.5t195 75.5t194.5 -75.5t77.5 -196.5v-895h-102v127q-20 -16 -53 -41t-111 -65.5t-127 -40.5q-82 0 -139.5 57t-57.5 139zM127 1305 l254 303h18l254 -303h-102l-158 200h-6l-158 -200h-102zM164 176q0 -35 29.5 -64.5t64.5 -29.5q100 0 283 164l8 6v346l-242 -76q-72 -23 -107.5 -78t-35.5 -127v-141z" />
<glyph unicode="&#xe3;" d="M61 176v141q0 106 56.5 187.5t146.5 109.5l285 91v190q0 80 -45 125t-125 45q-78 0 -124 -48t-46 -122v-41h-103v41q0 121 78 196.5t195 75.5t194.5 -75.5t77.5 -196.5v-895h-102v127q-20 -16 -53 -41t-111 -65.5t-127 -40.5q-82 0 -139.5 57t-57.5 139zM94 1423 q53 63 127 64q51 0 142.5 -36t138.5 -36q61 0 114 58l11 -95q-55 -66 -125 -65q-51 0 -142.5 35.5t-138.5 35.5q-66 0 -117 -55zM164 176q0 -35 29.5 -64.5t64.5 -29.5q100 0 283 164l8 6v346l-242 -76q-72 -23 -107.5 -78t-35.5 -127v-141z" />
<glyph unicode="&#xe4;" d="M61 176v141q0 106 56.5 187.5t146.5 109.5l285 91v190q0 80 -45 125t-125 45q-78 0 -124 -48t-46 -122v-41h-103v41q0 121 78 196.5t195 75.5t194.5 -75.5t77.5 -196.5v-895h-102v127q-20 -16 -53 -41t-111 -65.5t-127 -40.5q-82 0 -139.5 57t-57.5 139zM164 176 q0 -35 29.5 -64.5t64.5 -29.5q100 0 283 164l8 6v346l-242 -76q-72 -23 -107.5 -78t-35.5 -127v-141zM184 1351.5q0 24.5 17.5 43t42 18.5t43 -18.5t18.5 -43t-18.5 -42t-43 -17.5t-42 17.5t-17.5 42zM432 1351.5q0 24.5 18.5 43t43 18.5t42 -18.5t17.5 -43t-17.5 -42 t-42 -17.5t-43 17.5t-18.5 42z" />
<glyph unicode="&#xe5;" d="M61 176v141q0 106 56.5 187.5t146.5 109.5l285 91v190q0 80 -45 125t-125 45q-78 0 -124 -48t-46 -122v-41h-103v41q0 121 78 196.5t195 75.5t194.5 -75.5t77.5 -196.5v-895h-102v127q-20 -16 -53 -41t-111 -65.5t-127 -40.5q-82 0 -139.5 57t-57.5 139zM164 176 q0 -35 29.5 -64.5t64.5 -29.5q100 0 283 164l8 6v346l-242 -76q-72 -23 -107.5 -78t-35.5 -127v-141zM168 1454q0 82 57.5 139.5t139 57.5t139 -57.5t57.5 -139.5t-57.5 -139.5t-139 -57.5t-139 57.5t-57.5 139.5zM270 1454q0 -39 28 -66.5t66.5 -27.5t66.5 27.5t28 66.5 t-28 66.5t-66.5 27.5t-66.5 -27.5t-28 -66.5z" />
<glyph unicode="&#xe6;" horiz-adv-x="1210" d="M61 176v141q0 106 56.5 187.5t146.5 109.5l285 91v190q0 80 -45 125t-125 45q-78 0 -124 -48t-46 -122v-41h-103v41q0 121 78 196.5t195 75.5q145 0 223 -110q80 111 219 110h45q113 0 193 -79.5t80 -192.5v-264h-488v-379q0 -72 49.5 -121t120.5 -49h45q72 0 121 49 t49 121v147h103v-147q0 -113 -80 -192.5t-193 -79.5h-45q-84 0 -151.5 45t-98.5 118l-22 -16q-20 -16 -53 -41t-111 -65.5t-127 -40.5q-82 0 -139.5 57t-57.5 139zM164 176q0 -35 29.5 -64.5t64.5 -29.5q100 0 283 164l8 6v346l-242 -76q-72 -23 -107.5 -78t-35.5 -127v-141 zM651 731h385v164q0 72 -49 121t-121 49h-45q-78 0 -124 -49t-46 -121v-164z" />
<glyph unicode="&#xe7;" horiz-adv-x="743" d="M102 252v643q0 113 80 192.5t193 79.5h45q113 0 192.5 -79.5t79.5 -192.5v-154h-102v154q0 72 -49 121t-121 49h-45q-72 0 -121 -49t-49 -121v-643q0 -72 49 -121t121 -49h45q72 0 121 49t49 121v147h102v-147q0 -113 -80 -192.5t-192 -79.5h-6l-8 -35q82 -18 134 -85 t52 -149q0 -100 -73 -168.5t-185 -68.5q-70 0 -168 61l72 72q61 -31 96 -31q68 0 111.5 39t43.5 96q0 53 -37.5 94t-95.5 41h-67l22 142q-90 20 -149.5 94t-59.5 170z" />
<glyph unicode="&#xe8;" d="M102 252v643q0 113 80 192.5t193 79.5h45q113 0 192.5 -79.5t79.5 -192.5v-264h-487v-379q0 -72 49 -121t121 -49h45q72 0 121 49t49 121v147h102v-147q0 -113 -80 -192.5t-192 -79.5h-45q-113 0 -193 79.5t-80 192.5zM205 731h385v164q0 72 -49 121t-121 49h-45 q-72 0 -121 -49t-49 -121v-164zM244 1567h116l207 -269h-116z" />
<glyph unicode="&#xe9;" d="M102 252v643q0 113 80 192.5t193 79.5h45q113 0 192.5 -79.5t79.5 -192.5v-264h-487v-379q0 -72 49 -121t121 -49h45q72 0 121 49t49 121v147h102v-147q0 -113 -80 -192.5t-192 -79.5h-45q-113 0 -193 79.5t-80 192.5zM205 731h385v164q0 72 -49 121t-121 49h-45 q-72 0 -121 -49t-49 -121v-164zM285 1298l207 269h116l-205 -269h-118z" />
<glyph unicode="&#xea;" d="M102 252v643q0 113 80 192.5t193 79.5h45q113 0 192.5 -79.5t79.5 -192.5v-264h-487v-379q0 -72 49 -121t121 -49h45q72 0 121 49t49 121v147h102v-147q0 -113 -80 -192.5t-192 -79.5h-45q-113 0 -193 79.5t-80 192.5zM133 1305l254 303h19l253 -303h-102l-158 200h-6 l-157 -200h-103zM205 731h385v164q0 72 -49 121t-121 49h-45q-72 0 -121 -49t-49 -121v-164z" />
<glyph unicode="&#xeb;" d="M102 252v643q0 113 80 192.5t193 79.5h45q113 0 192.5 -79.5t79.5 -192.5v-264h-487v-379q0 -72 49 -121t121 -49h45q72 0 121 49t49 121v147h102v-147q0 -113 -80 -192.5t-192 -79.5h-45q-113 0 -193 79.5t-80 192.5zM205 731h385v164q0 72 -49 121t-121 49h-45 q-72 0 -121 -49t-49 -121v-164zM209 1351.5q0 24.5 17.5 43t42 18.5t43 -18.5t18.5 -43t-18.5 -42t-43 -17.5t-42 17.5t-17.5 42zM457 1351.5q0 24.5 18.5 43t43 18.5t42 -18.5t17.5 -43t-17.5 -42t-42 -17.5t-43 17.5t-18.5 42z" />
<glyph unicode="&#xec;" horiz-adv-x="423" d="M-6 1567h117l206 -269h-116zM154 176v971h102v-971q0 -31 46 -62.5t89 -31.5v-102q-86 0 -161.5 59t-75.5 137z" />
<glyph unicode="&#xed;" horiz-adv-x="421" d="M68 1298l206 269h117l-205 -269h-118zM133 176v971h103v-971q0 -31 46 -62.5t89 -31.5v-102q-86 0 -162 59t-76 137z" />
<glyph unicode="&#xee;" horiz-adv-x="444" d="M-76 1305l254 303h19l254 -303h-103l-158 200h-6l-157 -200h-103zM135 176v971h103v-971q0 -31 46 -62.5t89 -31.5v-102q-86 0 -162 59t-76 137z" />
<glyph unicode="&#xef;" horiz-adv-x="403" d="M-2 1351.5q0 24.5 17.5 43t42 18.5t43 -18.5t18.5 -43t-18.5 -42t-43 -17.5t-42 17.5t-17.5 42zM133 176v971h103v-971q0 -31 46 -62.5t89 -31.5v-102q-86 0 -162 59t-76 137zM246 1351.5q0 24.5 18.5 43t43 18.5t42 -18.5t17.5 -43t-17.5 -42t-42 -17.5t-43 17.5 t-18.5 42z" />
<glyph unicode="&#xf0;" horiz-adv-x="743" d="M82 254v362q0 113 80 193t192 80h45q45 0 88 -15.5t62.5 -30t19.5 -16.5v207h-172v101h172v229q0 55 -45 99t-100 44h-43q-70 0 -131.5 -61.5t-61.5 -130.5v-160h-102v160q0 123 86 209t209 86h45q102 0 174 -72t72 -174v-229h102v-101h-102v-780q0 -113 -80 -192.5 t-193 -79.5h-45q-113 0 -192.5 79.5t-79.5 192.5zM184 254q0 -70 49.5 -120t120.5 -50h45q72 0 121 50t49 120v373q0 68 -50 113.5t-120 45.5h-45q-72 0 -121 -49t-49 -121v-362z" />
<glyph unicode="&#xf1;" horiz-adv-x="825" d="M123 0v1147h102v-127q20 16 53 40.5t111 65.5t127 41q82 0 139.5 -57t57.5 -139v-971h-103v971q0 41 -28.5 67.5t-65.5 26.5q-49 0 -121.5 -42t-120.5 -85l-49 -41v-897h-102zM145 1423q53 63 127 64q51 0 142.5 -36t138.5 -36q61 0 115 58l10 -95q-55 -66 -125 -65 q-51 0 -142.5 35.5t-138.5 35.5q-66 0 -116 -55z" />
<glyph unicode="&#xf2;" horiz-adv-x="794" d="M102 252v643q0 113 80 192.5t193 79.5h45q113 0 192.5 -79.5t79.5 -192.5v-643q0 -113 -80 -192.5t-192 -79.5h-45q-113 0 -193 79.5t-80 192.5zM205 252q0 -72 49 -121t121 -49h45q72 0 121 49t49 121v643q0 72 -49 121t-121 49h-45q-72 0 -121 -49t-49 -121v-643z M223 1567h117l207 -269h-117z" />
<glyph unicode="&#xf3;" horiz-adv-x="794" d="M102 252v643q0 113 80 192.5t193 79.5h45q113 0 192.5 -79.5t79.5 -192.5v-643q0 -113 -80 -192.5t-192 -79.5h-45q-113 0 -193 79.5t-80 192.5zM205 252q0 -72 49 -121t121 -49h45q72 0 121 49t49 121v643q0 72 -49 121t-121 49h-45q-72 0 -121 -49t-49 -121v-643z M305 1298l207 269h117l-205 -269h-119z" />
<glyph unicode="&#xf4;" horiz-adv-x="794" d="M102 252v643q0 113 80 192.5t193 79.5h45q113 0 192.5 -79.5t79.5 -192.5v-643q0 -113 -80 -192.5t-192 -79.5h-45q-113 0 -193 79.5t-80 192.5zM133 1305l254 303h19l253 -303h-102l-158 200h-6l-157 -200h-103zM205 252q0 -72 49 -121t121 -49h45q72 0 121 49t49 121 v643q0 72 -49 121t-121 49h-45q-72 0 -121 -49t-49 -121v-643z" />
<glyph unicode="&#xf5;" horiz-adv-x="794" d="M102 252v643q0 113 80 192.5t193 79.5h45q113 0 192.5 -79.5t79.5 -192.5v-643q0 -113 -80 -192.5t-192 -79.5h-45q-113 0 -193 79.5t-80 192.5zM131 1423q53 63 127 64q51 0 142.5 -36t138.5 -36q61 0 114 58l11 -95q-55 -66 -125 -65q-51 0 -142.5 35.5t-138.5 35.5 q-66 0 -117 -55zM205 252q0 -72 49 -121t121 -49h45q72 0 121 49t49 121v643q0 72 -49 121t-121 49h-45q-72 0 -121 -49t-49 -121v-643z" />
<glyph unicode="&#xf6;" horiz-adv-x="794" d="M102 252v643q0 113 80 192.5t193 79.5h45q113 0 192.5 -79.5t79.5 -192.5v-643q0 -113 -80 -192.5t-192 -79.5h-45q-113 0 -193 79.5t-80 192.5zM205 252q0 -72 49 -121t121 -49h45q72 0 121 49t49 121v643q0 72 -49 121t-121 49h-45q-72 0 -121 -49t-49 -121v-643z M209 1351.5q0 24.5 17.5 43t42 18.5t43 -18.5t18.5 -43t-18.5 -42t-43 -17.5t-42 17.5t-17.5 42zM457 1351.5q0 24.5 18.5 43t43 18.5t42 -18.5t17.5 -43t-17.5 -42t-42 -17.5t-43 17.5t-18.5 42z" />
<glyph unicode="&#xf7;" horiz-adv-x="880" d="M82 670v100h717v-100h-717zM379 477.5q0 24.5 17.5 43t42 18.5t43 -18.5t18.5 -43t-18.5 -42t-43 -17.5t-42 17.5t-17.5 42zM379 964.5q0 24.5 17.5 43t42 18.5t43 -18.5t18.5 -43t-18.5 -42t-43 -17.5t-42 17.5t-17.5 42z" />
<glyph unicode="&#xf8;" horiz-adv-x="835" d="M102 -55l66 155q-45 68 -45 152v643q0 113 80 192.5t192 79.5h45q86 0 152 -47l39 90h102l-67 -161q47 -74 47 -154v-643q0 -113 -80 -192.5t-193 -79.5h-45q-86 0 -155 49l-35 -84h-103zM225 240l326 782q-47 43 -111 43h-45q-72 0 -121 -49t-49 -121v-655zM281 125 q47 -43 114 -43h45q72 0 121 49t49 121v643q0 12 -2 18z" />
<glyph unicode="&#xf9;" horiz-adv-x="825" d="M113 176v971h102v-971q0 -41 28.5 -67.5t65.5 -26.5q49 0 122 42t122 85l47 41v897h102v-1147h-102v127q-20 -16 -53 -41t-111 -65.5t-127 -40.5q-82 0 -139 57t-57 139zM217 1567h117l207 -269h-117z" />
<glyph unicode="&#xfa;" horiz-adv-x="825" d="M113 176v971h102v-971q0 -41 28.5 -67.5t65.5 -26.5q49 0 122 42t122 85l47 41v897h102v-1147h-102v127q-20 -16 -53 -41t-111 -65.5t-127 -40.5q-82 0 -139 57t-57 139zM367 1298l206 269h117l-205 -269h-118z" />
<glyph unicode="&#xfb;" horiz-adv-x="825" d="M113 176v971h102v-971q0 -41 28.5 -67.5t65.5 -26.5q49 0 122 42t122 85l47 41v897h102v-1147h-102v127q-20 -16 -53 -41t-111 -65.5t-127 -40.5q-82 0 -139 57t-57 139zM135 1305l254 303h19l254 -303h-103l-158 200h-6l-157 -200h-103z" />
<glyph unicode="&#xfc;" horiz-adv-x="825" d="M113 176v971h102v-971q0 -41 28.5 -67.5t65.5 -26.5q49 0 122 42t122 85l47 41v897h102v-1147h-102v127q-20 -16 -53 -41t-111 -65.5t-127 -40.5q-82 0 -139 57t-57 139zM223 1351.5q0 24.5 17.5 43t42 18.5t43 -18.5t18.5 -43t-18.5 -42t-43 -17.5t-42 17.5t-17.5 42z M471 1351.5q0 24.5 18.5 43t43 18.5t42 -18.5t17.5 -43t-17.5 -42t-42 -17.5t-43 17.5t-18.5 42z" />
<glyph unicode="&#xfd;" horiz-adv-x="686" d="M20 1143h103l192 -1034q4 -27 21 -27h33l194 1059h103l-269 -1465h-102l55 304h-41q-31 0 -57.5 21.5t-30.5 47.5zM291 1298l207 269h116l-204 -269h-119z" />
<glyph unicode="&#xfe;" horiz-adv-x="815" d="M113 -295v1862h102v-547q20 16 53 40.5t111 65.5t127 41q82 0 139 -57t57 -139v-719q0 -113 -79.5 -192.5t-192.5 -79.5h-45q-98 0 -170 59v-334h-102zM215 252q0 -72 50 -121t120 -49h45q70 0 120 49t50 121v719q0 41 -28.5 67.5t-65.5 26.5q-49 0 -122 -42t-122 -85 l-47 -41v-645z" />
<glyph unicode="&#xff;" horiz-adv-x="686" d="M20 1143h103l192 -1034q4 -27 21 -27h33l194 1059h103l-269 -1465h-102l55 304h-41q-31 0 -57.5 21.5t-30.5 47.5zM160 1351.5q0 24.5 17.5 43t42 18.5t43 -18.5t18.5 -43t-18.5 -42t-43 -17.5t-42 17.5t-17.5 42zM408 1351.5q0 24.5 18 43t43 18.5t42 -18.5t17 -43 t-17 -42t-42 -17.5t-43 17.5t-18 42z" />
<glyph unicode="&#x152;" horiz-adv-x="1189" d="M113 274v1082q0 123 86 209t209 86h41q111 0 192 -72v59h508v-102h-406v-582h351v-102h-351v-750h406v-102h-508v49q-82 -70 -192 -69h-41q-123 0 -209 85.5t-86 208.5zM215 274q0 -80 56.5 -136t136.5 -56h41q80 0 136 56.5t56 135.5v1090q0 76 -57.5 130t-134.5 54h-41 q-80 0 -136.5 -56t-56.5 -136v-1082z" />
<glyph unicode="&#x153;" horiz-adv-x="1251" d="M102 252v643q0 113 80 192.5t193 79.5h45q141 0 221 -112q80 113 221 112h45q113 0 193 -79.5t80 -192.5v-264h-488v-379q0 -72 49.5 -121t120.5 -49h45q72 0 121 49t49 121v147h103v-147q0 -113 -80 -192.5t-193 -79.5h-45q-141 0 -221 112q-80 -113 -221 -112h-45 q-113 0 -193 79.5t-80 192.5zM205 252q0 -72 49 -121t121 -49h45q70 0 120 47t50 115v651q0 72 -49 121t-121 49h-45q-72 0 -121 -49t-49 -121v-643zM692 731h385v164q0 72 -49 121t-121 49h-45q-72 0 -121 -49t-49 -121v-164z" />
<glyph unicode="&#x178;" horiz-adv-x="868" d="M20 1638h103l285 -1058q4 -27 20 -27h16q14 0 21 27l280 1058h103l-289 -1118q-6 -23 -26.5 -43t-47.5 -26v-451h-102v453q-27 6 -46.5 25.5t-23.5 41.5zM244 1761.5q0 24.5 17.5 43t42 18.5t43 -18.5t18.5 -43t-18.5 -42t-43 -17.5t-42 17.5t-17.5 42zM492 1761.5 q0 24.5 18 43t43 18.5t42 -18.5t17 -43t-17 -42t-42 -17.5t-43 17.5t-18 42z" />
<glyph unicode="&#x2c6;" horiz-adv-x="634" d="M63 1305l254 303h19l254 -303h-103l-157 200h-6l-158 -200h-103z" />
<glyph unicode="&#x2dc;" horiz-adv-x="628" d="M49 1423q53 63 127 64q51 0 142.5 -36t138.5 -36q61 0 114 58l11 -95q-55 -66 -125 -65q-51 0 -142.5 35.5t-138.5 35.5q-66 0 -117 -55z" />
<glyph unicode="&#x2013;" horiz-adv-x="589" d="M0 670v100h590v-100h-590z" />
<glyph unicode="&#x2014;" horiz-adv-x="1159" d="M0 670v100h1159v-100h-1159z" />
<glyph unicode="&#x2018;" horiz-adv-x="382" d="M133 1405q0 39 14 78l60 153l90 -32l-59 -156q-6 -14 -7 -45q0 -41 19.5 -64.5t71.5 -42.5l-33 -90q-156 56 -156 199z" />
<glyph unicode="&#x2019;" horiz-adv-x="382" d="M61 1554l33 91q156 -55 156 -199q0 -39 -14 -78l-60 -154l-90 33l59 156q6 14 7 45q0 41 -20 64.5t-71 41.5z" />
<glyph unicode="&#x201a;" horiz-adv-x="382" d="M61 16l33 90q156 -55 156 -198q0 -39 -14 -78l-60 -154l-90 33l59 156q6 14 7 45q0 41 -20 64.5t-71 41.5z" />
<glyph unicode="&#x201c;" horiz-adv-x="587" d="M133 1405q0 39 14 78l60 153l90 -32l-59 -156q-6 -14 -7 -45q0 -41 19.5 -64.5t71.5 -42.5l-33 -90q-156 56 -156 199zM338 1405q0 39 14 78l60 153l90 -32l-60 -156q-6 -14 -6 -45q0 -41 19.5 -64.5t70.5 -42.5l-32 -90q-156 56 -156 199z" />
<glyph unicode="&#x201d;" horiz-adv-x="587" d="M61 1554l33 91q156 -55 156 -199q0 -39 -14 -78l-60 -154l-90 33l59 156q6 14 7 45q0 41 -20 64.5t-71 41.5zM266 1554l33 91q156 -55 156 -199q0 -39 -15 -78l-59 -154l-90 33l59 156q6 14 6 45q0 41 -19.5 64.5t-70.5 41.5z" />
<glyph unicode="&#x201e;" horiz-adv-x="587" d="M61 16l33 90q156 -55 156 -198q0 -39 -14 -78l-60 -154l-90 33l59 156q6 14 7 45q0 41 -20 64.5t-71 41.5zM266 16l33 90q156 -55 156 -198q0 -39 -15 -78l-59 -154l-90 33l59 156q6 14 6 45q0 41 -19.5 64.5t-70.5 41.5z" />
<glyph unicode="&#x2022;" horiz-adv-x="479" d="M133 551q0 47 35 82t82 35t82 -35t35 -82t-35 -82t-82 -35t-82 35t-35 82z" />
<glyph unicode="&#x2026;" horiz-adv-x="1062" d="M164 59.5q0 24.5 17.5 43t42 18.5t43 -18.5t18.5 -43t-18.5 -42t-43 -17.5t-42 17.5t-17.5 42zM471 59.5q0 24.5 17.5 43t42 18.5t43 -18.5t18.5 -43t-18.5 -42t-43 -17.5t-42 17.5t-17.5 42zM778 59.5q0 24.5 17.5 43t42 18.5t43 -18.5t18.5 -43t-18.5 -42t-43 -17.5 t-42 17.5t-17.5 42z" />
<glyph unicode="&#x2039;" horiz-adv-x="643" d="M61 489l412 302l68 -70l-324 -232l324 -231l-68 -70z" />
<glyph unicode="&#x203a;" horiz-adv-x="643" d="M102 258l324 231l-324 232l68 70l412 -302l-412 -301z" />
<glyph unicode="&#x20ac;" horiz-adv-x="917" d="M72 676v102h112v74h-112v102h112v340q0 123 86 209t209 86h41q123 0 209 -86t86 -209v-258h-102v258q0 80 -56.5 136.5t-136.5 56.5h-41q-80 0 -136 -56.5t-56 -136.5v-340h350v-102h-350v-74h350v-102h-350v-402q0 -80 56 -136t136 -56h41q80 0 134.5 56.5t54.5 135.5 v324h106v-324q0 -123 -86 -208.5t-209 -85.5h-41q-123 0 -209 86t-86 208v402h-112z" />
<glyph unicode="&#x2122;" horiz-adv-x="1073" d="M92 1556v82h338v-82h-129v-737h-80v737h-129zM471 819v819h201l53 -716l55 716h201v-819h-82v737h-41l-63 -716h-140l-61 716h-41v-737h-82z" />
<glyph unicode="&#xe000;" horiz-adv-x="1145" d="M0 1145h1145v-1145h-1145v1145z" />
<glyph unicode="&#xfb01;" horiz-adv-x="868" d="M10 1047v100h164v223q0 78 76 137.5t162 59.5v-103q-39 0 -87.5 -30.5t-48.5 -63.5v-223h426v-971q0 -31 46.5 -62.5t89.5 -31.5v-102q-86 0 -162 59t-76 137v871h-324v-1168q0 -78 -75.5 -137t-161.5 -59v102q39 0 87 30.5t48 63.5v1168h-164zM600 1350v217h102v-217 h-102z" />
<glyph unicode="&#xfb02;" horiz-adv-x="868" d="M10 1047v100h164v223q0 78 76 137.5t162 59.5h290v-1391q0 -31 46.5 -62.5t89.5 -31.5v-102q-86 0 -162 59t-76 137v1288h-188q-39 0 -87.5 -30.5t-48.5 -63.5v-223h220v-100h-220v-1168q0 -78 -75.5 -137t-161.5 -59v102q39 0 87 30.5t48 63.5v1168h-164z" />
<glyph unicode="&#xfb03;" horiz-adv-x="1392" d="M1124 176v971h103v-971q0 -31 46 -62.5t89 -31.5v-102q-86 0 -162 59t-76 137zM1124 1350v217h103v-217h-103zM506 1055v100h164v215q0 78 76 137.5t162 59.5v-103q-39 0 -87.5 -30.5t-48.5 -63.5v-215h220v-100h-220v-1176q0 -78 -75.5 -137t-161.5 -59v102 q39 0 87 30.5t48 63.5v1176h-164zM10 1055v100h164v215q0 78 76 137.5t162 59.5v-103q-39 0 -87.5 -30.5t-48.5 -63.5v-215h220v-100h-220v-1176q0 -78 -75.5 -137t-161.5 -59v102q39 0 87 30.5t48 63.5v1176h-164z" />
<glyph unicode="&#xfb04;" horiz-adv-x="1392" d="M1124 176v1389h103v-1389q0 -31 46 -62.5t89 -31.5v-102q-86 0 -162 59t-76 137zM506 1055v100h164v215q0 78 76 137.5t162 59.5v-103q-39 0 -87.5 -30.5t-48.5 -63.5v-215h220v-100h-220v-1176q0 -78 -75.5 -137t-161.5 -59v102q39 0 87 30.5t48 63.5v1176h-164z M10 1055v100h164v215q0 78 76 137.5t162 59.5v-103q-39 0 -87.5 -30.5t-48.5 -63.5v-215h220v-100h-220v-1176q0 -78 -75.5 -137t-161.5 -59v102q39 0 87 30.5t48 63.5v1176h-164z" />
</font>
</defs>
</svg>
